<?xml version="1.0" standalone="no"?><!DOCTYPE svg PUBLIC "-//W3C//DTD SVG 1.1//EN" "http://www.w3.org/Graphics/SVG/1.1/DTD/svg11.dtd"><svg height="243" node-id="1" sillyvg="true" template-height="243" template-width="201" version="1.1" viewBox="0 0 201 243" width="201" xmlns="http://www.w3.org/2000/svg" xmlns:xlink="http://www.w3.org/1999/xlink"><defs node-id="51"></defs><path d="M 76.59 34.10 C 76.59 34.10 136.20 -4.36 188.81 79.62 C 225.06 137.48 170.59 180.76 149.90 207.85 C 149.90 207.85 118.18 201.03 130.67 132.04 C 136.50 99.85 76.59 34.10 76.59 34.10 Z" fill="#ba8893" fill-rule="nonzero" node-id="53" stroke="none" target-height="212.20801" target-width="148.466" target-x="76.592" target-y="-4.361"></path><path d="M 188.31 166.64 C 186.49 176.75 176.23 188.69 166.58 186.67 C 156.94 184.66 150.60 174.83 152.43 164.72 C 154.25 154.60 163.54 148.03 173.18 150.04 C 182.82 152.05 190.13 156.52 188.31 166.64 Z" fill="#f5c6b3" fill-rule="nonzero" node-id="55" stroke="none" target-height="40.658997" target-width="39.522003" target-x="150.605" target-y="148.028"></path><path d="M 74.21 35.08 C 74.21 35.08 -6.76 12.89 0.46 123.90 C 0.46 123.90 8.99 185.51 21.23 185.51 C 48.11 185.51 108.91 36.64 74.21 35.08 Z" fill="#f2b1c0" fill-rule="nonzero" node-id="57" stroke="none" target-height="172.62001" target-width="115.677" target-x="-6.764" target-y="12.888"></path><path d="M 74.72 36.57 C 74.72 36.57 11.43 21.40 7.28 112.98 C 7.28 112.98 9.90 161.43 36.20 159.14 C 62.49 156.86 109.25 39.02 74.72 36.57 Z" fill="#cf97a4" fill-rule="nonzero" node-id="59" stroke="none" target-height="140.02798" target-width="101.971" target-x="7.279" target-y="21.402"></path><path d="M 72.01 47.48 C 72.01 47.48 8.72 32.31 4.57 123.90 C 4.57 123.90 7.20 172.34 33.49 170.06 C 59.78 167.77 106.55 49.94 72.01 47.48 Z" fill="#a87b86" fill-rule="nonzero" node-id="61" stroke="none" target-height="140.03" target-width="101.972" target-x="4.573" target-y="32.315"></path><path d="M 11.09 119.25 C 13.96 145.19 3.15 160.41 6.66 178.04 C 10.34 196.51 29.35 217.01 78.83 227.37 C 125.28 237.11 170.28 204.47 179.32 154.49 C 188.36 104.50 158.04 56.09 111.58 46.36 C 65.12 36.63 5.49 68.68 11.09 119.25 Z" fill="#f5c6b3" fill-rule="nonzero" node-id="63" stroke="none" target-height="200.47803" target-width="185.219" target-x="3.145" target-y="36.628"></path><g node-id="165"><path d="M 21.27 116.89 C 23.84 138.28 19.49 150.55 17.79 165.33 C 15.74 183.20 37.28 197.58 79.41 206.40 C 118.97 214.69 157.07 188.04 164.52 146.89 C 171.96 105.74 145.93 65.66 106.38 57.38 C 66.82 49.09 16.27 75.17 21.27 116.89 Z" fill="#ffddcf" fill-opacity="0.61" fill-rule="nonzero" group-id="1" node-id="67" stroke="none" target-height="165.595" target-width="156.21701" target-x="15.742" target-y="49.091"></path></g><path d="M 39.05 74.32 C 39.05 74.32 60.40 149.75 164.52 146.89 C 164.52 146.89 189.36 77.22 127.75 64.08 C 66.13 50.94 39.05 63.03 39.05 74.32 Z" fill="#f5c6b3" fill-rule="nonzero" node-id="70" stroke="none" target-height="98.810005" target-width="150.30902" target-x="39.054" target-y="50.943"></path><path d="M 114.43 158.33 C 113.31 164.41 107.46 168.82 101.37 168.18 C 95.28 167.54 91.25 162.10 92.37 156.02 C 93.49 149.95 99.34 145.54 105.43 146.17 C 111.52 146.81 115.56 152.25 114.43 158.33 Z" fill="#3f3f3f" fill-rule="nonzero" node-id="72" stroke="none" target-height="23.278992" target-width="24.307999" target-x="91.249" target-y="145.537"></path><path d="M 44.09 56.26 C 44.09 56.26 43.44 129.41 153.71 139.56 L 53.41 53.05 L 44.09 56.26 Z" fill="#a87b86" fill-rule="nonzero" node-id="74" stroke="none" target-height="86.515" target-width="110.27301" target-x="43.437" target-y="53.047"></path><path d="M 60.28 40.44 C 60.28 40.44 35.30 66.95 82.93 109.79 C 82.93 109.79 111.63 135.79 160.20 140.46 C 160.20 140.46 178.54 138.69 188.45 169.73 C 188.45 169.73 205.96 82.10 152.85 60.95 C 99.74 39.80 106.32 20.57 60.28 40.44 Z" fill="#e3a6b4" fill-rule="nonzero" node-id="76" stroke="none" target-height="149.16101" target-width="170.66399" target-x="35.297" target-y="20.568"></path><path d="M 150.57 67.38 C 181.90 80.86 189.90 119.67 190.63 152.60 C 192.72 125.99 191.14 76.19 152.85 60.95 C 110.33 44.01 106.07 28.32 82.43 32.93 C 101.54 32.45 109.83 49.84 150.57 67.38 Z" fill="#ffbaca" fill-rule="nonzero" node-id="78" stroke="none" target-height="124.285" target-width="110.28901" target-x="82.434" target-y="28.315998"></path><path d="M 189.16 156.14 C 184.49 109.06 155.25 94.72 155.25 94.72 C 70.16 59.96 93.72 34.80 93.72 34.80 C 93.23 33.91 92.76 33.04 92.29 32.18 C 84.60 31.67 75.21 34.00 60.28 40.44 C 60.28 40.44 35.30 66.95 82.93 109.79 C 82.93 109.79 114.24 137.76 160.20 140.46 C 160.20 140.46 178.54 138.69 188.45 169.73 C 188.45 169.73 189.11 164.31 189.32 155.85 C 189.22 156.04 189.16 156.14 189.16 156.14 Z" fill="#cf97a4" fill-rule="nonzero" node-id="80" stroke="none" target-height="138.06" target-width="154.02" target-x="35.297" target-y="31.668"></path><path d="M 167.21 131.25 C 112.88 118.43 94.65 83.83 94.65 83.83 C 80.37 62.90 78.50 46.36 78.37 33.87 C 73.33 35.21 67.44 37.35 60.28 40.44 C 60.28 40.44 32.70 63.53 82.93 109.79 C 82.93 109.79 109.60 135.79 160.20 140.46 C 160.20 140.46 178.54 138.69 188.45 169.73 C 185.39 133.88 167.21 131.25 167.21 131.25 Z" fill="#bf8c98" fill-rule="nonzero" node-id="82" stroke="none" target-height="135.86" target-width="155.74501" target-x="32.702" target-y="33.868"></path><path d="M 62.96 143.87 C 63.18 149.74 58.44 154.59 52.39 154.69 C 46.34 154.80 41.26 150.13 41.05 144.25 C 40.84 138.38 45.57 133.54 51.62 133.43 C 57.67 133.32 62.75 138.00 62.96 143.87 Z" fill="#3f3f3f" fill-rule="nonzero" node-id="84" stroke="none" target-height="21.472" target-width="22.335999" target-x="40.84" target-y="133.325"></path><g node-id="166"><path d="M 57.38 44.75 C 45.87 61.30 99.04 72.99 133.25 76.78 C 152.46 78.90 170.50 77.87 185.40 74.38 L 176.97 62.84 C 163.95 65.36 148.10 65.95 131.19 64.08 C 101.25 60.76 76.04 50.62 64.56 38.65 C 64.56 38.65 59.83 41.24 57.38 44.75 Z" fill="#000000" fill-opacity="0.24" fill-rule="nonzero" group-id="2" node-id="88" stroke="none" target-height="40.258" target-width="139.52698" target-x="45.871" target-y="38.646"></path></g><g node-id="167"><path d="M 60.84 196.31 C 59.26 196.31 57.77 196.06 56.37 195.55 C 50.23 193.30 48.35 186.95 48.27 186.68 C 48.12 186.15 48.42 185.60 48.95 185.45 C 49.49 185.29 50.04 185.60 50.19 186.13 C 50.21 186.19 51.90 191.79 57.08 193.68 C 61.59 195.32 67.42 193.79 74.40 189.12 C 74.86 188.82 75.48 188.94 75.78 189.40 C 76.09 189.86 75.97 190.48 75.51 190.79 C 70.00 194.47 65.09 196.31 60.84 196.31 Z" fill="#000000" fill-opacity="0.55" fill-rule="nonzero" group-id="3" node-id="93" stroke="none" target-height="11.019989" target-width="27.976006" target-x="48.115997" target-y="185.294"></path></g><path d="M 27.73 212.08 C 27.73 212.08 38.02 234.65 55.18 239.77 L 56.90 239.59 C 56.90 239.59 64.58 238.59 65.73 229.02 C 65.73 229.02 67.41 219.78 63.68 220.16 C 62.99 220.23 58.21 225.11 58.01 224.62 C 57.80 224.12 62.18 218.23 62.21 217.39 C 62.31 214.62 62.93 210.73 58.99 210.39 C 57.47 210.26 53.32 214.02 53.22 213.41 C 53.12 212.80 57.07 207.82 57.39 207.06 C 58.06 205.42 58.55 203.81 53.96 203.82 C 45.07 203.83 45.50 207.22 42.19 201.55 C 38.89 195.89 27.12 205.51 27.73 212.08 Z" fill="#ffddcf" fill-rule="nonzero" node-id="96" stroke="none" target-height="43.88298" target-width="40.288998" target-x="27.118" target-y="195.892"></path><path d="M 11.97 230.46 C 11.97 230.46 21.73 213.82 38.55 228.94 L 27.74 211.12 C 27.74 211.12 14.59 220.83 11.97 230.46 Z" fill="#f5c6b3" fill-rule="nonzero" node-id="98" stroke="none" target-height="19.342987" target-width="26.576998" target-x="11.975" target-y="211.12001"></path><path d="M 111.56 211.86 C 111.56 211.86 103.03 235.88 85.63 242.88 L 83.81 242.88 C 83.81 242.88 75.70 242.65 73.56 233.03 C 73.56 233.03 70.92 223.81 74.85 223.81 C 75.57 223.81 81.03 228.28 81.19 227.76 C 81.36 227.23 76.22 221.70 76.10 220.84 C 75.73 218.03 74.71 214.14 78.78 213.39 C 80.35 213.10 85.05 216.49 85.09 215.85 C 85.14 215.22 80.53 210.57 80.13 209.83 C 79.26 208.24 78.59 206.65 83.39 206.18 C 92.66 205.27 92.55 208.76 95.44 202.66 C 98.33 196.56 111.56 205.12 111.56 211.86 Z" fill="#ffddcf" fill-rule="nonzero" node-id="100" stroke="none" target-height="46.322006" target-width="40.64" target-x="70.915" target-y="196.556"></path><path d="M 103.37 227.17 C 103.37 227.17 117.29 211.24 133.35 234.16 C 133.35 234.16 126.86 217.98 112.67 211.44 L 103.37 227.17 Z" fill="#f5c6b3" fill-rule="nonzero" node-id="102" stroke="none" target-height="22.927017" target-width="29.978004" target-x="103.372" target-y="211.23598"></path><g node-id="168"><path d="M 103.50 146.28 C 103.50 146.28 97.45 147.44 97.45 139.94 C 97.45 139.94 93.75 145.23 97.03 148.67 C 100.31 152.11 103.50 146.28 103.50 146.28 Z" fill="#3f3f3f" fill-rule="nonzero" group-id="4" node-id="106" stroke="none" target-height="12.162994" target-width="9.74501" target-x="93.74999" target-y="139.945"></path><path d="M 105.56 147.24 C 105.56 147.24 101.76 146.28 103.60 141.93 C 103.60 141.93 99.65 143.89 100.71 146.77 C 101.77 149.66 105.56 147.24 105.56 147.24 Z" fill="#3f3f3f" fill-rule="nonzero" group-id="4" node-id="108" stroke="none" target-height="7.7299957" target-width="5.9140015" target-x="99.649" target-y="141.929"></path></g><g node-id="169"><path d="M 53.68 134.14 C 53.68 134.14 47.62 133.03 50.10 126.00 C 50.10 126.00 44.88 129.61 46.83 134.03 C 48.77 138.45 53.68 134.14 53.68 134.14 Z" fill="#3f3f3f" fill-rule="nonzero" group-id="5" node-id="113" stroke="none" target-height="12.449997" target-width="8.792999" target-x="44.884" target-y="125.996"></path><path d="M 55.30 135.79 C 55.30 135.79 52.05 133.51 55.22 130.09 C 55.22 130.09 50.86 130.50 50.90 133.59 C 50.95 136.68 55.30 135.79 55.30 135.79 Z" fill="#3f3f3f" fill-rule="nonzero" group-id="5" node-id="115" stroke="none" target-height="6.5859985" target-width="4.438999" target-x="50.861" target-y="130.093"></path></g><path d="M 105.90 153.54 C 105.90 155.92 104.06 157.85 101.79 157.85 C 99.52 157.85 97.68 155.92 97.68 153.54 C 97.68 151.16 99.52 149.23 101.79 149.23 C 104.06 149.23 105.90 151.16 105.90 153.54 Z" fill="#f7f7f7" fill-rule="nonzero" node-id="118" stroke="none" target-height="8.623993" target-width="8.227989" target-x="97.676" target-y="149.23001"></path><path d="M 57.90 140.07 C 57.90 142.33 56.15 144.17 53.99 144.17 C 51.83 144.17 50.08 142.33 50.08 140.07 C 50.08 137.80 51.83 135.97 53.99 135.97 C 56.15 135.97 57.90 137.80 57.90 140.07 Z" fill="#f7f7f7" fill-rule="nonzero" node-id="120" stroke="none" target-height="8.201996" target-width="7.8219986" target-x="50.076" target-y="135.965"></path><path d="M 119.98 77.52 C 119.98 77.52 140.23 91.95 153.37 99.66 C 170.50 109.70 188.45 135.78 188.45 169.73 C 188.45 169.73 193.78 115.20 156.88 96.36 C 119.98 77.52 119.98 77.52 119.98 77.52 Z" fill="#bf8c98" fill-rule="nonzero" node-id="122" stroke="none" target-height="92.212006" target-width="73.79701" target-x="119.985" target-y="77.517"></path><path d="M 78.02 33.63 C 78.02 33.63 74.25 113.81 167.21 131.25 C 167.21 131.25 78.02 107.38 78.02 33.63 Z" fill="#a87b86" fill-rule="nonzero" node-id="124" stroke="none" target-height="97.62501" target-width="92.95599" target-x="74.252" target-y="33.628"></path><g node-id="170"><g node-id="174"><g node-id="177"><path d="M 174.21 38.42 C 174.29 37.99 174.46 37.71 174.52 37.64 C 171.72 44.62 151.76 43.93 121.98 37.63 C 92.20 31.33 74.74 25.08 73.34 16.23 C 73.37 16.32 73.42 16.65 73.35 17.08 C 73.27 17.51 73.10 17.79 73.04 17.87 C 78.41 11.71 95.81 11.58 125.58 17.88 C 155.37 24.18 172.82 30.74 174.22 39.27 C 174.20 39.18 174.14 38.85 174.21 38.42 Z M 128.12 4.00 C 121.64 2.63 64.67 -8.73 60.45 14.35 C 56.23 37.44 112.96 50.13 119.44 51.51 C 125.92 52.88 182.89 64.24 187.12 41.15 C 191.33 18.06 134.60 5.37 128.12 4.00 Z" fill="#94ebff" fill-rule="nonzero" group-id="6,10,13" node-id="132" stroke="none" target-height="72.97" target-width="135.105" target-x="56.227997" target-y="-8.732"></path></g><path d="M 174.34 33.87 C 174.41 33.75 174.47 33.63 174.52 33.51 C 174.49 33.55 174.42 33.69 174.34 33.87 Z M 125.58 17.88 C 151.15 23.29 167.62 28.88 172.66 35.76 C 173.23 35.34 173.62 38.75 173.97 38.24 C 171.66 30.08 154.46 19.85 125.58 13.75 C 96.73 7.64 79.28 11.48 73.35 17.08 C 73.67 18.09 74.47 15.19 75.22 16.13 C 82.31 11.79 98.98 12.25 125.58 17.88 Z M 187.17 36.65 C 187.15 36.77 187.14 36.90 187.12 37.02 C 182.89 60.10 125.92 48.74 119.44 47.37 C 113.39 46.09 63.62 34.96 60.40 14.72 C 56.84 37.58 113.00 50.14 119.44 51.51 C 125.92 52.88 182.89 64.24 187.12 41.15 C 187.40 39.60 187.40 38.10 187.17 36.65 Z" fill="#84d1e3" fill-rule="nonzero" group-id="6,10" node-id="135" stroke="none" target-height="56.596" target-width="130.557" target-x="56.842" target-y="7.64"></path></g><path d="M 135.33 11.22 C 135.23 11.22 135.12 11.20 135.01 11.16 C 124.38 7.49 112.82 5.56 100.65 5.43 C 100.10 5.42 99.65 4.97 99.66 4.42 C 99.67 3.87 100.11 3.43 100.66 3.43 C 100.66 3.43 100.67 3.43 100.67 3.43 C 113.05 3.56 124.83 5.52 135.66 9.27 C 136.18 9.45 136.46 10.02 136.28 10.54 C 136.14 10.96 135.75 11.22 135.33 11.22 Z" fill="#ffffff" fill-rule="nonzero" group-id="6" node-id="138" stroke="none" target-height="7.7879996" target-width="36.808" target-x="99.653" target-y="3.428"></path><g node-id="175"><path d="M 74.85 8.21 C 74.20 8.21 73.59 7.77 73.41 7.11 C 73.18 6.32 73.65 5.49 74.44 5.26 C 74.63 5.21 79.03 3.98 86.26 3.15 C 87.08 3.05 87.83 3.64 87.92 4.46 C 88.02 5.29 87.43 6.03 86.61 6.12 C 79.62 6.94 75.30 8.14 75.26 8.15 C 75.12 8.19 74.99 8.21 74.85 8.21 Z" fill="#ffffff" fill-opacity="0.51" fill-rule="nonzero" group-id="6,11" node-id="142" stroke="none" target-height="5.153" target-width="14.835999" target-x="73.183" target-y="3.054"></path></g><path d="M 154.09 47.73 C 138.20 47.73 124.43 44.36 124.26 44.32 C 123.72 44.19 123.39 43.65 123.53 43.11 C 123.66 42.57 124.20 42.25 124.74 42.38 C 124.95 42.43 146.09 47.60 166.02 45.01 C 166.57 44.93 167.07 45.32 167.14 45.87 C 167.22 46.42 166.83 46.92 166.28 46.99 C 162.21 47.52 158.08 47.73 154.09 47.73 Z" fill="#ffffff" fill-opacity="0.68" fill-rule="nonzero" group-id="6,12" node-id="147" stroke="none" target-height="5.484997" target-width="43.82" target-x="123.395" target-y="42.247"></path></g><g node-id="171"><path d="M 177.38 163.00 C 177.38 163.00 184.82 162.26 182.69 168.36 C 180.55 174.47 173.23 181.18 173.23 178.74 C 173.23 176.30 177.38 163.00 177.38 163.00 Z" fill="#a87b86" fill-opacity="0.45" fill-rule="nonzero" group-id="7" node-id="153" stroke="none" target-height="18.917007" target-width="11.596024" target-x="173.228" target-y="162.26"></path></g><g node-id="172"><path d="M 182.69 168.36 C 184.82 162.26 177.38 163.00 177.38 163.00 C 177.38 163.00 176.68 165.27 175.85 168.10 L 175.85 168.10 C 175.85 168.10 184.48 163.29 181.29 171.32 C 181.86 170.34 182.34 169.35 182.69 168.36 Z" fill="#a87b86" fill-opacity="0.61" fill-rule="nonzero" group-id="8" node-id="158" stroke="none" target-height="9.059998" target-width="8.979004" target-x="175.846" target-y="162.259"></path></g><path d="M 56.28 175.12 C 56.28 170.91 60.27 167.50 65.20 167.50 C 67.42 167.50 69.44 168.19 71.00 169.33 C 69.92 166.17 66.50 163.85 62.44 163.85 C 57.51 163.85 53.52 167.27 53.52 171.48 C 53.52 173.80 54.73 175.87 56.64 177.27 C 56.41 176.59 56.28 175.87 56.28 175.12 Z" fill="#e8bcaa" fill-rule="nonzero" group-id="9" node-id="163" stroke="none" target-height="13.414001" target-width="17.481998" target-x="53.519" target-y="163.855"></path></svg>