<?xml version="1.0" standalone="no"?><!DOCTYPE svg PUBLIC "-//W3C//DTD SVG 1.1//EN" "http://www.w3.org/Graphics/SVG/1.1/DTD/svg11.dtd"><svg height="222" node-id="1" sillyvg="true" template-height="222" template-width="88" version="1.1" viewBox="0 0 88 222" width="88" xmlns="http://www.w3.org/2000/svg" xmlns:xlink="http://www.w3.org/1999/xlink"><defs node-id="79"><mask height="25.329926" id="mask-2" maskUnits="userSpaceOnUse" node-id="15" width="22.864128" x="60.826004" y="198.00957"><path d="M 62.73 200.12 L 81.78 200.12 L 81.78 221.23 L 62.73 221.23 Z" fill="#ffffff" fill-rule="evenodd" node-id="84" stroke="none" target-height="21.108246" target-width="19.05344" target-x="62.73135" target-y="200.12039"></path></mask><mask height="4.8044157" id="mask-4" maskUnits="userSpaceOnUse" node-id="32" width="41.564163" x="27.223007" y="0.07948804"><path d="M 30.69 0.48 L 65.32 0.48 L 65.32 4.48 L 30.69 4.48 Z" fill="#ffffff" fill-rule="evenodd" node-id="91" stroke="none" target-height="4.0035357" target-width="34.6368" target-x="30.686687" target-y="0.48000002"></path></mask><mask height="5.0279045" id="mask-6" maskUnits="userSpaceOnUse" node-id="40" width="0.20563126" x="35.105423" y="10.413648"><path d="M 0.00 221.23 L 87.87 221.23 L 87.87 0.48 L 0.00 0.48 Z" fill="#ffffff" fill-rule="evenodd" node-id="98" stroke="none" target-height="220.74866" target-width="87.87024" target-x="0" target-y="0.48"></path></mask><mask height="5.2853765" id="mask1" maskUnits="userSpaceOnUse" node-id="102" width="0.20563126" x="34.761745" y="10.177632"><path d="M 0.00 221.23 L 87.87 221.23 L 87.87 0.48 L 0.00 0.48 Z" fill="#ffffff" fill-rule="evenodd" node-id="106" stroke="none" target-height="220.74866" target-width="87.87024" target-x="0" target-y="0.48"></path></mask><mask height="5.2853765" id="mask2" maskUnits="userSpaceOnUse" node-id="110" width="0.20563126" x="34.418545" y="10.177632"><path d="M 0.00 221.23 L 87.87 221.23 L 87.87 0.48 L 0.00 0.48 Z" fill="#ffffff" fill-rule="evenodd" node-id="114" stroke="none" target-height="220.74866" target-width="87.87024" target-x="0" target-y="0.48"></path></mask><mask height="5.0279045" id="mask3" maskUnits="userSpaceOnUse" node-id="118" width="0.20563126" x="34.075344" y="10.413648"><path d="M 0.00 221.23 L 87.87 221.23 L 87.87 0.48 L 0.00 0.48 Z" fill="#ffffff" fill-rule="evenodd" node-id="122" stroke="none" target-height="220.74866" target-width="87.87024" target-x="0" target-y="0.48"></path></mask><mask height="20.69165" id="mask4" maskUnits="userSpaceOnUse" node-id="126" width="18.48145" x="14.723766" y="74.17853"><path d="M 0.00 221.23 L 87.87 221.23 L 87.87 0.48 L 0.00 0.48 Z" fill="#ffffff" fill-rule="evenodd" node-id="130" stroke="none" target-height="220.74866" target-width="87.87024" target-x="0" target-y="0.48"></path></mask><mask height="20.69165" id="mask5" maskUnits="userSpaceOnUse" node-id="134" width="18.481447" x="14.723623" y="74.17843"><path d="M 0.00 221.23 L 87.87 221.23 L 87.87 0.48 L 0.00 0.48 Z" fill="#ffffff" fill-rule="evenodd" node-id="138" stroke="none" target-height="220.74866" target-width="87.87024" target-x="0" target-y="0.48"></path></mask><mask height="185.57675" id="mask6" maskUnits="userSpaceOnUse" node-id="142" width="103.11554" x="-6.652416" y="15.46479"><path d="M 0.00 221.23 L 87.87 221.23 L 87.87 0.48 L 0.00 0.48 Z" fill="#ffffff" fill-rule="evenodd" node-id="146" stroke="none" target-height="220.74866" target-width="87.87024" target-x="0" target-y="0.48"></path></mask><mask height="125.49658" id="mask7" maskUnits="userSpaceOnUse" node-id="150" width="32.97254" x="26.03789" y="63.529293"><path d="M 0.00 221.23 L 87.87 221.23 L 87.87 0.48 L 0.00 0.48 Z" fill="#ffffff" fill-rule="evenodd" node-id="154" stroke="none" target-height="220.74866" target-width="87.87024" target-x="0" target-y="0.48"></path></mask><mask height="24.844025" id="mask8" maskUnits="userSpaceOnUse" node-id="158" width="27.086468" x="14.941578" y="195.97537"><path d="M 0.00 221.23 L 87.87 221.23 L 87.87 0.48 L 0.00 0.48 Z" fill="#ffffff" fill-rule="evenodd" node-id="162" stroke="none" target-height="220.74866" target-width="87.87024" target-x="0" target-y="0.48"></path></mask><mask height="17.949722" id="mask9" maskUnits="userSpaceOnUse" node-id="166" width="27.866783" x="15.43291" y="203.11282"><path d="M 0.00 221.23 L 87.87 221.23 L 87.87 0.48 L 0.00 0.48 Z" fill="#ffffff" fill-rule="evenodd" node-id="170" stroke="none" target-height="220.74866" target-width="87.87024" target-x="0" target-y="0.48"></path></mask><mask height="6.8932037" id="mask10" maskUnits="userSpaceOnUse" node-id="174" width="6.2539005" x="19.477146" y="205.56471"><path d="M 0.00 221.23 L 87.87 221.23 L 87.87 0.48 L 0.00 0.48 Z" fill="#ffffff" fill-rule="evenodd" node-id="178" stroke="none" target-height="220.74866" target-width="87.87024" target-x="0" target-y="0.48"></path></mask><mask height="25.348854" id="mask11" maskUnits="userSpaceOnUse" node-id="182" width="25.035961" x="9.966735" y="57.662865"><path d="M 0.00 221.23 L 87.87 221.23 L 87.87 0.48 L 0.00 0.48 Z" fill="#ffffff" fill-rule="evenodd" node-id="186" stroke="none" target-height="220.74866" target-width="87.87024" target-x="0" target-y="0.48"></path></mask><mask height="13.457489" id="mask12" maskUnits="userSpaceOnUse" node-id="190" width="22.158722" x="11.287871" y="60.950516"><path d="M 0.00 221.23 L 87.87 221.23 L 87.87 0.48 L 0.00 0.48 Z" fill="#ffffff" fill-rule="evenodd" node-id="194" stroke="none" target-height="220.74866" target-width="87.87024" target-x="0" target-y="0.48"></path></mask><mask height="0.20562744" id="mask13" maskUnits="userSpaceOnUse" node-id="198" width="0.0823679" x="12.244992" y="67.185745"><path d="M 0.00 221.23 L 87.87 221.23 L 87.87 0.48 L 0.00 0.48 Z" fill="#ffffff" fill-rule="evenodd" node-id="202" stroke="none" target-height="220.74866" target-width="87.87024" target-x="0" target-y="0.48"></path></mask><mask height="23.55856" id="mask14" maskUnits="userSpaceOnUse" node-id="206" width="31.127079" x="6.940604" y="51.477016"><path d="M 0.00 221.23 L 87.87 221.23 L 87.87 0.48 L 0.00 0.48 Z" fill="#ffffff" fill-rule="evenodd" node-id="210" stroke="none" target-height="220.74866" target-width="87.87024" target-x="0" target-y="0.48"></path></mask><mask height="4.5644455" id="mask15" maskUnits="userSpaceOnUse" node-id="214" width="4.5127773" x="28.774" y="69.44058"><path d="M 0.00 221.23 L 87.87 221.23 L 87.87 0.48 L 0.00 0.48 Z" fill="#ffffff" fill-rule="evenodd" node-id="218" stroke="none" target-height="220.74866" target-width="87.87024" target-x="0" target-y="0.48"></path></mask><mask height="19.401978" id="mask16" maskUnits="userSpaceOnUse" node-id="222" width="10.985251" x="-0.9151229" y="137.08536"><path d="M 0.00 221.23 L 87.87 221.23 L 87.87 0.48 L 0.00 0.48 Z" fill="#ffffff" fill-rule="evenodd" node-id="226" stroke="none" target-height="220.74866" target-width="87.87024" target-x="0" target-y="0.48"></path></mask><mask height="3.5249777" id="mask17" maskUnits="userSpaceOnUse" node-id="230" width="7.314953" x="41.764484" y="14.285075"><path d="M 0.00 221.23 L 87.87 221.23 L 87.87 0.48 L 0.00 0.48 Z" fill="#ffffff" fill-rule="evenodd" node-id="234" stroke="none" target-height="220.74866" target-width="87.87024" target-x="0" target-y="0.48"></path></mask><mask height="7.8958063" id="mask18" maskUnits="userSpaceOnUse" node-id="238" width="7.800064" x="41.477146" y="13.699201"><path d="M 0.00 221.23 L 87.87 221.23 L 87.87 0.48 L 0.00 0.48 Z" fill="#ffffff" fill-rule="evenodd" node-id="242" stroke="none" target-height="220.74866" target-width="87.87024" target-x="0" target-y="0.48"></path></mask><mask height="125.57779" id="mask19" maskUnits="userSpaceOnUse" node-id="246" width="48.985924" x="10.7218075" y="63.687885"><path d="M 0.00 221.23 L 87.87 221.23 L 87.87 0.48 L 0.00 0.48 Z" fill="#ffffff" fill-rule="evenodd" node-id="250" stroke="none" target-height="220.74866" target-width="87.87024" target-x="0" target-y="0.48"></path></mask><mask height="125.57779" id="mask20" maskUnits="userSpaceOnUse" node-id="254" width="31.38336" x="26.856768" y="63.68794"><path d="M 0.00 221.23 L 87.87 221.23 L 87.87 0.48 L 0.00 0.48 Z" fill="#ffffff" fill-rule="evenodd" node-id="258" stroke="none" target-height="220.74866" target-width="87.87024" target-x="0" target-y="0.48"></path></mask><mask height="16.46727" id="mask21" maskUnits="userSpaceOnUse" node-id="262" width="16.053503" x="15.966497" y="76.24901"><path d="M 0.00 221.23 L 87.87 221.23 L 87.87 0.48 L 0.00 0.48 Z" fill="#ffffff" fill-rule="evenodd" node-id="266" stroke="none" target-height="220.74866" target-width="87.87024" target-x="0" target-y="0.48"></path></mask><mask height="3.0458832" id="mask22" maskUnits="userSpaceOnUse" node-id="270" width="1.93536" x="13.516032" y="69.00173"><path d="M 0.00 221.23 L 87.87 221.23 L 87.87 0.48 L 0.00 0.48 Z" fill="#ffffff" fill-rule="evenodd" node-id="274" stroke="none" target-height="220.74866" target-width="87.87024" target-x="0" target-y="0.48"></path></mask><mask height="3.046463" id="mask23" maskUnits="userSpaceOnUse" node-id="278" width="1.93536" x="19.200096" y="69.162476"><path d="M 0.00 221.23 L 87.87 221.23 L 87.87 0.48 L 0.00 0.48 Z" fill="#ffffff" fill-rule="evenodd" node-id="282" stroke="none" target-height="220.74866" target-width="87.87024" target-x="0" target-y="0.48"></path></mask><mask height="4.9069443" id="mask24" maskUnits="userSpaceOnUse" node-id="286" width="6.2972193" x="14.143249" y="73.02542"><path d="M 0.00 221.23 L 87.87 221.23 L 87.87 0.48 L 0.00 0.48 Z" fill="#ffffff" fill-rule="evenodd" node-id="290" stroke="none" target-height="220.74866" target-width="87.87024" target-x="0" target-y="0.48"></path></mask><mask height="2.1346588" id="mask25" maskUnits="userSpaceOnUse" node-id="294" width="6.2972193" x="14.143249" y="73.25645"><path d="M 0.00 221.23 L 87.87 221.23 L 87.87 0.48 L 0.00 0.48 Z" fill="#ffffff" fill-rule="evenodd" node-id="298" stroke="none" target-height="220.74866" target-width="87.87024" target-x="0" target-y="0.48"></path></mask><mask height="0.7080612" id="mask26" maskUnits="userSpaceOnUse" node-id="302" width="3.131692" x="12.653767" y="67.784546"><path d="M 0.00 221.23 L 87.87 221.23 L 87.87 0.48 L 0.00 0.48 Z" fill="#ffffff" fill-rule="evenodd" node-id="306" stroke="none" target-height="220.74866" target-width="87.87024" target-x="0" target-y="0.48"></path></mask><mask height="0.7082901" id="mask27" maskUnits="userSpaceOnUse" node-id="310" width="3.1316948" x="19.28338" y="67.93621"><path d="M 0.00 221.23 L 87.87 221.23 L 87.87 0.48 L 0.00 0.48 Z" fill="#ffffff" fill-rule="evenodd" node-id="314" stroke="none" target-height="220.74866" target-width="87.87024" target-x="0" target-y="0.48"></path></mask><mask height="1.7263565" id="mask28" maskUnits="userSpaceOnUse" node-id="318" width="1.1926193" x="31.17012" y="70.17549"><path d="M 0.00 221.23 L 87.87 221.23 L 87.87 0.48 L 0.00 0.48 Z" fill="#ffffff" fill-rule="evenodd" node-id="322" stroke="none" target-height="220.74866" target-width="87.87024" target-x="0" target-y="0.48"></path></mask><mask height="0.8692322" id="mask29" maskUnits="userSpaceOnUse" node-id="326" width="1.0507545" x="31.07476" y="70.74697"><path d="M 0.00 221.23 L 87.87 221.23 L 87.87 0.48 L 0.00 0.48 Z" fill="#ffffff" fill-rule="evenodd" node-id="330" stroke="none" target-height="220.74866" target-width="87.87024" target-x="0" target-y="0.48"></path></mask><mask height="166.40063" id="mask30" maskUnits="userSpaceOnUse" node-id="334" width="46.94862" x="44.833775" y="17.062798"><path d="M 0.00 221.23 L 87.87 221.23 L 87.87 0.48 L 0.00 0.48 Z" fill="#ffffff" fill-rule="evenodd" node-id="338" stroke="none" target-height="220.74866" target-width="87.87024" target-x="0" target-y="0.48"></path></mask><mask height="79.392975" id="mask31" maskUnits="userSpaceOnUse" node-id="342" width="20.039618" x="8.16456" y="109.27997"><path d="M 0.00 221.23 L 87.87 221.23 L 87.87 0.48 L 0.00 0.48 Z" fill="#ffffff" fill-rule="evenodd" node-id="346" stroke="none" target-height="220.74866" target-width="87.87024" target-x="0" target-y="0.48"></path></mask><mask height="5.367157" id="mask32" maskUnits="userSpaceOnUse" node-id="350" width="7.8514566" x="3.8381279" y="133.98572"><path d="M 0.00 221.23 L 87.87 221.23 L 87.87 0.48 L 0.00 0.48 Z" fill="#ffffff" fill-rule="evenodd" node-id="354" stroke="none" target-height="220.74866" target-width="87.87024" target-x="0" target-y="0.48"></path></mask><mask height="2.0367355" id="mask33" maskUnits="userSpaceOnUse" node-id="358" width="10.420994" x="41.505936" y="31.171825"><path d="M 0.00 221.23 L 87.87 221.23 L 87.87 0.48 L 0.00 0.48 Z" fill="#ffffff" fill-rule="evenodd" node-id="362" stroke="none" target-height="220.74866" target-width="87.87024" target-x="0" target-y="0.48"></path></mask><mask height="5.7899475" id="mask34" maskUnits="userSpaceOnUse" node-id="366" width="5.7905293" x="21.671663" y="71.8283"><path d="M 0.00 221.23 L 87.87 221.23 L 87.87 0.48 L 0.00 0.48 Z" fill="#ffffff" fill-rule="evenodd" node-id="370" stroke="none" target-height="220.74866" target-width="87.87024" target-x="0" target-y="0.48"></path></mask></defs><g node-id="372"><path d="M 69.36 192.42 C 69.65 192.47 74.21 199.74 74.21 199.74 L 68.29 203.68 L 61.30 193.94 L 69.36 192.42 Z" fill="#ffcca6" fill-rule="evenodd" group-id="1" id="Fill-1" node-id="12" stroke="none" target-height="11.258881" target-width="12.908638" target-x="61.300804" target-y="192.41661"></path><path d="M 63.08 220.41 C 63.08 220.41 69.84 212.91 72.99 209.36 C 75.64 206.37 81.51 201.07 80.17 199.71 C 77.48 196.95 74.18 197.43 72.59 195.57 C 70.54 197.98 67.94 199.85 65.00 201.01 C 65.06 202.45 65.25 210.34 62.51 214.22 C 59.49 218.49 63.08 220.41 63.08 220.41" fill="#202042" fill-rule="evenodd" group-id="1" id="Fill-3" node-id="13" stroke="none" target-height="24.844803" target-width="22.026241" target-x="59.487698" target-y="195.56645"></path><g node-id="373"><g node-id="412"><path d="M 63.57 221.07 C 63.39 221.27 63.09 221.28 62.89 221.10 C 62.69 220.93 62.68 220.62 62.86 220.42 C 63.00 220.26 77.82 203.79 80.94 200.28 C 80.94 200.28 80.94 200.28 80.94 200.28 C 81.12 200.08 81.42 200.07 81.62 200.24 C 81.82 200.42 81.84 200.72 81.66 200.92 C 78.54 204.43 63.72 220.90 63.57 221.07" fill="#383854" fill-rule="evenodd" group-id="1,2,41" id="Fill-5" node-id="18" stroke="none" target-height="21.21695" target-width="19.163044" target-x="62.67677" target-y="200.06607"></path></g></g><path d="M 64.48 210.10 C 64.89 210.49 65.24 210.55 65.41 210.46 C 65.55 210.39 65.59 210.20 65.49 209.99 C 65.38 209.93 64.96 209.94 64.48 210.10 M 65.96 210.84 C 65.89 210.92 65.81 210.98 65.71 211.03 C 65.24 211.28 64.54 211.13 63.86 210.38 C 63.85 210.38 63.85 210.39 63.84 210.39 C 63.55 210.57 63.08 210.94 63.15 211.44 C 63.24 212.09 63.62 212.36 63.62 212.37 C 63.77 212.46 63.81 212.66 63.71 212.81 C 63.61 212.96 63.41 213.00 63.26 212.90 C 63.24 212.88 62.64 212.47 62.51 211.52 C 62.41 210.80 62.86 210.24 63.46 209.87 C 63.39 209.76 63.32 209.65 63.25 209.52 C 62.80 208.72 62.73 208.03 63.06 207.48 C 63.38 206.95 64.03 206.59 65.01 206.40 C 65.70 206.28 66.30 206.29 66.33 206.29 C 66.50 206.29 66.65 206.44 66.64 206.61 C 66.64 206.79 66.49 206.93 66.32 206.93 C 65.72 206.92 64.06 207.06 63.61 207.81 C 63.41 208.15 63.48 208.62 63.81 209.21 C 63.89 209.34 63.97 209.46 64.04 209.57 C 64.16 209.53 64.27 209.49 64.39 209.45 C 65.05 209.26 65.84 209.21 66.06 209.69 C 66.27 210.11 66.22 210.55 65.96 210.84" fill="#383854" fill-rule="evenodd" group-id="1" id="Fill-7" node-id="19" stroke="none" target-height="6.723831" target-width="4.236477" target-x="62.40946" target-y="206.27554"></path><path d="M 31.99 193.48 L 33.48 202.58 L 27.43 203.68 L 23.45 192.42 Z" fill="#ffcca6" fill-rule="evenodd" group-id="1" id="Fill-9" node-id="20" stroke="none" target-height="11.258881" target-width="10.0296" target-x="23.447664" target-y="192.4164"></path><path d="M 17.08 181.82 L 17.95 183.70 L 23.64 196.05 L 33.48 196.05 L 31.09 185.19 L 29.98 180.13 Z" fill="#1a1f2d" fill-rule="evenodd" group-id="1" id="Fill-11" node-id="21" stroke="none" target-height="15.927826" target-width="16.39392" target-x="17.081615" target-y="180.126"></path><path d="M 17.08 181.82 L 17.95 183.70 C 18.91 183.70 21.22 183.73 23.77 183.93 C 26.33 184.13 29.12 184.51 31.09 185.19 L 29.98 180.13 L 17.08 181.82 Z" fill="#10141c" fill-rule="evenodd" group-id="1" id="Fill-13" node-id="22" stroke="none" target-height="5.0678406" target-width="14.012642" target-x="17.081615" target-y="180.126"></path><path d="M 43.44 170.43 L 51.16 181.92 L 61.43 197.19 L 71.65 193.98 L 65.10 178.98 L 60.01 167.32 Z" fill="#1a1f2d" fill-rule="evenodd" group-id="1" id="Fill-15" node-id="23" stroke="none" target-height="29.863205" target-width="28.211998" target-x="43.440384" target-y="167.32425"></path><path d="M 43.44 170.43 L 51.16 181.92 C 51.98 181.45 52.89 181.02 53.89 180.67 C 54.13 180.59 54.38 180.51 54.63 180.44 C 55.07 180.31 55.54 180.19 56.01 180.09 C 56.23 180.05 56.43 180.01 56.65 179.98 C 57.86 179.78 59.13 179.71 60.43 179.82 C 62.46 179.98 63.98 179.59 65.10 178.98 L 60.01 167.32 L 43.44 170.43 Z" fill="#10141c" fill-rule="evenodd" group-id="1" id="Fill-17" node-id="24" stroke="none" target-height="14.592972" target-width="21.658562" target-x="43.440384" target-y="167.32425"></path><path d="M 3.78 138.70 L 8.30 140.66 C 8.30 140.66 8.83 139.95 9.58 138.91 C 10.01 138.32 10.51 137.63 11.04 136.90 C 13.03 134.13 15.35 130.81 15.15 130.71 C 14.81 130.51 5.54 129.64 5.54 129.64 C 5.47 129.79 5.01 132.16 4.58 134.43 C 4.55 134.59 4.52 134.75 4.49 134.90 L 4.49 134.90 C 4.11 136.90 3.78 138.70 3.78 138.70" fill="#ffcca6" fill-rule="evenodd" group-id="1" id="Fill-19" node-id="25" stroke="none" target-height="11.015518" target-width="11.56416" target-x="3.783168" target-y="129.6396"></path><path d="M 44.11 24.16 L 41.27 39.08 L 51.97 38.42 L 50.03 23.60 Z" fill="#ffcca6" fill-rule="evenodd" group-id="1" id="Fill-21" node-id="26" stroke="none" target-height="15.478079" target-width="10.692963" target-x="41.272415" target-y="23.602465"></path><path d="M 44.09 24.27 C 44.09 24.27 41.68 18.96 42.05 16.66 C 42.41 14.36 42.79 6.50 44.31 6.60 C 45.01 6.65 45.38 12.88 45.38 12.88 C 45.38 12.88 46.26 11.82 47.49 12.32 C 48.72 12.83 48.47 12.05 49.83 12.03 C 51.18 12.00 51.16 13.11 52.57 12.58 C 53.59 12.20 54.07 13.43 53.99 14.91 C 53.90 16.91 51.43 23.53 49.80 23.72 C 48.18 23.91 44.09 24.27 44.09 24.27" fill="#ffcca6" fill-rule="evenodd" group-id="1" id="Fill-23" node-id="27" stroke="none" target-height="17.77296" target-width="12.39024" target-x="41.680225" target-y="6.497376"></path><path d="M 18.62 76.22 L 20.09 80.81 L 17.30 91.10 L 28.63 89.23 L 34.19 79.97 L 29.01 77.93 L 27.55 73.37 Z" fill="#ffcca6" fill-rule="evenodd" group-id="1" id="Fill-25" node-id="28" stroke="none" target-height="17.73072" target-width="16.884478" target-x="17.304289" target-y="73.37275"></path><path d="M 18.62 76.22 L 20.09 80.81 C 20.51 80.90 20.94 80.92 21.39 80.87 C 24.69 80.50 27.18 79.29 29.01 77.93 L 27.55 73.37 L 18.62 76.22 Z" fill="#e8b089" fill-rule="evenodd" group-id="1" id="Fill-27" node-id="29" stroke="none" target-height="7.5504" target-width="10.381439" target-x="18.623808" target-y="73.37275"></path><path d="M 50.92 12.69 L 65.32 4.05 L 47.23 0.48 L 30.69 4.05 L 43.71 12.38 Z" fill="#1b1e1e" fill-rule="evenodd" group-id="1" id="Fill-29" node-id="30" stroke="none" target-height="12.21312" target-width="34.636322" target-x="30.687073" target-y="0.48"></path><g node-id="374"><g node-id="414"><path d="M 47.23 1.06 L 31.36 4.48 L 30.69 4.05 L 47.23 0.48 L 65.32 4.05 L 64.60 4.48 Z" fill="#292d2d" fill-rule="evenodd" group-id="1,3,43" id="Fill-31" node-id="35" stroke="none" target-height="4.0036798" target-width="34.6368" target-x="30.686687" target-y="0.479856"></path></g></g><path d="M 56.62 8.03 L 56.62 15.06 C 50.56 16.25 44.33 16.25 38.27 15.06 L 38.27 8.03 C 43.84 6.21 49.82 6.10 55.45 7.70 L 56.62 8.03 Z" fill="#282c2d" fill-rule="evenodd" group-id="1" id="Fill-33" node-id="36" stroke="none" target-height="10.150559" target-width="18.347042" target-x="38.274338" target-y="6.098016"></path><path d="M 55.45 7.70 L 56.62 8.03 L 56.62 8.89 L 55.45 8.55 C 49.82 6.96 43.84 7.07 38.27 8.89 L 38.27 8.03 C 43.84 6.21 49.82 6.10 55.45 7.70" fill="#303333" fill-rule="evenodd" group-id="1" id="Fill-35" node-id="37" stroke="none" target-height="2.78928" target-width="18.346565" target-x="38.274574" target-y="6.097824"></path><path d="M 34.54 3.22 L 34.54 6.51 L 34.54 10.62 L 34.88 10.62 L 34.88 6.73 L 34.88 3.14 Z" fill="#fccf6b" fill-rule="evenodd" group-id="1" id="Fill-37" node-id="38" stroke="none" target-height="7.476" target-width="0.34320068" target-x="34.541374" target-y="3.143856"></path><path d="M 33.76 15.02 L 33.93 15.02 L 33.93 11.46 C 33.93 11.05 34.27 10.70 34.69 10.70 C 35.11 10.70 35.45 11.05 35.45 11.46 L 35.45 15.02 L 35.63 15.02 L 35.63 11.46 C 35.63 10.95 35.21 10.53 34.69 10.53 C 34.18 10.53 33.76 10.95 33.76 11.46 L 33.76 15.02 Z" fill="#fccf6b" fill-rule="evenodd" group-id="1" id="Fill-39" node-id="39" stroke="none" target-height="4.4899206" target-width="1.8647995" target-x="33.760895" target-y="10.532448"></path><g node-id="376"><path d="M 35.12 15.02 L 35.29 15.02 L 35.29 10.83 L 35.12 10.83 Z" fill="#fccf6b" fill-rule="evenodd" group-id="1,5" id="Fill-41" node-id="43" stroke="none" target-height="4.1899204" target-width="0.17136002" target-x="35.12256" target-y="10.83264"></path></g><g node-id="377"><path d="M 34.78 15.02 L 34.95 15.02 L 34.95 10.62 L 34.78 10.62 Z" fill="#fccf6b" fill-rule="evenodd" group-id="1,6" id="Fill-43" node-id="44" stroke="none" target-height="4.40448" target-width="0.17136002" target-x="34.77888" target-y="10.61808"></path></g><g node-id="378"><path d="M 34.44 15.02 L 34.61 15.02 L 34.61 10.62 L 34.44 10.62 Z" fill="#fccf6b" fill-rule="evenodd" group-id="1,7" id="Fill-44" node-id="45" stroke="none" target-height="4.40448" target-width="0.17136002" target-x="34.43568" target-y="10.61808"></path></g><g node-id="379"><path d="M 34.09 15.02 L 34.26 15.02 L 34.26 10.83 L 34.09 10.83 Z" fill="#fccf6b" fill-rule="evenodd" group-id="1,8" id="Fill-45" node-id="46" stroke="none" target-height="4.1899204" target-width="0.17136002" target-x="34.09248" target-y="10.83264"></path></g><g node-id="380"><path d="M 16.26 85.54 C 18.66 87.87 23.61 92.20 28.24 93.15 C 32.36 87.52 31.85 79.66 31.29 75.90 C 30.86 76.47 30.67 76.87 30.67 76.87 L 30.45 77.62 L 30.27 78.26 L 29.01 82.55 C 28.15 85.48 24.74 86.79 22.14 85.17 L 19.41 83.47 C 18.74 83.79 18.11 84.15 17.53 84.55 C 17.45 84.60 17.38 84.66 17.30 84.71 C 16.94 84.97 16.60 85.25 16.26 85.54" fill="#f9f9f9" fill-rule="evenodd" group-id="1,9" id="Fill-46" node-id="47" stroke="none" target-height="17.243042" target-width="16.098722" target-x="16.263887" target-y="75.90283"></path></g><g node-id="381"><path d="M 28.13 93.00 C 32.16 87.49 31.76 79.85 31.21 76.01 C 31.24 75.97 31.26 75.94 31.29 75.90 C 31.85 79.66 32.36 87.52 28.24 93.15 C 23.61 92.20 18.66 87.87 16.26 85.54 C 16.27 85.53 16.28 85.52 16.28 85.52 C 18.72 87.87 23.58 92.07 28.13 93.00" fill="#dddbd7" fill-rule="evenodd" group-id="1,10" id="Fill-47" node-id="48" stroke="none" target-height="17.243042" target-width="16.09872" target-x="16.263744" target-y="75.90273"></path></g><g node-id="382"><path d="M 21.74 139.76 L 9.83 158.01 L 17.08 181.82 C 17.08 181.82 20.02 181.79 23.39 182.06 C 26.70 182.32 30.43 182.87 32.22 184.02 C 35.85 186.35 46.07 185.97 47.11 183.51 C 47.76 181.96 50.20 179.95 53.50 178.80 C 53.74 178.72 53.99 178.64 54.24 178.57 C 54.68 178.43 55.15 178.31 55.63 178.22 C 55.84 178.17 56.05 178.13 56.26 178.10 C 57.47 177.91 58.74 177.84 60.05 177.94 C 63.53 178.23 65.49 176.87 66.55 175.59 C 67.86 174.00 69.46 172.67 71.32 171.77 L 75.78 169.60 L 87.87 163.71 L 52.15 89.68 L 54.22 30.93 L 51.85 31.35 L 38.95 33.65 L 38.18 72.47 C 36.07 72.57 34.50 73.21 33.34 73.99 C 33.26 74.04 33.18 74.10 33.10 74.15 C 32.65 74.48 32.27 74.82 31.95 75.14 C 31.69 75.41 31.47 75.67 31.29 75.90 C 31.85 79.66 32.36 87.52 28.24 93.15 C 23.61 92.20 18.66 87.87 16.26 85.54 C 15.73 86.00 15.25 86.49 14.80 87.02 C 9.03 93.77 10.09 104.82 10.09 104.82 L 1.94 133.42 L 12.81 137.57 L 14.49 138.21 L 18.25 119.32 L 20.32 119.96 L 21.74 139.76 Z" fill="#32393a" fill-rule="evenodd" group-id="1,11" id="Fill-48" node-id="49" stroke="none" target-height="155.424" target-width="85.9296" target-x="1.940544" target-y="30.929522"></path></g><g node-id="383"><path d="M 28.79 94.39 L 30.10 103.85 L 34.42 128.41 L 39.08 144.13 L 44.51 160.82 L 53.28 177.42 C 53.28 177.42 53.79 178.02 54.24 178.57 C 54.68 178.43 55.15 178.31 55.63 178.22 C 55.84 178.17 56.05 178.13 56.26 178.10 C 38.11 152.70 30.10 94.68 30.10 94.68 C 36.10 86.46 33.78 75.74 33.34 73.99 C 33.26 74.04 33.18 74.10 33.10 74.15 C 32.65 74.48 32.27 74.82 31.95 75.14 L 32.48 77.62 L 31.16 89.63 L 28.79 94.39 Z" fill="#2d3333" fill-rule="evenodd" group-id="1,12" id="Fill-49" node-id="50" stroke="none" target-height="104.58048" target-width="27.477118" target-x="28.7856" target-y="73.98734"></path></g><g node-id="384"><path d="M 18.19 218.75 C 18.19 218.75 26.51 213.53 30.40 211.05 C 33.68 208.97 40.58 205.58 39.69 203.94 C 37.91 200.64 34.69 200.21 33.70 198.05 C 31.15 199.76 28.21 200.81 25.15 201.12 C 24.83 202.48 22.90 209.91 19.31 212.81 C 15.34 216.00 18.19 218.75 18.19 218.75" fill="#202042" fill-rule="evenodd" group-id="1,13" id="Fill-50" node-id="51" stroke="none" target-height="20.703354" target-width="25.240803" target-x="15.339456" target-y="198.0457"></path></g><g node-id="385"><path d="M 18.47 219.49 C 18.25 219.63 17.96 219.57 17.83 219.35 C 17.69 219.13 17.76 218.84 17.97 218.70 C 18.16 218.58 36.41 207.13 40.26 204.68 C 40.26 204.68 40.26 204.68 40.26 204.68 C 40.48 204.54 40.77 204.61 40.90 204.83 C 41.04 205.04 40.98 205.33 40.76 205.47 C 36.91 207.92 18.66 219.38 18.47 219.49" fill="#383854" fill-rule="evenodd" group-id="1,14" id="Fill-51" node-id="52" stroke="none" target-height="15.089279" target-width="23.35392" target-x="17.689247" target-y="204.54337"></path></g><g node-id="386"><path d="M 22.25 209.48 C 22.52 209.95 22.83 210.10 23.02 210.06 C 23.17 210.03 23.25 209.87 23.22 209.64 C 23.13 209.56 22.74 209.46 22.25 209.48 M 23.43 210.56 C 23.35 210.62 23.25 210.66 23.15 210.68 C 22.64 210.78 22.03 210.46 21.59 209.58 C 21.58 209.58 21.58 209.58 21.57 209.58 C 21.25 209.67 20.71 209.89 20.64 210.37 C 20.55 211.01 20.84 211.37 20.84 211.37 C 20.95 211.50 20.93 211.70 20.80 211.81 C 20.67 211.92 20.47 211.90 20.36 211.77 C 20.34 211.75 19.89 211.21 20.02 210.29 C 20.12 209.58 20.70 209.18 21.36 208.99 C 21.32 208.87 21.28 208.74 21.25 208.61 C 21.04 207.74 21.16 207.08 21.62 206.65 C 22.05 206.24 22.76 206.07 23.73 206.16 C 24.41 206.23 24.97 206.40 24.99 206.40 C 25.15 206.45 25.25 206.63 25.20 206.79 C 25.15 206.96 24.97 207.05 24.81 207.00 C 24.25 206.83 22.66 206.52 22.05 207.10 C 21.77 207.37 21.70 207.83 21.86 208.46 C 21.90 208.61 21.93 208.75 21.98 208.87 C 22.10 208.86 22.21 208.85 22.33 208.85 C 23.00 208.84 23.75 209.01 23.84 209.51 C 23.91 209.97 23.75 210.37 23.43 210.56" fill="#383854" fill-rule="evenodd" group-id="1,15" id="Fill-52" node-id="53" stroke="none" target-height="5.848297" target-width="5.3543987" target-x="19.89216" target-y="206.07304"></path></g><g node-id="387"><path d="M 19.30 80.87 C 27.90 79.90 31.08 73.17 31.08 73.17 C 31.08 73.17 33.59 71.18 32.74 70.20 C 31.89 69.22 30.14 70.28 30.14 70.28 C 30.14 70.28 30.47 67.57 29.54 64.90 C 29.53 64.90 29.53 64.90 29.53 64.89 C 28.47 61.86 25.78 58.91 19.18 60.01 C 15.07 60.70 12.94 63.77 12.29 67.35 L 12.25 67.52 C 11.19 73.74 14.48 81.42 19.30 80.87" fill="#ffcca6" fill-rule="evenodd" group-id="1,16" id="Fill-53" node-id="54" stroke="none" target-height="22.513435" target-width="22.398722" target-x="11.193888" target-y="58.90757"></path></g><g node-id="388"><path d="M 18.12 64.13 C 16.11 65.40 14.29 65.71 13.13 66.47 C 14.06 64.91 16.36 64.91 19.00 63.23 C 19.88 62.68 21.57 61.50 21.43 62.40 C 21.28 63.42 18.54 65.35 21.08 65.15 C 23.63 64.94 25.35 63.08 26.17 63.22 C 27.00 63.36 25.00 65.13 26.04 65.22 C 27.90 65.37 28.98 65.07 29.54 64.73 C 28.68 66.50 28.39 69.75 30.77 70.55 L 31.60 72.19 C 31.14 72.87 30.82 73.29 30.82 73.29 L 29.89 71.44 C 27.51 70.65 27.80 67.39 28.66 65.63 C 28.10 65.96 27.02 66.27 25.15 66.11 C 24.12 66.02 26.12 64.25 25.29 64.11 C 24.47 63.98 22.75 65.83 20.20 66.04 C 17.66 66.25 20.39 64.31 20.55 63.29 C 20.69 62.40 19.00 63.57 18.12 64.13" fill="#e8b089" fill-rule="evenodd" group-id="1,17" id="Fill-54" node-id="55" stroke="none" target-height="11.784" target-width="18.465601" target-x="13.134432" target-y="61.502544"></path></g><g node-id="389"><path d="M 12.25 67.37 C 12.27 67.33 12.30 67.30 12.32 67.27 C 12.31 67.25 12.30 67.22 12.29 67.20 L 12.25 67.37 Z" fill="#e8b089" fill-rule="evenodd" group-id="1,18" id="Fill-55" node-id="56" stroke="none" target-height="0.1713562" target-width="0.06864071" target-x="12.251855" target-y="67.20288"></path></g><g node-id="390"><path d="M 31.14 73.07 L 30.21 71.23 C 27.83 70.43 28.12 67.18 28.98 65.41 C 28.42 65.75 27.34 66.05 25.48 65.89 C 24.44 65.81 26.44 64.04 25.62 63.90 C 24.79 63.76 23.07 65.62 20.52 65.83 C 17.98 66.03 20.72 64.10 20.87 63.08 C 21.01 62.18 19.32 63.36 18.44 63.91 C 15.16 65.99 12.39 65.49 12.16 68.60 C 12.16 68.60 9.53 64.51 9.53 62.57 C 9.53 57.69 18.39 53.09 22.06 53.46 C 25.28 53.79 27.66 56.55 28.20 57.23 C 28.47 56.83 28.84 56.51 29.27 56.31 C 30.10 55.89 30.92 55.85 31.12 56.22 C 31.31 56.59 30.79 57.23 29.97 57.66 C 29.92 57.68 29.87 57.71 29.82 57.73 C 31.06 58.08 32.82 58.73 34.11 59.86 C 38.42 63.62 31.14 73.07 31.14 73.07" fill="#083044" fill-rule="evenodd" group-id="1,19" id="Fill-56" node-id="57" stroke="none" target-height="19.979996" target-width="28.880642" target-x="9.534528" target-y="53.09237"></path></g><g node-id="391"><path d="M 29.15 71.06 C 29.15 71.06 31.34 69.12 32.62 70.09 C 33.91 71.06 30.47 73.62 30.47 73.62 L 29.15 71.06 Z" fill="#ffcca6" fill-rule="evenodd" group-id="1,20" id="Fill-57" node-id="58" stroke="none" target-height="4.5004807" target-width="4.7553577" target-x="29.150064" target-y="69.124176"></path></g><g node-id="392"><path d="M 8.30 140.66 C 9.24 143.11 9.26 146.49 9.04 147.01 L 8.17 149.18 L 6.61 148.17 C 6.48 147.57 7.08 146.77 6.40 146.33 C 5.73 145.88 4.64 146.54 4.41 147.01 C 3.85 148.14 2.93 149.96 4.29 151.50 C 5.80 153.20 4.85 154.87 4.85 154.87 C 4.85 154.87 1.98 152.97 1.66 152.69 C 1.34 152.41 -0.09 148.95 0.00 147.45 C 0.08 146.17 2.64 140.62 3.20 139.58 C 3.33 139.34 3.48 139.12 3.66 138.91 C 3.70 138.85 3.74 138.78 3.78 138.70 L 8.30 140.66 Z" fill="#ffcca6" fill-rule="evenodd" group-id="1,21" id="Fill-58" node-id="59" stroke="none" target-height="16.16832" target-width="9.3408" target-x="-0.085392" target-y="138.7022"></path></g><g node-id="393"><path d="M 47.81 16.67 C 47.81 16.67 48.54 15.51 48.46 15.02 C 48.39 14.53 48.14 14.58 48.14 14.58 C 48.14 14.58 47.25 14.75 47.15 14.75 C 47.06 14.75 45.77 14.98 45.50 15.02 C 45.24 15.07 43.22 15.43 43.22 15.43 C 43.22 15.43 42.84 15.82 42.76 15.95 C 42.69 16.08 42.37 16.67 42.37 16.67 L 42.59 17.52 L 43.54 17.52 L 45.75 17.52 L 47.81 16.67 Z" fill="#ffcca6" fill-rule="evenodd" group-id="1,22" id="Fill-59" node-id="60" stroke="none" target-height="2.984641" target-width="6.1632004" target-x="42.374065" target-y="14.531663"></path></g><g node-id="394"><path d="M 46.75 20.94 C 46.80 20.10 46.60 19.00 46.15 17.65 L 46.13 17.57 C 46.13 17.57 46.12 17.56 46.12 17.55 C 46.26 17.49 46.63 17.40 47.11 17.27 C 47.69 17.11 48.11 16.81 48.37 16.36 C 48.82 15.55 48.55 14.59 48.53 14.55 L 48.48 14.36 L 48.28 14.38 C 48.26 14.38 45.81 14.62 44.29 14.92 C 42.64 15.25 42.24 15.98 42.13 17.06 L 42.60 17.11 C 42.70 16.18 43.00 15.66 44.39 15.39 C 45.62 15.14 47.49 14.94 48.12 14.87 C 48.16 15.15 48.20 15.68 47.95 16.12 C 47.76 16.46 47.44 16.69 46.98 16.81 C 45.99 17.07 45.78 17.13 45.67 17.33 C 45.59 17.47 45.64 17.61 45.67 17.72 L 45.70 17.80 C 46.12 19.09 46.32 20.14 46.27 20.91 L 46.75 20.94 Z" fill="#e8b089" fill-rule="evenodd" group-id="1,23" id="Fill-60" node-id="61" stroke="none" target-height="6.5798388" target-width="6.693119" target-x="42.12715" target-y="14.357184"></path></g><g node-id="395"><path d="M 14.80 87.02 C 17.33 89.49 22.57 94.06 27.75 95.15 C 28.55 102.00 34.97 152.13 53.50 178.80 C 54.18 178.57 54.89 178.37 55.63 178.22 C 36.66 151.59 30.34 99.64 29.76 94.56 C 32.38 91.10 33.76 86.36 33.75 80.84 C 33.74 77.88 33.35 75.43 33.10 74.15 C 32.27 74.75 31.68 75.39 31.29 75.90 C 31.85 79.66 32.36 87.52 28.24 93.15 C 23.61 92.20 18.66 87.87 16.26 85.54 C 15.73 86.00 15.25 86.49 14.80 87.02" fill="#fccf6b" fill-rule="evenodd" group-id="1,24" id="Fill-61" node-id="62" stroke="none" target-height="104.64817" target-width="40.8216" target-x="14.803968" target-y="74.1527"></path></g><g node-id="396"><path d="M 55.33 178.22 C 36.37 151.59 30.05 99.64 29.47 94.56 C 32.09 91.10 33.47 86.36 33.46 80.84 C 33.45 78.02 33.10 75.67 32.84 74.35 C 32.93 74.29 33.01 74.22 33.10 74.15 C 33.35 75.43 33.74 77.88 33.75 80.84 C 33.76 86.36 32.38 91.10 29.76 94.56 C 30.34 99.64 36.66 151.59 55.62 178.22 C 54.88 178.37 54.18 178.57 53.50 178.80 C 53.49 178.78 53.47 178.75 53.45 178.73 C 54.05 178.53 54.68 178.35 55.33 178.22" fill="#e2b252" fill-rule="evenodd" group-id="1,25" id="Fill-62" node-id="63" stroke="none" target-height="104.64818" target-width="26.1528" target-x="29.472048" target-y="74.152756"></path></g><g node-id="397"><path d="M 17.30 84.71 C 21.04 88.43 24.60 91.32 26.65 91.34 L 26.67 91.34 C 27.20 91.34 27.62 91.15 27.92 90.78 C 31.22 86.68 30.79 79.32 30.45 77.62 L 30.27 78.26 C 30.50 80.55 30.69 86.93 27.71 90.62 C 27.46 90.93 27.12 91.08 26.67 91.08 L 26.65 91.08 C 24.69 91.06 21.21 88.22 17.53 84.55 C 17.45 84.60 17.38 84.66 17.30 84.71" fill="#32393a" fill-rule="evenodd" group-id="1,26" id="Fill-63" node-id="64" stroke="none" target-height="13.722725" target-width="13.919519" target-x="17.304289" target-y="77.62128"></path></g><g node-id="398"><path d="M 13.68 70.52 C 13.68 71.23 14.04 71.79 14.48 71.79 C 14.93 71.79 15.29 71.23 15.29 70.52 C 15.29 69.82 14.93 69.26 14.48 69.26 C 14.04 69.26 13.68 69.82 13.68 70.52" fill="#151212" fill-rule="evenodd" group-id="1,27" id="Fill-64" node-id="65" stroke="none" target-height="2.5382385" target-width="1.6127996" target-x="13.677312" target-y="69.255554"></path></g><g node-id="399"><path d="M 19.36 70.69 C 19.36 71.39 19.72 71.96 20.17 71.96 C 20.61 71.96 20.97 71.39 20.97 70.69 C 20.97 69.98 20.61 69.42 20.17 69.42 C 19.72 69.42 19.36 69.98 19.36 70.69" fill="#151212" fill-rule="evenodd" group-id="1,28" id="Fill-65" node-id="66" stroke="none" target-height="2.5387192" target-width="1.6128006" target-x="19.361376" target-y="69.41635"></path></g><g node-id="400"><path d="M 14.67 74.15 C 14.71 74.53 14.79 74.88 14.90 75.21 C 15.32 76.58 16.23 77.52 17.29 77.52 C 18.34 77.52 19.25 76.58 19.69 75.21 C 19.79 74.88 19.87 74.53 19.91 74.15 C 19.95 73.77 19.65 73.43 19.27 73.43 L 15.32 73.43 C 14.94 73.43 14.63 73.77 14.67 74.15" fill="#e9443b" fill-rule="evenodd" group-id="1,29" id="Fill-66" node-id="67" stroke="none" target-height="4.089119" target-width="5.325122" target-x="14.626895" target-y="73.43433"></path></g><g node-id="401"><path d="M 14.67 74.15 C 14.71 74.53 14.79 74.88 14.90 75.21 L 19.69 75.21 C 19.79 74.88 19.87 74.53 19.91 74.15 C 19.95 73.77 19.65 73.43 19.27 73.43 L 15.32 73.43 C 14.94 73.43 14.63 73.77 14.67 74.15" fill="#ffffff" fill-rule="evenodd" group-id="1,30" id="Fill-67" node-id="68" stroke="none" target-height="1.7788849" target-width="5.325122" target-x="14.626895" target-y="73.43433"></path></g><g node-id="402"><path d="M 15.38 68.43 C 15.45 68.43 15.51 68.38 15.52 68.31 C 15.53 68.23 15.48 68.16 15.40 68.15 L 13.08 67.84 C 13.00 67.84 12.93 67.89 12.92 67.97 C 12.91 68.05 12.96 68.12 13.04 68.13 L 15.36 68.43 C 15.37 68.43 15.38 68.43 15.38 68.43" fill="#151212" fill-rule="evenodd" group-id="1,31" id="Fill-68" node-id="69" stroke="none" target-height="0.59856415" target-width="2.6275196" target-x="12.905856" target-y="67.83504"></path></g><g node-id="403"><path d="M 19.69 68.59 C 19.69 68.59 19.70 68.58 19.71 68.58 L 22.03 68.28 C 22.11 68.27 22.16 68.20 22.15 68.12 C 22.14 68.04 22.07 67.99 21.99 68.00 L 19.67 68.30 C 19.59 68.31 19.54 68.38 19.55 68.46 C 19.56 68.53 19.62 68.59 19.69 68.59" fill="#151212" fill-rule="evenodd" group-id="1,32" id="Fill-69" node-id="70" stroke="none" target-height="0.5995178" target-width="2.6275196" target-x="19.535473" target-y="67.985954"></path></g><g node-id="404"><path d="M 32.06 71.76 C 32.11 71.76 32.17 71.72 32.19 71.67 C 32.20 71.65 32.37 71.18 32.15 70.78 C 32.02 70.54 31.78 70.39 31.44 70.32 C 31.36 70.31 31.29 70.36 31.27 70.43 C 31.26 70.51 31.31 70.59 31.39 70.60 C 31.64 70.65 31.81 70.76 31.90 70.92 C 32.06 71.20 31.92 71.56 31.92 71.56 C 31.89 71.64 31.93 71.72 32.01 71.75 C 32.02 71.76 32.04 71.76 32.06 71.76" fill="#dd996b" fill-rule="evenodd" group-id="1,33" id="Fill-70" node-id="71" stroke="none" target-height="1.4505539" target-width="1.1159992" target-x="31.25688" target-y="70.30743"></path></g><g node-id="405"><path d="M 31.31 71.54 C 31.37 71.54 31.43 71.50 31.44 71.44 C 31.49 71.28 31.55 71.18 31.64 71.13 C 31.74 71.08 31.85 71.12 31.85 71.12 C 31.92 71.14 32.00 71.10 32.03 71.03 C 32.06 70.95 32.02 70.87 31.94 70.85 C 31.92 70.84 31.72 70.77 31.51 70.88 C 31.35 70.96 31.23 71.13 31.17 71.36 C 31.15 71.44 31.19 71.52 31.27 71.54 C 31.28 71.54 31.29 71.54 31.31 71.54" fill="#dd996b" fill-rule="evenodd" group-id="1,34" id="Fill-71" node-id="72" stroke="none" target-height="0.770401" target-width="0.9095993" target-x="31.14648" target-y="70.77336"></path></g><g node-id="406"><path d="M 48.75 91.34 L 75.78 169.60 L 87.87 163.71 L 52.15 89.68 L 54.22 30.93 L 51.85 31.35 Z" fill="#2d3333" fill-rule="evenodd" group-id="1,35" id="Fill-72" node-id="73" stroke="none" target-height="138.6672" target-width="39.123844" target-x="48.74616" target-y="30.929522"></path></g><g node-id="407"><path d="M 9.83 158.01 L 17.08 181.82 C 17.08 181.82 20.02 181.79 23.39 182.06 C 19.65 173.28 13.94 159.76 13.95 159.37 C 13.97 158.78 26.53 143.64 26.53 143.64 L 22.25 117.19 L 17.20 115.90 L 12.81 137.57 L 14.49 138.21 L 18.25 119.32 L 20.32 119.96 L 21.74 139.76 L 9.83 158.01 Z" fill="#2d3333" fill-rule="evenodd" group-id="1,36" id="Fill-73" node-id="74" stroke="none" target-height="66.1608" target-width="16.69968" target-x="9.834528" target-y="115.89606"></path></g><g node-id="408"><path d="M 4.49 134.90 L 4.49 134.90 L 9.58 138.91 C 10.01 138.32 10.51 137.63 11.04 136.90 L 4.58 134.43 C 4.55 134.59 4.52 134.75 4.49 134.90" fill="#e8b089" fill-rule="evenodd" group-id="1,37" id="Fill-74" node-id="75" stroke="none" target-height="4.4726257" target-width="6.5428805" target-x="4.492416" target-y="134.43298"></path></g><g node-id="409"><path d="M 51.06 31.49 L 42.74 31.34 L 42.37 33.04 L 51.06 31.67" fill="#e8b089" fill-rule="evenodd" group-id="1,38" id="Fill-75" node-id="76" stroke="none" target-height="1.6972809" target-width="8.684162" target-x="42.37435" target-y="31.341553"></path></g><path d="M 22.15 74.72 C 22.15 76.06 23.23 77.14 24.57 77.14 C 25.90 77.14 26.98 76.06 26.98 74.72 C 26.98 73.39 25.90 72.31 24.57 72.31 C 23.23 72.31 22.15 73.39 22.15 74.72" fill="#ffbbbb" fill-rule="evenodd" group-id="1,39" id="Fill-76" node-id="77" stroke="none" target-height="4.824959" target-width="4.8254414" target-x="22.154207" target-y="72.3108"></path></g></svg>