<?xml version="1.0" standalone="no"?><!DOCTYPE svg PUBLIC "-//W3C//DTD SVG 1.1//EN" "http://www.w3.org/Graphics/SVG/1.1/DTD/svg11.dtd"><svg height="211" node-id="1" sillyvg="true" template-height="211" template-width="129" version="1.1" viewBox="0 0 129 211" width="129" xmlns="http://www.w3.org/2000/svg" xmlns:xlink="http://www.w3.org/1999/xlink"><defs node-id="88"><mask height="22.36081" id="mask-2" maskUnits="userSpaceOnUse" node-id="18" width="29.966606" x="101.187935" y="190.41194"><path d="M 103.69 192.28 L 128.66 192.28 L 128.66 210.91 L 103.69 210.91 Z" fill="#ffffff" fill-rule="evenodd" node-id="93" stroke="none" target-height="18.63385" target-width="24.972023" target-x="103.68517" target-y="192.27534"></path></mask><mask height="24.283682" id="mask-4" maskUnits="userSpaceOnUse" node-id="71" width="30.854889" x="76.87283" y="-1.6238002"><path d="M 79.44 0.40 L 105.16 0.40 L 105.16 20.64 L 79.44 20.64 Z" fill="#ffffff" fill-rule="evenodd" node-id="100" stroke="none" target-height="20.23624" target-width="25.712402" target-x="79.44408" target-y="0.4"></path></mask></defs><g node-id="102"><path d="M 50.94 163.77 C 50.94 163.77 69.49 173.52 87.75 169.84 C 106.01 166.15 116.08 164.54 116.08 164.54 L 82.75 154.34 L 60.76 158.42 L 50.94 163.77 Z" fill="#1f2323" fill-rule="evenodd" group-id="1" id="Fill-1" node-id="11" stroke="none" target-height="19.18518" target-width="65.1476" target-x="50.93704" target-y="154.33948"></path><path d="M 68.07 186.79 L 67.61 188.89 L 67.13 191.14 L 66.67 193.27 L 60.21 195.17 L 55.88 190.91 L 56.12 188.89 L 57.62 188.89 L 57.59 186.56 L 67.48 185.16 Z" fill="#ffcca6" fill-rule="evenodd" group-id="1" id="Fill-3" node-id="12" stroke="none" target-height="10.012009" target-width="12.192001" target-x="55.87648" target-y="185.157"></path><path d="M 67.61 188.89 L 67.13 191.14 L 56.12 188.89 Z" fill="#e8b089" fill-rule="evenodd" group-id="1" id="Fill-5" node-id="13" stroke="none" target-height="2.2431946" target-width="11.4916" target-x="56.1222" target-y="188.894"></path><path d="M 120.43 186.36 C 120.43 186.36 118.08 189.95 114.01 189.45 L 113.01 188.02 L 111.25 185.50 C 113.38 185.04 115.48 184.44 117.53 183.70 C 118.21 183.45 118.89 183.19 119.56 182.91 C 119.60 183.09 119.64 183.26 119.68 183.44 C 119.92 184.54 120.18 185.55 120.43 186.36" fill="#ffcca6" fill-rule="evenodd" group-id="1" id="Fill-7" node-id="14" stroke="none" target-height="7.036804" target-width="9.18" target-x="111.2514" target-y="182.91205"></path><path d="M 119.68 183.44 L 113.01 188.02 L 111.25 185.50 C 113.38 185.04 115.48 184.44 117.53 183.70 C 118.78 183.55 119.68 183.44 119.68 183.44" fill="#e8b089" fill-rule="evenodd" group-id="1" id="Fill-9" node-id="15" stroke="none" target-height="4.581604" target-width="8.427193" target-x="111.25144" target-y="183.43579"></path><path d="M 120.43 186.36 C 120.43 186.36 123.28 189.49 126.43 191.98 C 128.42 193.56 127.64 196.60 125.94 199.15 C 123.39 202.98 120.56 206.62 117.47 210.03 C 117.47 210.03 113.05 210.50 104.45 210.15 C 104.45 210.15 104.13 207.10 107.17 205.72 C 114.10 202.58 115.66 194.26 114.01 189.45 C 114.01 189.45 117.47 190.06 120.43 186.36" fill="#212a49" fill-rule="evenodd" group-id="1" id="Fill-11" node-id="16" stroke="none" target-height="24.142776" target-width="24.291603" target-x="104.1332" target-y="186.35768"></path><g node-id="103"><g node-id="106"><path d="M 104.28 210.91 C 103.96 210.91 103.69 210.64 103.69 210.32 C 103.68 209.99 103.95 209.71 104.28 209.71 L 117.52 209.60 C 120.98 205.27 125.45 199.06 125.62 198.81 C 127.21 196.46 127.81 194.33 127.25 193.13 C 127.10 192.83 127.23 192.47 127.53 192.33 C 127.83 192.19 128.19 192.32 128.33 192.62 C 129.37 194.83 127.70 197.87 126.61 199.49 L 126.60 199.50 C 126.55 199.57 121.83 206.14 118.27 210.57 L 118.10 210.79 L 104.29 210.91 L 104.28 210.91 Z" fill="#60440b" fill-rule="evenodd" group-id="1,2,5" id="Fill-13" node-id="21" stroke="none" target-height="18.71759" target-width="25.687996" target-x="103.682396" target-y="192.19176"></path></g></g><path d="M 113.13 203.85 C 113.05 203.85 112.97 203.83 112.90 203.78 C 112.70 203.65 110.98 202.48 111.03 201.19 C 111.04 200.79 111.23 200.22 112.07 199.76 C 112.28 199.64 112.54 199.72 112.65 199.93 C 112.77 200.13 112.69 200.39 112.48 200.51 C 111.90 200.83 111.88 201.13 111.88 201.22 C 111.85 201.92 112.97 202.81 113.37 203.06 C 113.56 203.19 113.62 203.46 113.49 203.66 C 113.41 203.78 113.27 203.85 113.13 203.85" fill="#cc8a06" fill-rule="evenodd" group-id="1" id="Fill-15" node-id="22" stroke="none" target-height="4.206009" target-width="2.6419983" target-x="110.97676" target-y="199.64348"></path><path d="M 114.84 201.97 C 114.77 201.97 114.70 201.95 114.64 201.92 C 112.28 200.65 112.16 199.44 112.16 199.21 C 112.15 198.84 112.32 198.31 113.10 197.88 C 113.30 197.76 113.56 197.84 113.68 198.04 C 113.79 198.25 113.72 198.51 113.51 198.63 C 113.18 198.81 113.01 199.00 113.01 199.20 C 113.01 199.81 114.20 200.71 115.04 201.16 C 115.25 201.28 115.33 201.54 115.22 201.74 C 115.14 201.89 114.99 201.97 114.84 201.97" fill="#cc8a06" fill-rule="evenodd" group-id="1" id="Fill-17" node-id="23" stroke="none" target-height="4.2055817" target-width="3.1768036" target-x="112.15316" target-y="197.76302"></path><path d="M 122.12 182.66 L 109.73 186.58 L 100.42 170.39 L 87.75 148.38 L 111.08 151.27 L 117.06 168.26 Z" fill="#1a1f2d" fill-rule="evenodd" group-id="1" id="Fill-19" node-id="24" stroke="none" target-height="38.197998" target-width="34.37319" target-x="87.7492" target-y="148.38396"></path><path d="M 117.06 168.26 C 114.89 168.69 108.55 169.86 100.42 170.39 L 87.75 148.38 L 111.08 151.27 L 117.06 168.26 Z" fill="#10141c" fill-rule="evenodd" group-id="1" id="Fill-21" node-id="25" stroke="none" target-height="22.007614" target-width="29.3068" target-x="87.7494" target-y="148.38403"></path><path d="M 81.03 147.43 L 74.15 169.02 L 67.81 188.90 L 55.50 188.90 L 57.92 166.75 L 59.53 152.04 Z" fill="#1a1f2d" fill-rule="evenodd" group-id="1" id="Fill-23" node-id="26" stroke="none" target-height="41.4684" target-width="25.529602" target-x="55.50296" target-y="147.4276"></path><path d="M 81.03 147.43 L 74.15 169.02 C 72.66 168.71 71.17 168.36 69.71 167.96 C 69.71 167.96 64.80 166.45 57.92 166.75 L 59.53 152.04 L 81.03 147.43 Z" fill="#10141c" fill-rule="evenodd" group-id="1" id="Fill-25" node-id="27" stroke="none" target-height="21.589996" target-width="23.109604" target-x="57.92296" target-y="147.4276"></path><path d="M 37.30 204.57 C 37.30 204.57 49.24 204.57 54.86 204.54 C 59.59 204.51 68.89 205.48 69.03 203.22 C 69.33 198.67 66.29 196.14 66.67 193.27 C 62.93 193.38 59.23 192.57 55.88 190.91 C 54.66 192.10 47.87 198.51 42.29 199.17 C 36.14 199.90 37.30 204.57 37.30 204.57" fill="#212a49" fill-rule="evenodd" group-id="1" id="Fill-27" node-id="28" stroke="none" target-height="14.569992" target-width="33.190403" target-x="36.1378" target-y="190.91049"></path><path d="M 37.11 205.55 C 36.78 205.55 36.51 205.29 36.51 204.95 C 36.51 204.62 36.78 204.36 37.11 204.36 C 37.37 204.36 63.58 204.36 69.13 204.32 L 69.14 204.32 C 69.47 204.32 69.73 204.59 69.74 204.92 C 69.74 205.25 69.47 205.52 69.14 205.52 C 63.59 205.55 37.37 205.55 37.11 205.55" fill="#60440b" fill-rule="evenodd" group-id="1" id="Fill-29" node-id="29" stroke="none" target-height="1.2312012" target-width="33.23" target-x="36.50816" target-y="204.32216"></path><path d="M 49.06 199.28 C 48.91 199.28 48.76 199.20 48.69 199.06 C 48.56 198.84 47.49 196.81 48.20 195.59 C 48.51 195.04 49.09 194.76 49.93 194.75 L 49.94 194.75 C 50.17 194.75 50.36 194.93 50.36 195.17 C 50.37 195.40 50.18 195.60 49.94 195.60 C 49.17 195.61 48.99 195.92 48.93 196.01 C 48.54 196.70 49.18 198.18 49.43 198.65 C 49.55 198.86 49.47 199.12 49.27 199.23 C 49.20 199.27 49.13 199.28 49.06 199.28" fill="#cc8a06" fill-rule="evenodd" group-id="1" id="Fill-31" node-id="30" stroke="none" target-height="4.536789" target-width="2.8815994" target-x="47.48508" target-y="194.74625"></path><path d="M 51.72 198.32 C 51.59 198.32 51.45 198.26 51.37 198.14 C 51.19 197.87 49.66 195.52 50.34 194.22 C 50.52 193.87 50.95 193.45 51.92 193.43 C 52.16 193.43 52.35 193.62 52.35 193.85 C 52.36 194.09 52.17 194.28 51.93 194.29 C 51.49 194.29 51.21 194.41 51.10 194.62 C 50.75 195.29 51.61 196.96 52.08 197.66 C 52.21 197.86 52.16 198.12 51.96 198.25 C 51.89 198.30 51.81 198.32 51.72 198.32" fill="#cc8a06" fill-rule="evenodd" group-id="1" id="Fill-33" node-id="31" stroke="none" target-height="4.8932037" target-width="2.6956062" target-x="49.660957" target-y="193.43164"></path><path d="M 17.16 105.26 L 17.02 105.28 C 13.76 102.78 11.54 101.97 10.38 102.84 C 9.18 103.11 13.80 105.89 11.86 106.84 C 9.92 107.80 3.48 107.93 3.25 109.09 C 2.92 110.81 6.02 112.89 8.20 113.44 C 12.26 114.46 14.64 114.03 19.73 111.95 C 19.90 111.89 20.07 111.82 20.24 111.76 L 17.16 105.26 Z" fill="#ffcca6" fill-rule="evenodd" group-id="1" id="Fill-35" node-id="32" stroke="none" target-height="12.491997" target-width="17.3216" target-x="2.91852" target-y="101.9652"></path><path d="M 27.91 112.35 C 27.89 112.39 27.13 112.36 26.10 112.28 C 24.69 112.18 22.75 112.01 21.50 111.89 C 20.77 111.82 20.27 111.77 20.24 111.76 C 20.11 111.70 17.16 105.26 17.16 105.26 L 21.21 103.49 L 24.31 102.14 C 24.31 102.14 27.96 112.21 27.91 112.35" fill="#ffcca6" fill-rule="evenodd" group-id="1" id="Fill-37" node-id="33" stroke="none" target-height="10.255196" target-width="10.804401" target-x="17.15972" target-y="102.137115"></path><path d="M 26.10 112.28 C 24.69 112.18 22.75 112.01 21.50 111.89 L 21.21 103.49 C 21.21 103.49 24.78 109.83 26.10 112.28" fill="#e8b089" fill-rule="evenodd" group-id="1" id="Fill-39" node-id="34" stroke="none" target-height="8.794403" target-width="4.8904" target-x="21.21364" target-y="103.48904"></path><path d="M 24.19 63.77 L 23.65 72.90 L 23.25 72.79 L 18.10 71.29 L 17.21 71.03 C 7.07 72.97 3.39 72.80 3.59 71.29 C 3.90 69.01 5.70 69.65 6.15 68.15 C 6.61 66.65 5.44 65.35 1.92 62.94 C -1.61 60.53 0.55 59.83 1.93 59.74 C 6.95 60.43 10.10 60.73 16.25 63.42 L 20.12 63.59 L 24.19 63.77 Z" fill="#ffcca6" fill-rule="evenodd" group-id="1" id="Fill-41" node-id="35" stroke="none" target-height="13.226799" target-width="25.802" target-x="-1.60968" target-y="59.73864"></path><path d="M 23.25 72.79 L 18.10 71.29 C 18.75 68.62 20.12 63.59 20.12 63.59 L 23.25 72.79 Z" fill="#e8b089" fill-rule="evenodd" group-id="1" id="Fill-43" node-id="36" stroke="none" target-height="9.1996" target-width="5.1499996" target-x="18.10384" target-y="63.59012"></path><path d="M 71.06 64.83 L 71.06 84.32 C 71.06 84.32 69.41 84.06 66.70 83.62 C 64.27 83.24 60.98 82.71 57.28 82.12 C 55.69 81.87 54.03 81.61 52.33 81.34 C 38.11 79.08 20.87 76.37 20.27 76.37 C 19.25 76.37 20.27 60.98 20.27 60.98 L 57.15 63.77 L 62.14 64.15 L 66.70 64.50 L 71.06 64.83 Z" fill="#32393a" fill-rule="evenodd" group-id="1" id="Fill-45" node-id="37" stroke="none" target-height="23.338802" target-width="51.808" target-x="19.24856" target-y="60.97964"></path><path d="M 71.06 66.24 L 71.06 85.73 C 71.06 85.73 69.41 85.46 66.70 85.03 C 64.27 84.65 60.98 84.12 57.28 83.53 C 55.69 83.28 54.03 83.02 52.33 82.75 C 38.11 80.49 20.87 77.78 20.27 77.78 C 19.25 77.78 20.27 62.39 20.27 62.39 L 57.15 65.18 L 62.14 65.56 L 66.70 65.91 L 71.06 66.24 Z" fill="#32393a" fill-rule="evenodd" group-id="1" id="Fill-47" node-id="38" stroke="none" target-height="23.338795" target-width="51.808" target-x="19.24856" target-y="62.389004"></path><path d="M 66.70 64.50 L 62.14 64.15 L 57.15 63.77 L 20.27 60.98 C 20.27 60.98 19.77 68.51 19.82 73.03 C 19.87 68.51 20.34 61.32 20.34 61.32 L 57.22 64.11 L 62.20 64.49 L 66.77 64.84 L 71.12 65.17 L 71.06 64.83 L 66.70 64.50 Z" fill="#5b6060" fill-rule="evenodd" group-id="1" id="Fill-49" node-id="39" stroke="none" target-height="12.0524025" target-width="51.351997" target-x="19.77288" target-y="60.97952"></path><path d="M 66.44 65.88 L 66.44 85.01 C 64.01 84.62 60.72 84.10 57.01 83.51 C 55.43 83.26 53.77 83.00 52.07 82.73 C 52.54 80.35 53.08 77.99 53.70 75.65 L 55.08 70.43 C 55.08 70.43 55.71 67.80 56.89 65.16 L 61.87 65.54 L 66.44 65.88 Z" fill="#2d3333" fill-rule="evenodd" group-id="1" id="Fill-51" node-id="40" stroke="none" target-height="19.851204" target-width="14.370796" target-x="52.06996" target-y="65.16064"></path><path d="M 76.14 40.32 C 76.14 40.32 78.80 54.40 83.06 60.53 C 83.06 60.53 72.73 64.03 65.36 62.07 C 65.36 62.07 62.79 52.29 61.66 48.51 L 76.14 40.32 Z" fill="#ffcca6" fill-rule="evenodd" group-id="1" id="Fill-53" node-id="41" stroke="none" target-height="23.717602" target-width="21.404396" target-x="61.65824" target-y="40.31664"></path><path d="M 64.13 57.43 C 63.31 54.37 62.27 50.57 61.66 48.51 L 72.68 42.28 L 72.96 43.64 C 72.08 49.53 68.82 55.36 64.13 57.43" fill="#e8b089" fill-rule="evenodd" group-id="1" id="Fill-55" node-id="42" stroke="none" target-height="15.145599" target-width="11.3032" target-x="61.65824" target-y="42.2816"></path><path d="M 78.46 49.68 C 78.46 49.68 72.64 54.27 65.48 55.86 C 64.89 55.99 63.60 56.33 62.99 56.41 C 62.99 56.41 63.46 60.38 64.68 62.31 C 64.85 62.58 66.56 62.11 67.31 62.10 C 69.66 62.10 73.17 59.45 77.18 58.32 L 81.06 54.45 L 78.46 49.68 Z" fill="#ffffff" fill-rule="evenodd" group-id="1" id="Fill-57" node-id="43" stroke="none" target-height="12.891205" target-width="18.063198" target-x="62.993" target-y="49.68424"></path><path d="M 73.56 42.31 C 73.56 42.31 73.55 42.34 73.53 42.41 C 73.33 43.13 72.04 47.28 69.74 49.26 C 66.56 51.99 59.76 54.04 55.49 52.20 C 54.37 51.71 53.69 49.73 53.36 47.07 C 53.24 46.11 53.17 45.06 53.14 43.96 C 53.05 40.93 53.28 37.53 53.74 34.52 C 53.78 34.30 53.82 34.07 53.85 33.85 C 53.93 33.41 54.01 32.98 54.09 32.57 C 54.79 29.09 55.82 26.52 57.01 26.38 C 60.70 25.93 70.34 27.18 72.02 32.02 C 73.71 36.87 73.56 42.31 73.56 42.31" fill="#ffcca6" fill-rule="evenodd" group-id="1" id="Fill-59" node-id="44" stroke="none" target-height="28.111202" target-width="20.6544" target-x="53.0538" target-y="25.92852"></path><path d="M 52.39 22.57 C 51.30 22.96 50.51 23.67 49.97 24.52 C 50.31 23.46 50.98 22.55 51.99 21.99 C 52.05 21.97 52.11 21.95 52.16 21.93 L 52.39 22.57 Z" fill="#e8b089" fill-rule="evenodd" group-id="1" id="Fill-61" node-id="45" stroke="none" target-height="2.597599" target-width="2.421196" target-x="49.973286" target-y="21.9262"></path><path d="M 72.02 32.02 C 73.71 36.87 73.56 42.31 73.56 42.31 C 73.56 42.31 73.55 42.34 73.53 42.41 C 73.58 41.72 73.47 41.07 73.06 40.66 C 72.05 39.67 70.87 41.40 70.46 42.07 C 70.26 41.80 70.06 41.52 69.86 41.23 C 66.82 36.74 68.03 33.44 68.44 32.58 C 68.51 32.44 68.55 32.36 68.55 32.36 C 68.55 32.36 66.75 32.87 64.16 33.18 C 61.31 33.52 57.51 33.63 54.11 32.57 C 54.10 32.57 54.10 32.57 54.09 32.57 C 54.79 29.09 55.82 26.52 57.01 26.38 C 60.70 25.93 70.34 27.18 72.02 32.02" fill="#e8b089" fill-rule="evenodd" group-id="1" id="Fill-63" node-id="46" stroke="none" target-height="16.483597" target-width="19.6184" target-x="54.0896" target-y="25.928482"></path><path d="M 74.76 26.03 C 74.24 26.27 73.94 26.52 73.93 26.53 L 73.49 26.01 C 73.50 26.00 73.80 25.76 74.31 25.50 C 74.39 25.86 74.40 26.08 74.40 26.08 C 74.40 26.08 74.53 26.05 74.76 26.03" fill="#e8b089" fill-rule="evenodd" group-id="1" id="Fill-65" node-id="47" stroke="none" target-height="1.0276031" target-width="1.2723999" target-x="73.4916" target-y="25.50112"></path><path d="M 52.16 21.93 L 52.39 22.57 C 51.30 22.96 50.51 23.67 49.97 24.52 C 50.31 23.46 50.98 22.54 51.99 21.99 C 52.05 21.97 52.11 21.95 52.16 21.93" fill="#e8b089" fill-rule="evenodd" group-id="1" id="Fill-67" node-id="48" stroke="none" target-height="2.597599" target-width="2.4216042" target-x="49.972996" target-y="21.92604"></path><path d="M 69.59 32.13 C 69.58 32.14 69.16 32.32 68.44 32.58 C 66.36 33.35 61.78 34.80 57.04 34.80 C 56.15 34.80 55.26 34.75 54.38 34.63 C 54.16 34.61 53.95 34.57 53.74 34.52 C 53.78 34.30 53.82 34.07 53.85 33.85 C 54.05 33.89 54.26 33.93 54.47 33.95 C 57.85 34.40 61.39 33.86 64.16 33.18 C 67.17 32.43 69.28 31.52 69.32 31.50 L 69.59 32.13 Z" fill="#e8b089" fill-rule="evenodd" group-id="1" id="Fill-69" node-id="49" stroke="none" target-height="3.295599" target-width="15.849594" target-x="53.744682" target-y="31.50432"></path><path d="M 77.49 46.32 C 77.49 46.32 75.47 46.12 73.00 44.08 C 73.37 43.05 73.98 40.91 73.06 40.00 C 72.05 39.00 70.87 40.73 70.46 41.40 C 70.26 41.14 70.06 40.86 69.86 40.57 C 66.30 35.32 68.55 31.70 68.55 31.70 C 68.55 31.70 60.59 33.92 54.11 31.91 C 48.72 30.24 48.08 21.92 53.27 20.87 C 53.27 20.87 52.39 22.86 56.66 22.93 C 60.93 22.99 61.23 18.72 67.04 19.49 C 74.19 20.46 74.40 25.42 74.40 25.42 C 74.40 25.42 78.17 24.56 80.74 28.63 C 83.48 32.98 76.28 41.16 77.49 46.32" fill="#0f2b4f" fill-rule="evenodd" group-id="1" id="Fill-71" node-id="50" stroke="none" target-height="27.6028" target-width="35.398796" target-x="48.08" target-y="18.71932"></path><path d="M 57.04 34.14 C 56.15 34.14 55.26 34.09 54.38 33.97 C 50.44 33.45 48.72 30.36 48.46 27.86 C 48.08 24.35 50.05 22.02 52.16 21.26 L 52.39 21.91 C 49.81 22.83 48.89 25.53 49.14 27.79 C 49.38 30.04 50.92 32.83 54.47 33.29 C 61.52 34.22 69.24 30.88 69.32 30.84 L 69.59 31.47 C 69.52 31.50 63.43 34.14 57.04 34.14" fill="#0f2b4f" fill-rule="evenodd" group-id="1" id="Fill-73" node-id="51" stroke="none" target-height="12.952402" target-width="21.512798" target-x="48.081364" target-y="21.2634"></path><path d="M 80.36 26.28 C 78.88 25.10 77.35 24.67 75.80 25.01 C 74.66 25.27 73.94 25.86 73.93 25.87 L 73.49 25.34 C 73.52 25.31 76.85 22.60 80.78 25.74 L 80.36 26.28 Z" fill="#0f2b4f" fill-rule="evenodd" group-id="1" id="Fill-75" node-id="52" stroke="none" target-height="3.6815987" target-width="7.2923965" target-x="73.49176" target-y="22.596"></path><path d="M 82.77 53.87 C 81.38 55.54 79.51 57.72 79.51 57.72 L 65.30 70.37 L 60.56 77.95 L 58.67 83.02 L 58.35 83.54 C 58.39 83.34 58.43 83.13 58.47 82.92 C 58.97 80.16 59.58 77.41 60.30 74.69 L 61.61 69.77 C 61.61 69.77 63.00 63.90 65.54 61.18 C 68.16 58.37 79.51 51.62 79.51 51.62 C 79.51 51.62 80.47 52.41 81.67 53.20 C 82.02 53.43 82.40 53.66 82.77 53.87" fill="#ffffff" fill-rule="evenodd" group-id="1" id="Fill-77" node-id="53" stroke="none" target-height="31.922398" target-width="24.418007" target-x="58.354195" target-y="51.62176"></path><path d="M 116.09 164.55 C 116.09 164.55 89.60 170.43 67.93 164.40 C 67.93 164.40 61.75 162.51 53.53 163.40 C 52.69 163.49 51.82 163.61 50.93 163.77 L 55.17 115.27 L 55.27 114.24 L 55.27 114.23 L 55.09 114.24 L 55.08 114.24 L 54.73 114.27 L 23.37 114.27 L 20.78 101.33 L 20.67 100.80 L 54.43 95.05 L 54.45 95.04 L 56.98 94.56 L 57.07 93.55 L 57.14 92.80 C 57.19 92.24 57.24 91.67 57.30 91.11 C 57.42 89.92 57.57 88.72 57.73 87.54 L 57.73 87.53 C 57.78 87.15 57.84 86.77 57.89 86.39 C 57.90 86.34 57.91 86.29 57.91 86.24 C 57.95 86.07 57.97 85.90 57.99 85.74 L 57.99 85.73 C 58.11 85.00 58.23 84.27 58.35 83.54 C 58.39 83.34 58.43 83.13 58.47 82.92 C 58.97 80.16 59.59 77.41 60.30 74.69 L 61.61 69.77 C 61.61 69.77 63.00 63.90 65.53 61.18 C 68.16 58.37 79.51 51.62 79.51 51.62 C 79.51 51.62 80.47 52.41 81.67 53.20 C 81.91 53.36 82.16 53.52 82.41 53.67 C 82.53 53.74 82.65 53.80 82.77 53.87 C 82.87 53.92 82.97 53.98 83.06 54.03 C 84.31 54.68 85.56 55.30 86.81 55.99 C 91.83 58.72 93.99 64.17 97.38 74.13 C 98.22 76.58 98.89 79.09 99.40 81.63 L 115.22 160.24 L 116.09 164.55 Z" fill="#32393a" fill-rule="evenodd" group-id="1" id="Fill-79" node-id="54" stroke="none" target-height="118.81241" target-width="95.412" target-x="20.67368" target-y="51.62076"></path><path d="M 82.41 53.67 L 76.64 60.46 L 67.60 67.58 L 59.78 79.69 L 57.89 86.39 C 57.90 86.34 57.91 86.29 57.91 86.24 C 57.94 86.07 57.97 85.91 57.99 85.74 L 57.99 85.73 C 58.10 85.00 58.23 84.27 58.35 83.54 C 58.39 83.34 58.43 83.13 58.47 82.92 C 58.97 80.16 59.58 77.41 60.30 74.69 L 61.61 69.77 C 61.61 69.77 63.00 63.90 65.53 61.18 C 68.16 58.37 79.51 51.62 79.51 51.62 C 79.51 51.62 80.47 52.41 81.67 53.20 C 81.91 53.36 82.16 53.52 82.41 53.67" fill="#ffffff" fill-rule="evenodd" group-id="1" id="Fill-81" node-id="55" stroke="none" target-height="34.7656" target-width="24.5224" target-x="57.892" target-y="51.62028"></path><path d="M 79.64 55.08 C 79.74 55.13 79.83 55.18 79.93 55.24 C 81.18 55.89 82.43 56.51 83.68 57.19 C 88.70 59.93 90.86 65.37 94.25 75.34 C 95.09 77.79 95.76 80.30 96.27 82.84 L 112.84 165.16 C 114.90 164.80 116.08 164.54 116.08 164.54 L 99.40 81.63 C 98.89 79.09 98.22 76.58 97.38 74.13 C 93.99 64.17 91.83 58.72 86.81 55.98 C 85.56 55.31 84.31 54.68 83.06 54.03 C 82.97 53.98 82.87 53.92 82.77 53.87 C 82.40 53.66 82.02 53.43 81.67 53.20" fill="#2d3333" fill-rule="evenodd" group-id="1" id="Fill-83" node-id="56" stroke="none" target-height="111.964005" target-width="36.442795" target-x="79.64152" target-y="53.198"></path><path d="M 86.81 55.98 L 86.45 56.15 C 86.04 56.36 85.62 56.57 85.21 56.78 C 84.38 57.21 83.56 57.66 82.74 58.12 C 81.11 59.05 79.51 60.04 77.94 61.09 C 74.81 63.19 71.83 65.52 69.10 68.13 C 66.37 70.74 63.90 73.64 61.92 76.88 C 59.93 80.12 58.35 83.71 57.73 87.53 C 57.79 87.10 57.85 86.67 57.92 86.24 C 57.95 86.07 57.97 85.90 57.99 85.74 L 57.99 85.73 C 58.10 84.79 58.26 83.85 58.47 82.92 C 58.97 80.64 59.75 78.40 60.75 76.26 C 62.40 72.69 64.63 69.37 67.15 66.33 C 69.69 63.28 72.52 60.49 75.54 57.92 C 77.05 56.64 78.61 55.41 80.22 54.23 C 80.70 53.88 81.18 53.54 81.67 53.20 C 82.11 53.49 82.59 53.78 83.06 54.03 C 84.31 54.68 85.56 55.31 86.81 55.98" fill="#fccf6b" fill-rule="evenodd" group-id="1" id="Fill-85" node-id="57" stroke="none" target-height="34.336792" target-width="29.0808" target-x="57.72832" target-y="53.197838"></path><path d="M 86.31 55.72 L 86.13 55.80 C 85.71 56.01 85.30 56.22 84.88 56.43 C 84.06 56.86 83.23 57.31 82.42 57.77 C 80.78 58.70 79.18 59.69 77.61 60.74 C 74.49 62.84 71.50 65.17 68.77 67.78 C 66.05 70.39 63.57 73.29 61.59 76.53 C 60.32 78.61 59.22 80.83 58.42 83.16 C 58.24 84.01 58.09 84.87 57.99 85.73 L 57.99 85.74 C 57.97 85.90 57.95 86.07 57.92 86.24 C 57.85 86.67 57.79 87.10 57.73 87.53 C 58.35 83.71 59.93 80.12 61.92 76.88 C 63.90 73.64 66.37 70.74 69.10 68.13 C 71.83 65.52 74.81 63.19 77.94 61.09 C 79.51 60.04 81.11 59.05 82.74 58.12 C 83.56 57.66 84.38 57.21 85.21 56.78 C 85.62 56.57 86.04 56.36 86.45 56.15 L 86.81 55.98 C 86.64 55.89 86.47 55.81 86.31 55.72" fill="#e2b252" fill-rule="evenodd" group-id="1" id="Fill-87" node-id="58" stroke="none" target-height="31.815998" target-width="29.0808" target-x="57.72836" target-y="55.7186"></path><path d="M 54.73 114.25 L 55.08 114.24 L 54.73 114.27 Z" fill="#2d3333" fill-rule="evenodd" group-id="1" id="Fill-89" node-id="59" stroke="none" target-height="0.025596619" target-width="0.3540001" target-x="54.72768" target-y="114.2406"></path><path d="M 95.17 93.13 L 95.17 93.17 C 95.17 98.02 93.74 102.18 90.90 105.54 C 88.64 108.22 85.50 110.39 81.56 111.99 C 74.90 114.70 68.35 114.84 68.08 114.84 L 55.17 115.26 L 55.26 114.24 L 68.05 113.82 C 68.13 113.82 74.71 113.67 81.20 111.03 C 84.97 109.49 87.98 107.41 90.12 104.87 C 92.79 101.71 94.14 97.78 94.15 93.21 L 91.33 73.50 L 92.35 73.35 L 95.17 93.13 Z" fill="#2d3333" fill-rule="evenodd" group-id="1" id="Fill-91" node-id="60" stroke="none" target-height="41.914406" target-width="39.99959" target-x="55.1738" target-y="73.35024"></path><path d="M 71.27 90.50 L 71.27 90.53 C 71.23 91.48 70.52 92.27 69.58 92.41 L 54.45 95.04 L 56.98 94.56 L 57.07 93.54 L 69.42 91.40 C 69.87 91.33 70.21 90.96 70.24 90.51 L 69.41 78.60 L 70.43 78.53 L 71.27 90.50 Z" fill="#2d3333" fill-rule="evenodd" group-id="1" id="Fill-93" node-id="61" stroke="none" target-height="16.515205" target-width="16.821194" target-x="54.447285" target-y="78.52708"></path><path d="M 57.71 114.15 L 57.59 115.19 L 53.53 163.40 C 52.69 163.49 51.82 163.61 50.94 163.77 L 55.17 115.26 L 55.26 114.24 L 55.26 114.23 L 55.09 114.24 L 55.08 114.24 L 54.73 114.27 L 48.33 114.27 L 57.71 114.15 Z" fill="#2d3333" fill-rule="evenodd" group-id="1" id="Fill-95" node-id="62" stroke="none" target-height="49.61081" target-width="9.382805" target-x="48.3308" target-y="114.15456"></path><path d="M 56.64 119.46 C 56.92 119.46 80.65 114.31 85.19 110.22 L 78.04 112.60 L 70.76 113.98 L 56.64 114.84 L 56.64 119.46 Z" fill="#2d3333" fill-rule="evenodd" group-id="1" id="Fill-97" node-id="63" stroke="none" target-height="9.243195" target-width="28.551998" target-x="56.63976" target-y="110.22032"></path><path d="M 57.57 44.66 C 57.52 44.89 57.44 45.11 57.34 45.32 C 56.83 46.45 55.69 47.23 54.37 47.23 C 54.02 47.23 53.68 47.17 53.36 47.07 C 53.29 46.50 53.24 45.90 53.20 45.28 C 53.17 44.85 53.15 44.41 53.14 43.96 L 57.00 43.96 C 57.37 43.96 57.65 44.30 57.57 44.66" fill="#e9443b" fill-rule="evenodd" group-id="1" id="Fill-99" node-id="64" stroke="none" target-height="3.2736015" target-width="4.509201" target-x="53.13868" target-y="43.95604"></path><path d="M 57.57 44.66 C 57.52 44.89 57.44 45.11 57.34 45.32 L 53.20 45.28 C 53.17 44.85 53.15 44.41 53.14 43.96 L 57.00 43.96 C 57.37 43.96 57.65 44.30 57.57 44.66" fill="#ffffff" fill-rule="evenodd" group-id="1" id="Fill-101" node-id="65" stroke="none" target-height="1.3688011" target-width="4.509201" target-x="53.13868" target-y="43.95604"></path><path d="M 56.86 40.15 C 56.86 41.14 56.34 41.94 55.69 41.94 C 55.05 41.94 54.53 41.14 54.53 40.15 C 54.53 39.16 55.05 38.36 55.69 38.36 C 56.34 38.36 56.86 39.16 56.86 40.15" fill="#151212" fill-rule="evenodd" group-id="1" id="Fill-103" node-id="66" stroke="none" target-height="3.577999" target-width="2.3372002" target-x="54.52504" target-y="38.3642"></path><path d="M 56.49 39.60 C 56.49 39.91 56.29 40.15 56.04 40.15 C 55.79 40.15 55.59 39.91 55.59 39.60 C 55.59 39.30 55.79 39.05 56.04 39.05 C 56.29 39.05 56.49 39.30 56.49 39.60" fill="#ffffff" fill-rule="evenodd" group-id="1" id="Fill-105" node-id="67" stroke="none" target-height="1.1036034" target-width="0.9087982" target-x="55.58548" target-y="39.04944"></path><path d="M 57.03 37.42 C 57.02 37.42 57.02 37.42 57.01 37.42 L 55.08 37.53 C 55.02 37.54 54.96 37.49 54.96 37.42 C 54.95 37.36 55.00 37.30 55.07 37.30 L 57.00 37.18 C 57.06 37.18 57.12 37.23 57.12 37.29 C 57.13 37.35 57.08 37.41 57.03 37.42" fill="#151212" fill-rule="evenodd" group-id="1" id="Fill-107" node-id="68" stroke="none" target-height="0.35680008" target-width="2.173996" target-x="54.952885" target-y="37.17868"></path><path d="M 89.41 18.64 L 105.16 20.64 L 93.81 7.42 L 79.44 0.40 L 84.25 14.20 Z" fill="#1b1e1e" fill-rule="evenodd" group-id="1" id="Fill-109" node-id="69" stroke="none" target-height="20.236801" target-width="25.7128" target-x="79.44384" target-y="0.40012"></path><g node-id="104"><g node-id="108"><path d="M 79.44 0.40 L 79.69 1.12 L 93.47 7.85 L 102.89 18.82 L 103.11 19.07 L 104.36 20.54 L 105.16 20.64 L 103.44 18.64 L 103.23 18.39 L 93.81 7.42 Z" fill="#292d2d" fill-rule="evenodd" group-id="1,3,7" id="Fill-111" node-id="74" stroke="none" target-height="20.2364" target-width="25.712402" target-x="79.44408" target-y="0.39984"></path></g></g><path d="M 96.37 18.51 L 92.26 23.73 C 87.07 21.07 82.45 17.43 78.64 13.01 L 82.75 7.79 C 87.94 9.69 92.45 13.10 95.70 17.58 L 96.37 18.51 Z" fill="#282c2d" fill-rule="evenodd" group-id="1" id="Fill-113" node-id="75" stroke="none" target-height="15.938398" target-width="17.727608" target-x="78.64284" target-y="7.78924"></path><path d="M 95.70 17.58 L 96.37 18.51 L 95.87 19.15 L 95.20 18.21 C 91.95 13.74 87.44 10.33 82.25 8.43 L 82.75 7.79 C 87.94 9.69 92.45 13.10 95.70 17.58" fill="#303333" fill-rule="evenodd" group-id="1" id="Fill-115" node-id="76" stroke="none" target-height="11.356001" target-width="14.121201" target-x="82.24944" target-y="7.7892"></path><path d="M 98.87 23.93 L 99.12 24.13 L 101.39 21.24 L 103.11 19.07 L 103.44 18.64 L 103.23 18.39 L 102.89 18.82 L 101.27 20.88 Z" fill="#fccf6b" fill-rule="evenodd" group-id="1" id="Fill-117" node-id="77" stroke="none" target-height="5.7403984" target-width="4.575203" target-x="98.86848" target-y="18.38956"></path><path d="M 95.72 26.74 L 95.84 26.84 L 97.92 24.20 C 98.17 23.89 98.62 23.84 98.93 24.08 C 99.24 24.33 99.30 24.78 99.05 25.09 L 96.97 27.73 L 97.10 27.83 L 99.18 25.19 C 99.48 24.81 99.41 24.25 99.03 23.95 C 98.65 23.65 98.10 23.72 97.80 24.10 L 95.72 26.74 Z" fill="#fccf6b" fill-rule="evenodd" group-id="1" id="Fill-119" node-id="78" stroke="none" target-height="4.1788006" target-width="3.7631989" target-x="95.71653" target-y="23.65324"></path><path d="M 96.73 27.54 L 96.85 27.64 L 99.30 24.53 L 99.18 24.43 Z" fill="#fccf6b" fill-rule="evenodd" group-id="1" id="Fill-121" node-id="79" stroke="none" target-height="3.2108002" target-width="2.5751953" target-x="96.72708" target-y="24.42696"></path><path d="M 96.47 27.34 L 96.60 27.44 L 99.17 24.17 L 99.05 24.07 Z" fill="#fccf6b" fill-rule="evenodd" group-id="1" id="Fill-123" node-id="80" stroke="none" target-height="3.3700027" target-width="2.700798" target-x="96.4722" target-y="24.067358"></path><path d="M 96.22 27.14 L 96.34 27.24 L 98.92 23.97 L 98.79 23.87 Z" fill="#fccf6b" fill-rule="evenodd" group-id="1" id="Fill-125" node-id="81" stroke="none" target-height="3.3700008" target-width="2.7003937" target-x="96.21752" target-y="23.8666"></path><path d="M 95.96 26.94 L 96.09 27.04 L 98.54 23.93 L 98.41 23.83 Z" fill="#fccf6b" fill-rule="evenodd" group-id="1" id="Fill-127" node-id="82" stroke="none" target-height="3.2107983" target-width="2.5752106" target-x="95.96263" target-y="23.8254"></path><path d="M 116.09 164.55 C 116.09 164.55 89.60 170.43 67.93 164.40 C 67.93 164.40 61.75 162.51 53.53 163.40 C 52.69 163.49 51.82 163.61 50.93 163.77 L 55.17 115.27 L 55.27 114.24 C 55.27 114.24 80.68 115.01 88.15 134.14 C 92.35 144.88 102.77 154.70 115.22 160.24 L 116.09 164.55 Z" fill="#2d3333" fill-rule="evenodd" group-id="1" id="Fill-129" node-id="83" stroke="none" target-height="56.196404" target-width="65.15201" target-x="50.933277" target-y="114.23676"></path><path d="M 55.77 115.33 L 55.85 114.43 C 54.79 114.32 55.27 114.24 55.27 114.24 L 55.17 115.27 L 50.93 163.77 C 51.51 163.66 50.99 163.65 51.55 163.58 L 55.77 115.33 Z" fill="#5b6060" fill-rule="evenodd" group-id="1" id="Fill-131" node-id="84" stroke="none" target-height="49.527992" target-width="4.9167976" target-x="50.933277" target-y="114.23708"></path><path d="M 54.45 95.04 L 56.98 94.56 L 56.94 95.04 C 56.94 95.04 26.03 100.44 20.78 101.33 L 20.67 100.80 L 54.43 95.05 L 54.45 95.04 Z" fill="#5b6060" fill-rule="evenodd" group-id="1" id="Fill-133" node-id="85" stroke="none" target-height="6.771599" target-width="36.308" target-x="20.67356" target-y="94.56128"></path><path d="M 57.30 91.11 L 56.98 94.56 L 57.07 93.55 L 57.14 92.80 C 57.19 92.24 57.24 91.67 57.30 91.11" fill="#5b6060" fill-rule="evenodd" group-id="1" id="Fill-135" node-id="86" stroke="none" target-height="3.4480057" target-width="0.3199997" target-x="56.98168" target-y="91.11315"></path></g></svg>