<?xml version="1.0" standalone="no"?><!DOCTYPE svg PUBLIC "-//W3C//DTD SVG 1.1//EN" "http://www.w3.org/Graphics/SVG/1.1/DTD/svg11.dtd"><svg height="250" node-id="1" sillyvg="true" template-height="250" template-width="119" version="1.1" viewBox="0 0 119 250" width="119" xmlns="http://www.w3.org/2000/svg" xmlns:xlink="http://www.w3.org/1999/xlink"><defs node-id="83"><mask height="18.574562" id="mask-2" maskUnits="userSpaceOnUse" node-id="30" width="48.031204" x="-4.00038" y="-0.9479401"><path d="M 0.00 0.60 L 40.03 0.60 L 40.03 16.08 L 0.00 16.08 Z" fill="#ffffff" fill-rule="evenodd" node-id="88" stroke="none" target-height="15.478739" target-width="40.026" target-x="0.00222" target-y="0.6"></path></mask><mask height="37.92816" id="mask-4" maskUnits="userSpaceOnUse" node-id="57" width="12.0614395" x="107.51232" y="214.553"><path d="M 108.52 217.71 L 118.57 217.71 L 118.57 249.32 L 108.52 249.32 Z" fill="#ffffff" fill-rule="evenodd" node-id="95" stroke="none" target-height="31.60675" target-width="10.050957" target-x="108.51744" target-y="217.71367"></path></mask></defs><g node-id="97"><path d="M 73.82 224.13 L 69.65 229.35 L 65.03 227.32 L 61.83 225.92 L 55.81 223.28 L 62.89 219.33 L 65.75 220.58 Z" fill="#ffcca6" fill-rule="evenodd" group-id="1" id="Fill-1" node-id="11" stroke="none" target-height="10.0224" target-width="18.0024" target-x="55.81386" target-y="219.32628"></path><path d="M 65.75 220.58 L 65.03 227.32 L 61.83 225.92 Z" fill="#e8b089" fill-rule="evenodd" group-id="1" id="Fill-2" node-id="12" stroke="none" target-height="6.7433777" target-width="3.9258003" target-x="61.82742" target-y="220.58142"></path><g node-id="98"><path d="M 66.82 218.23 C 66.82 218.23 66.14 219.75 65.33 221.48 C 64.26 223.81 62.95 226.52 62.74 226.52 C 62.47 226.52 39.23 220.17 27.09 216.85 C 22.90 215.70 20.13 211.74 20.48 207.42 L 21.05 200.41 L 22.15 186.77 L 41.73 194.34 L 39.64 200.18 L 37.81 205.30 C 37.07 207.37 38.21 209.64 40.32 210.27 L 42.85 211.03 L 66.82 218.23 Z" fill="#252d49" fill-rule="evenodd" group-id="1,2" id="Fill-3" node-id="14" stroke="none" target-height="39.7446" target-width="46.692604" target-x="20.13054" target-y="186.77382"></path><path d="M 66.82 218.23 C 66.82 218.23 66.14 219.75 65.33 221.48 L 54.37 219.74 C 49.17 218.90 44.95 215.53 42.85 211.03 L 66.82 218.23 Z" fill="#1a2135" fill-rule="evenodd" group-id="1,2" id="Fill-5" node-id="15" stroke="none" target-height="10.451401" target-width="23.970604" target-x="42.85254" target-y="211.03302"></path><path d="M 70.29 249.28 L 83.08 225.60 C 82.67 225.36 82.27 225.15 81.88 224.96 L 69.14 248.55 C 69.49 248.84 69.88 249.09 70.29 249.28" fill="#1f5684" fill-rule="evenodd" group-id="1,2" id="Fill-7" node-id="16" stroke="none" target-height="24.321594" target-width="13.939796" target-x="69.13818" target-y="224.96317"></path><path d="M 71.06 222.14 C 73.59 223.62 76.58 222.01 81.92 224.89 L 69.13 248.58 C 69.13 248.58 64.46 246.50 65.99 241.21 C 67.51 235.91 68.46 230.86 67.06 229.55 L 71.06 222.14 Z" fill="#0c3863" fill-rule="evenodd" group-id="1,2" id="Fill-9" node-id="17" stroke="none" target-height="26.569809" target-width="17.455803" target-x="64.46196" target-y="222.00618"></path><path d="M 71.95 232.35 C 71.92 232.13 71.72 231.98 71.50 232.00 L 67.28 232.41 C 67.05 232.44 66.88 232.64 66.90 232.87 C 66.93 233.10 67.13 233.26 67.36 233.24 L 71.58 232.83 C 71.81 232.81 71.98 232.60 71.96 232.37 C 71.96 232.37 71.96 232.36 71.95 232.35" fill="#1f5684" fill-rule="evenodd" group-id="1,2" id="Fill-11" node-id="18" stroke="none" target-height="1.2821808" target-width="5.097595" target-x="66.88236" target-y="231.98042"></path><path d="M 71.19 234.11 C 71.16 233.90 70.96 233.75 70.74 233.77 L 66.96 234.11 C 66.73 234.13 66.56 234.33 66.58 234.56 C 66.60 234.79 66.80 234.96 67.03 234.94 L 70.82 234.59 C 71.05 234.57 71.22 234.37 71.20 234.14 C 71.20 234.13 71.19 234.12 71.19 234.11" fill="#1f5684" fill-rule="evenodd" group-id="1,2" id="Fill-13" node-id="19" stroke="none" target-height="1.2089996" target-width="4.657799" target-x="66.55866" target-y="233.74759"></path><path d="M 70.43 235.88 C 70.40 235.67 70.20 235.51 69.99 235.53 L 66.63 235.80 C 66.41 235.82 66.24 236.02 66.25 236.25 C 66.27 236.48 66.47 236.65 66.70 236.63 L 70.05 236.36 C 70.28 236.34 70.45 236.14 70.43 235.91 C 70.43 235.90 70.43 235.89 70.43 235.88" fill="#1f5684" fill-rule="evenodd" group-id="1,2" id="Fill-15" node-id="20" stroke="none" target-height="1.135788" target-width="4.2173996" target-x="66.23556" target-y="235.51483"></path><path d="M 106.52 219.08 L 104.06 226.52 L 96.98 224.90 L 93.92 224.19 L 87.83 222.80 L 94.41 214.64 L 97.18 215.66 Z" fill="#ffcca6" fill-rule="evenodd" group-id="1,2" id="Fill-17" node-id="21" stroke="none" target-height="11.880005" target-width="18.6876" target-x="87.83454" target-y="214.63837"></path><path d="M 96.98 224.90 L 93.92 224.19 C 94.98 221.39 97.18 215.66 97.18 215.66 C 97.20 215.66 97.04 222.19 96.98 224.90" fill="#e8b089" fill-rule="evenodd" group-id="1,2" id="Fill-19" node-id="22" stroke="none" target-height="9.241211" target-width="3.2789917" target-x="93.91836" target-y="215.65678"></path><path d="M 35.17 51.04 C 35.50 50.50 37.47 47.07 36.92 44.64 C 36.32 41.99 34.22 34.10 34.54 32.78 C 34.54 32.78 32.35 33.25 32.35 36.08 C 32.36 38.04 33.59 40.85 32.08 40.30 C 31.05 39.92 27.98 39.24 27.47 35.07 C 27.27 33.50 27.43 27.39 23.56 27.57 L 21.10 34.62 C 21.29 37.54 21.12 40.62 26.00 47.06 C 26.99 48.35 27.38 49.58 27.50 51.20 C 29.59 51.15 32.82 51.08 35.17 51.06 C 35.17 51.05 35.17 51.05 35.17 51.04" fill="#ffcca6" fill-rule="evenodd" group-id="1,2" id="Fill-21" node-id="23" stroke="none" target-height="23.8056" target-width="16.3728" target-x="21.09846" target-y="27.39312"></path><path d="M 38.35 72.25 L 23.86 71.29 L 26.48 56.87 L 26.48 56.85 L 27.50 51.20 L 35.17 51.06 L 35.78 55.16 L 36.04 56.87 Z" fill="#ffcca6" fill-rule="evenodd" group-id="1,2" id="Fill-23" node-id="24" stroke="none" target-height="21.190792" target-width="14.486399" target-x="23.86368" target-y="51.0582"></path><path d="M 97.36 214.79 L 95.44 225.36 L 54.89 218.90 C 47.10 217.65 41.51 210.72 41.96 202.85 L 42.03 201.54 L 43.09 182.85 L 66.14 189.82 L 59.84 201.32 C 59.60 201.76 59.48 202.23 59.47 202.69 C 59.44 204.02 60.32 205.29 61.73 205.66 L 97.36 214.79 Z" fill="#252d49" fill-rule="evenodd" group-id="1,2" id="Fill-25" node-id="25" stroke="none" target-height="42.51059" target-width="55.85701" target-x="41.50692" target-y="182.84833"></path><path d="M 66.14 189.82 L 59.84 201.32 C 59.60 201.76 59.48 202.23 59.47 202.69 C 59.38 202.71 59.28 202.75 59.20 202.78 C 52.56 205.12 47.32 203.94 44.23 202.65 C 43.29 202.25 42.54 201.86 42.03 201.54 L 43.09 182.85 L 66.14 189.82 Z" fill="#1a2135" fill-rule="evenodd" group-id="1,2" id="Fill-27" node-id="26" stroke="none" target-height="22.267197" target-width="24.111599" target-x="42.0324" target-y="182.84839"></path><path d="M 41.73 194.34 L 39.64 200.18 C 32.16 196.78 23.52 199.60 22.19 200.06 C 22.03 200.12 21.86 200.18 21.70 200.22 C 21.47 200.29 21.26 200.35 21.05 200.41 L 22.15 186.77 L 41.73 194.34 Z" fill="#1a2135" fill-rule="evenodd" group-id="1,2" id="Fill-29" node-id="27" stroke="none" target-height="13.640396" target-width="20.678999" target-x="21.0525" target-y="186.77429"></path><path d="M 20.46 19.53 L 0.00 15.89 L 19.33 3.78 L 40.03 0.60 L 28.65 15.98 Z" fill="#1b1e1e" fill-rule="evenodd" group-id="1,2" id="Fill-31" node-id="28" stroke="none" target-height="18.9228" target-width="40.029003" target-x="0.00012" target-y="0.60234"></path><g node-id="99"><g node-id="102"><path d="M 40.03 0.60 L 39.44 1.40 L 35.85 1.95 L 35.15 2.06 L 19.59 4.45 L 1.03 16.08 L 0.00 15.89 L 19.33 3.78 L 35.35 1.32 L 36.04 1.21 Z" fill="#292d2d" fill-rule="evenodd" group-id="1,2,3,6" id="Fill-33" node-id="33" stroke="none" target-height="15.478799" target-width="40.026" target-x="0.00222" target-y="0.59994"></path></g></g><path d="M 11.81 16.65 L 14.92 24.78 C 22.44 23.48 29.65 20.73 36.12 16.68 L 33.02 8.55 C 25.79 8.91 18.82 11.42 13.02 15.75 L 11.81 16.65 Z" fill="#282c2d" fill-rule="evenodd" group-id="1,2" id="Fill-35" node-id="34" stroke="none" target-height="16.224602" target-width="24.3078" target-x="11.81472" target-y="8.55408"></path><path d="M 13.02 15.75 L 11.81 16.65 L 12.19 17.64 L 13.40 16.74 C 19.20 12.41 26.16 9.90 33.40 9.54 L 33.02 8.55 C 25.79 8.91 18.82 11.42 13.02 15.75" fill="#303333" fill-rule="evenodd" group-id="1,2" id="Fill-37" node-id="35" stroke="none" target-height="9.090001" target-width="21.582602" target-x="11.8146" target-y="8.55408"></path><path d="M 32.57 17.01 L 32.37 16.95 L 33.58 12.72 C 33.72 12.22 33.43 11.70 32.93 11.56 C 32.43 11.42 31.91 11.71 31.77 12.20 L 30.56 16.44 L 30.36 16.38 L 31.56 12.15 C 31.74 11.54 32.38 11.18 32.99 11.35 C 33.60 11.53 33.96 12.17 33.78 12.78 L 32.57 17.01 Z" fill="#fccf6b" fill-rule="evenodd" group-id="1,2" id="Fill-39" node-id="36" stroke="none" target-height="5.8331995" target-width="3.6000004" target-x="30.35568" target-y="11.1794405"></path><path d="M 30.95 16.55 L 30.75 16.49 L 32.17 11.51 L 32.38 11.56 Z" fill="#fccf6b" fill-rule="evenodd" group-id="1,2" id="Fill-41" node-id="37" stroke="none" target-height="5.043" target-width="1.6253967" target-x="30.750362" target-y="11.50734"></path><path d="M 31.36 16.67 L 31.16 16.61 L 32.65 11.37 L 32.86 11.43 Z" fill="#fccf6b" fill-rule="evenodd" group-id="1,2" id="Fill-43" node-id="38" stroke="none" target-height="5.2980003" target-width="1.6980019" target-x="31.15878" target-y="11.36898"></path><path d="M 31.77 16.78 L 31.57 16.73 L 33.06 11.48 L 33.27 11.54 Z" fill="#fccf6b" fill-rule="evenodd" group-id="1,2" id="Fill-45" node-id="39" stroke="none" target-height="5.2985992" target-width="1.698" target-x="31.56714" target-y="11.484961"></path><path d="M 32.18 16.90 L 31.98 16.84 L 33.40 11.86 L 33.60 11.91 Z" fill="#fccf6b" fill-rule="evenodd" group-id="1,2" id="Fill-47" node-id="40" stroke="none" target-height="5.0436" target-width="1.6254005" target-x="31.97556" target-y="11.856541"></path><path d="M 99.82 173.61 L 94.23 176.02 C 94.23 176.02 93.59 175.14 92.65 173.86 C 92.20 173.24 91.68 172.51 91.12 171.75 C 91.04 171.62 90.94 171.50 90.85 171.37 C 90.45 170.81 90.03 170.23 89.62 169.66 C 87.53 166.71 85.56 163.83 85.76 163.71 C 86.18 163.47 97.65 162.39 97.65 162.39 C 97.73 162.57 98.25 165.23 98.77 167.91 C 98.76 167.93 98.77 167.93 98.77 167.94 C 98.79 168.07 98.81 168.20 98.84 168.32 C 98.87 168.52 98.91 168.71 98.95 168.90 L 98.95 168.91 C 99.41 171.38 99.82 173.61 99.82 173.61" fill="#ffcca6" fill-rule="evenodd" group-id="1,2" id="Fill-49" node-id="41" stroke="none" target-height="13.627197" target-width="14.268005" target-x="85.55514" target-y="162.39397"></path><path d="M 94.23 176.02 C 93.07 179.06 93.05 183.24 93.32 183.89 L 94.39 186.56 L 96.33 185.32 C 96.49 184.58 95.74 183.58 96.58 183.04 C 97.42 182.49 98.77 183.30 99.05 183.88 C 99.74 185.28 100.88 187.53 99.20 189.44 C 97.33 191.55 98.50 193.61 98.50 193.61 C 98.50 193.61 102.05 191.26 102.45 190.91 C 102.84 190.56 104.61 186.28 104.50 184.42 C 104.40 182.85 101.24 175.98 100.54 174.69 C 100.38 174.40 100.19 174.12 99.98 173.87 C 99.93 173.78 99.88 173.70 99.82 173.60 L 94.23 176.02 Z" fill="#ffcca6" fill-rule="evenodd" group-id="1,2" id="Fill-51" node-id="42" stroke="none" target-height="20.003403" target-width="11.556595" target-x="93.05376" target-y="173.60466"></path><path d="M 24.08 36.64 C 23.93 36.56 23.86 36.39 23.91 36.23 C 23.92 36.21 24.67 33.78 24.03 31.97 L 23.99 31.86 L 24.03 31.75 C 24.04 31.73 24.85 29.15 23.53 27.98 C 23.39 27.85 23.38 27.64 23.50 27.50 C 23.63 27.35 23.85 27.34 23.99 27.47 C 25.48 28.80 24.88 31.29 24.72 31.85 C 25.36 33.87 24.60 36.33 24.57 36.44 C 24.51 36.62 24.32 36.72 24.14 36.66 C 24.12 36.66 24.10 36.65 24.08 36.64" fill="#e8b089" fill-rule="evenodd" group-id="1,2" id="Fill-53" node-id="43" stroke="none" target-height="9.377996" target-width="2.1054" target-x="23.37822" target-y="27.342783"></path><path d="M 25.70 36.80 C 25.56 36.73 25.48 36.57 25.52 36.41 C 25.53 36.39 26.15 33.94 25.43 32.15 L 25.40 32.07 L 25.41 31.99 C 25.41 31.96 25.64 29.50 24.72 28.48 C 24.47 28.21 24.17 28.07 23.78 28.07 C 23.59 28.07 23.44 27.91 23.44 27.72 C 23.44 27.53 23.60 27.38 23.79 27.38 C 24.37 27.38 24.85 27.60 25.23 28.02 C 26.26 29.16 26.14 31.49 26.10 31.97 C 26.86 33.96 26.22 36.48 26.19 36.59 C 26.14 36.77 25.95 36.88 25.77 36.83 C 25.74 36.82 25.72 36.82 25.70 36.80" fill="#e8b089" fill-rule="evenodd" group-id="1,2" id="Fill-55" node-id="44" stroke="none" target-height="9.4998" target-width="3.421198" target-x="23.44074" target-y="27.379679"></path><path d="M 48.04 96.55 C 48.38 95.18 51.91 86.70 56.55 86.48 C 61.18 86.25 65.45 88.36 69.83 92.13 C 74.20 95.91 70.97 103.05 72.88 105.97 C 74.78 108.89 78.86 110.06 79.90 115.02 C 80.94 119.97 74.64 121.96 76.06 126.52 C 77.48 131.08 82.58 130.36 82.72 136.68 C 82.87 143.93 73.75 145.50 78.46 149.66 C 83.66 154.25 80.12 166.16 73.14 170.68 L 44.07 149.42 C 27.61 132.97 48.04 96.55 48.04 96.55" fill="#a55723" fill-rule="evenodd" group-id="1,2" id="Fill-57" node-id="45" stroke="none" target-height="84.4224" target-width="56.047802" target-x="27.614521" target-y="86.25288"></path><path d="M 78.21 172.06 L 75.54 168.17 C 79.70 165.31 82.28 161.27 82.46 157.36 C 82.56 155.05 81.77 153.07 80.22 151.79 C 78.80 150.61 78.05 149.36 77.94 147.99 C 77.76 145.89 79.09 144.36 80.38 142.88 C 81.77 141.27 83.22 139.60 83.11 137.06 C 83.00 134.53 82.04 133.84 80.44 132.69 C 79.00 131.65 77.20 130.36 76.31 127.69 C 75.16 124.26 76.96 121.69 78.40 119.64 C 79.65 117.86 80.40 116.71 80.07 115.32 C 79.52 112.94 78.00 111.73 76.25 110.33 C 75.09 109.41 73.88 108.45 72.97 107.12 C 71.85 105.49 71.65 103.49 71.44 101.37 C 71.17 98.71 70.92 96.19 68.96 94.60 C 65.47 91.79 61.78 90.73 56.99 91.18 L 56.55 86.48 C 62.58 85.91 67.47 87.33 71.93 90.93 C 75.43 93.77 75.84 97.89 76.14 100.90 C 76.28 102.33 76.43 103.82 76.86 104.44 C 77.37 105.19 78.21 105.86 79.19 106.64 C 81.22 108.26 83.75 110.27 84.67 114.26 C 85.49 117.77 83.70 120.31 82.27 122.35 C 80.93 124.25 80.43 125.13 80.78 126.19 C 81.18 127.36 81.91 127.94 83.19 128.85 C 85.07 130.20 87.62 132.04 87.83 136.86 C 88.01 141.28 85.56 144.10 83.94 145.97 C 83.50 146.48 82.86 147.22 82.68 147.60 C 82.75 147.70 82.91 147.88 83.23 148.15 C 85.95 150.41 87.35 153.75 87.18 157.57 C 86.93 162.95 83.58 168.37 78.21 172.06" fill="#a55723" fill-rule="evenodd" group-id="1,2" id="Fill-59" node-id="46" stroke="none" target-height="86.14561" target-width="31.4688" target-x="56.545322" target-y="85.911415"></path><path d="M 60.83 104.37 C 60.83 104.37 59.88 104.48 60.05 104.99 C 60.21 105.49 63.04 112.27 63.04 112.27 L 59.14 113.08 L 58.24 104.17 L 58.79 103.72 L 59.78 103.90 L 60.83 104.37 Z" fill="#7f4016" fill-rule="evenodd" group-id="1,2" id="Fill-61" node-id="47" stroke="none" target-height="9.363594" target-width="4.803009" target-x="58.238216" target-y="103.71918"></path><path d="M 59.25 104.19 L 61.18 111.27 L 60.95 113.10 L 57.71 120.82 L 54.32 124.45 C 54.32 124.45 47.75 122.76 48.02 122.59 C 48.28 122.41 47.44 117.10 47.56 116.80 C 47.67 116.49 49.83 113.27 49.83 113.27 L 49.92 110.49 L 47.61 104.21" fill="#ffcca6" fill-rule="evenodd" group-id="1,2" id="Fill-63" node-id="48" stroke="none" target-height="20.25541" target-width="13.7472" target-x="47.43702" target-y="104.19372"></path><path d="M 59.25 104.19 L 60.19 107.63 C 54.52 108.37 48.20 105.15 47.66 104.42 C 47.58 104.31 47.55 104.26 47.55 104.26 L 47.82 104.26 L 54.37 104.17 L 59.25 104.19 Z" fill="#e8b089" fill-rule="evenodd" group-id="1,2" id="Fill-65" node-id="49" stroke="none" target-height="4.2042007" target-width="12.645004" target-x="47.54562" target-y="104.16911"></path><path d="M 66.82 112.66 L 52.72 127.44 C 49.79 125.47 48.08 123.08 47.66 120.30 C 47.06 116.29 49.16 112.22 50.81 109.74 L 51.45 111.77 L 51.58 112.21 L 52.65 115.58 C 53.08 116.95 54.82 117.38 55.84 116.36 L 61.08 111.15 L 64.80 112.13 L 65.15 112.22 L 66.82 112.66 Z" fill="#f9f9f9" fill-rule="evenodd" group-id="1,2" id="Fill-67" node-id="50" stroke="none" target-height="17.69461" target-width="19.769398" target-x="47.055485" target-y="109.74149"></path><path d="M 93.02 202.31 C 93.05 203.67 92.73 204.65 92.13 205.33 C 88.95 209.05 77.99 203.82 75.51 202.57 C 75.14 202.39 74.78 202.21 74.39 202.07 C 68.31 199.73 63.20 200.15 61.01 200.50 C 60.39 200.60 59.79 200.77 59.20 200.98 C 52.56 203.32 47.32 202.14 44.23 200.85 C 43.26 200.44 42.49 200.03 41.97 199.71 C 41.43 199.38 41.14 199.15 41.14 199.15 C 33.37 194.59 23.61 197.76 22.19 198.26 C 22.03 198.32 21.86 198.38 21.70 198.42 C 16.52 200.00 15.30 198.67 15.03 197.78 C 14.94 197.45 15.00 197.10 15.16 196.79 C 15.24 196.64 15.31 196.48 15.38 196.32 C 16.67 193.22 14.95 189.71 11.76 188.65 C 5.88 186.69 3.77 183.34 3.13 180.53 C 2.52 177.89 3.20 175.73 3.20 175.73 C 40.43 170.67 34.75 148.85 34.75 148.85 C 27.07 130.65 36.49 117.61 36.49 117.61 L 22.41 90.01 L 22.41 56.87 L 41.14 56.87 L 39.46 86.42 L 49.69 106.87 L 50.27 108.03 L 50.81 109.74 C 49.15 112.22 47.05 116.29 47.66 120.30 C 48.08 123.08 49.79 125.47 52.72 127.43 L 66.82 112.66 L 69.65 113.41 L 71.14 113.81 C 73.46 114.41 75.43 115.93 76.61 118.01 L 104.31 166.86 L 82.76 170.96 L 80.29 171.43 C 82.86 154.75 69.81 138.22 66.92 134.80 C 66.60 134.42 66.06 134.30 65.61 134.51 C 65.19 134.70 64.96 135.11 64.96 135.52 C 64.96 135.76 65.03 135.99 65.19 136.19 C 68.28 140.08 70.34 149.25 71.36 154.91 C 71.87 157.68 71.95 160.51 71.66 163.31 C 70.15 177.67 73.50 184.56 75.34 187.17 C 75.89 187.96 76.69 188.55 77.60 188.86 C 92.34 193.95 93.02 202.31 93.02 202.31" fill="#32393a" fill-rule="evenodd" group-id="1,2" id="Fill-69" node-id="51" stroke="none" target-height="152.181" target-width="101.787" target-x="2.51892" target-y="56.8731"></path><path d="M 69.65 113.41 L 54.20 129.60 C 54.18 135.28 53.78 179.75 44.23 200.85 C 43.26 200.44 42.50 200.03 41.98 199.71 C 51.01 179.66 51.60 135.86 51.63 129.79 C 47.86 127.38 45.67 124.32 45.12 120.67 C 44.26 114.86 47.86 109.27 49.69 106.87 L 50.27 108.03 L 50.81 109.74 C 49.16 112.22 47.06 116.29 47.66 120.30 C 48.08 123.08 49.79 125.47 52.72 127.44 L 66.82 112.66 L 69.65 113.41 Z" fill="#fccf6b" fill-rule="evenodd" group-id="1,2" id="Fill-71" node-id="52" stroke="none" target-height="93.98041" target-width="27.671997" target-x="41.97708" target-y="106.8723"></path><path d="M 42.27 199.59 C 51.30 179.54 51.89 135.74 51.93 129.67 C 48.15 127.26 45.96 124.20 45.41 120.55 C 44.58 114.94 47.89 109.56 49.77 107.03 L 49.69 106.87 C 47.86 109.27 44.26 114.86 45.13 120.67 C 45.68 124.32 47.87 127.38 51.64 129.79 C 51.61 135.86 51.01 179.66 41.98 199.71 C 42.50 200.03 43.26 200.44 44.24 200.85 C 44.27 200.78 44.30 200.71 44.33 200.65 C 43.45 200.27 42.75 199.89 42.27 199.59" fill="#e2b252" fill-rule="evenodd" group-id="1,2" id="Fill-73" node-id="53" stroke="none" target-height="93.980995" target-width="9.9426" target-x="41.9838" target-y="106.87211"></path><path d="M 65.15 112.22 L 52.90 125.59 L 52.79 125.51 C 47.11 121.70 50.12 114.37 51.45 111.77 L 51.58 112.21 C 50.24 114.93 47.73 121.61 52.86 125.17 L 64.80 112.13 L 65.15 112.22 Z" fill="#32393a" fill-rule="evenodd" group-id="1,2" id="Fill-75" node-id="54" stroke="none" target-height="13.819801" target-width="18.046803" target-x="47.10696" target-y="111.77165"></path><path d="M 61.73 103.39 C 61.79 104.97 59.25 104.19 59.25 104.19 C 57.24 105.86 49.38 106.23 47.60 104.21 C 46.72 103.21 47.19 100.09 48.13 97.24 C 48.40 96.42 48.71 95.62 49.03 94.91 C 49.45 93.95 49.92 93.13 50.36 92.58 C 52.34 90.12 56.85 86.88 59.85 90.16 C 61.70 92.20 60.69 94.96 58.99 97.55 C 56.94 100.69 59.59 102.47 59.59 102.47 C 59.59 102.47 61.67 101.80 61.73 103.39" fill="#ffcca6" fill-rule="evenodd" group-id="1,2" id="Fill-77" node-id="55" stroke="none" target-height="19.352997" target-width="15.069603" target-x="46.7199" target-y="86.87658"></path><g node-id="100"><g node-id="104"><path d="M 110.06 249.32 L 118.57 218.13 C 118.02 217.96 117.50 217.83 116.99 217.71 L 108.52 248.78 C 109.01 249.02 109.53 249.20 110.06 249.32" fill="#1f5684" fill-rule="evenodd" group-id="1,2,4,8" id="Fill-79" node-id="60" stroke="none" target-height="31.606812" target-width="10.051201" target-x="108.51744" target-y="217.71367"></path></g></g><path d="M 103.56 217.36 C 106.94 218.40 109.99 215.70 117.02 217.62 L 108.51 248.81 C 108.51 248.81 102.49 247.65 102.83 241.04 C 103.17 234.43 102.90 228.27 100.90 227.11 L 103.56 217.36 Z" fill="#0c3863" fill-rule="evenodd" group-id="1,2" id="Fill-81" node-id="61" stroke="none" target-height="33.106186" target-width="16.117195" target-x="100.90212" target-y="215.70032"></path><path d="M 107.40 229.06 C 107.30 228.82 107.03 228.69 106.77 228.77 L 101.94 230.41 C 101.68 230.49 101.54 230.78 101.63 231.04 C 101.72 231.30 102.00 231.44 102.26 231.35 L 107.09 229.72 C 107.36 229.63 107.50 229.35 107.41 229.09 C 107.40 229.08 107.40 229.07 107.40 229.06" fill="#1f5684" fill-rule="evenodd" group-id="1,2" id="Fill-83" node-id="62" stroke="none" target-height="2.7516022" target-width="5.9525986" target-x="101.54274" target-y="228.68863"></path><path d="M 106.99 231.33 C 106.89 231.09 106.62 230.96 106.37 231.04 L 102.03 232.48 C 101.77 232.56 101.63 232.85 101.71 233.11 C 101.80 233.37 102.08 233.51 102.34 233.43 L 106.68 231.99 C 106.94 231.91 107.09 231.62 107.00 231.36 C 107.00 231.35 106.99 231.34 106.99 231.33" fill="#1f5684" fill-rule="evenodd" group-id="1,2" id="Fill-85" node-id="63" stroke="none" target-height="2.5488281" target-width="5.459999" target-x="101.62518" target-y="230.96262"></path><path d="M 106.58 233.60 C 106.48 233.36 106.21 233.24 105.96 233.32 L 102.12 234.55 C 101.85 234.63 101.71 234.91 101.79 235.17 C 101.87 235.44 102.16 235.58 102.42 235.50 L 106.27 234.27 C 106.53 234.18 106.67 233.90 106.59 233.64 C 106.59 233.63 106.58 233.61 106.58 233.60" fill="#1f5684" fill-rule="evenodd" group-id="1,2" id="Fill-87" node-id="64" stroke="none" target-height="2.3453827" target-width="4.9656067" target-x="101.70821" target-y="233.23668"></path><path d="M 59.39 95.03 C 59.37 95.03 59.35 95.03 59.33 95.02 C 59.32 95.01 57.56 94.32 56.73 94.85 C 56.65 94.90 56.55 94.88 56.51 94.80 C 56.46 94.73 56.48 94.63 56.55 94.58 C 57.53 93.96 59.38 94.69 59.45 94.72 C 59.54 94.75 59.58 94.85 59.54 94.93 C 59.52 94.99 59.46 95.03 59.39 95.03" fill="#dd996b" fill-rule="evenodd" group-id="1,2" id="Fill-89" node-id="65" stroke="none" target-height="1.0734024" target-width="3.118801" target-x="56.457" target-y="93.956276"></path><path d="M 53.69 93.83 C 53.64 93.83 53.59 93.80 53.56 93.75 C 53.55 93.74 52.72 92.36 51.31 92.50 C 51.23 92.51 51.15 92.45 51.14 92.36 C 51.13 92.27 51.19 92.19 51.28 92.18 C 52.89 92.02 53.80 93.52 53.83 93.59 C 53.88 93.66 53.85 93.76 53.78 93.81 C 53.75 93.82 53.72 93.83 53.69 93.83" fill="#dd996b" fill-rule="evenodd" group-id="1,2" id="Fill-91" node-id="66" stroke="none" target-height="1.8078003" target-width="2.7486" target-x="51.129" target-y="92.02128"></path><path d="M 57.31 98.22 C 57.23 98.22 57.16 98.20 57.10 98.15 C 57.03 98.09 57.00 98.03 56.97 97.93 C 56.85 97.63 56.51 96.72 55.62 96.69 C 55.44 96.69 55.30 96.54 55.30 96.37 C 55.31 96.19 55.45 96.05 55.63 96.05 C 56.51 96.08 57.16 96.63 57.57 97.70 L 57.56 97.71 C 57.65 97.83 57.65 98.00 57.55 98.11 C 57.48 98.19 57.39 98.22 57.31 98.22" fill="#ce783e" fill-rule="evenodd" group-id="1,2" id="Fill-93" node-id="67" stroke="none" target-height="2.1744003" target-width="2.349594" target-x="55.29996" target-y="96.0504"></path><path d="M 52.75 95.20 C 52.66 95.20 52.57 95.16 52.51 95.08 C 52.48 95.04 51.79 94.22 50.78 94.53 C 50.61 94.58 50.43 94.48 50.38 94.32 C 50.32 94.15 50.42 93.97 50.59 93.92 C 52.02 93.48 52.96 94.63 53.00 94.68 C 53.11 94.81 53.09 95.01 52.95 95.13 C 52.90 95.17 52.82 95.20 52.75 95.20" fill="#ce783e" fill-rule="evenodd" group-id="1,2" id="Fill-95" node-id="68" stroke="none" target-height="1.7184219" target-width="2.7911987" target-x="50.32296" target-y="93.477646"></path><path d="M 52.00 97.45 C 51.94 97.67 52.08 97.89 52.30 97.94 C 52.52 97.99 52.74 97.86 52.79 97.64 C 52.84 97.42 52.71 97.20 52.49 97.15 C 52.27 97.09 52.05 97.23 52.00 97.45" fill="#ce783e" fill-rule="evenodd" group-id="1,2" id="Fill-97" node-id="69" stroke="none" target-height="0.8987961" target-width="0.8988037" target-x="51.94314" target-y="97.0944"></path><path d="M 52.82 100.99 C 52.77 101.06 52.71 101.13 52.65 101.19 C 52.00 101.83 50.98 102.00 50.14 101.54 C 49.31 101.07 48.90 100.14 49.10 99.26 C 49.11 99.16 49.14 99.07 49.17 98.98 C 49.22 98.81 49.42 98.73 49.58 98.81 L 52.74 100.56 C 52.90 100.64 52.93 100.85 52.82 100.99" fill="#e9443b" fill-rule="evenodd" group-id="1,2" id="Fill-99" node-id="70" stroke="none" target-height="3.2736053" target-width="4.035" target-x="48.89748" target-y="98.72957"></path><path d="M 54.36 101.02 C 54.36 102.02 55.18 102.84 56.19 102.84 C 57.20 102.84 58.02 102.02 58.02 101.02 C 58.02 100.01 57.20 99.19 56.19 99.19 C 55.18 99.19 54.36 100.01 54.36 101.02" fill="#ffbbbb" fill-rule="evenodd" group-id="1,2" id="Fill-101" node-id="71" stroke="none" target-height="3.6521912" target-width="3.6521988" target-x="54.36492" target-y="99.18978"></path><path d="M 49.59 95.96 C 49.59 96.68 49.01 97.26 48.30 97.26 C 48.24 97.26 48.18 97.25 48.13 97.24 C 48.40 96.43 48.71 95.62 49.03 94.91 C 49.37 95.13 49.59 95.52 49.59 95.96" fill="#ffbbbb" fill-rule="evenodd" group-id="1,2" id="Fill-103" node-id="72" stroke="none" target-height="2.3507996" target-width="1.4603996" target-x="48.12912" target-y="94.90643"></path><path d="M 60.61 104.06 C 60.57 104.06 60.53 104.04 60.49 104.00 C 60.43 103.94 60.44 103.83 60.51 103.78 C 60.57 103.72 60.73 103.54 60.71 103.36 C 60.70 103.23 60.59 103.10 60.38 102.98 C 60.31 102.94 60.28 102.84 60.33 102.76 C 60.37 102.68 60.47 102.66 60.55 102.70 C 60.84 102.88 61.01 103.09 61.03 103.33 C 61.07 103.71 60.73 104.01 60.72 104.02 C 60.69 104.05 60.65 104.06 60.61 104.06" fill="#dd996b" fill-rule="evenodd" group-id="1,2" id="Fill-105" node-id="73" stroke="none" target-height="1.3991928" target-width="0.78419495" target-x="60.281525" target-y="102.658554"></path><path d="M 60.21 103.61 C 60.18 103.61 60.16 103.60 60.13 103.59 C 60.05 103.54 60.02 103.45 60.07 103.37 C 60.15 103.21 60.28 103.15 60.36 103.13 C 60.59 103.08 60.79 103.22 60.81 103.24 C 60.88 103.29 60.90 103.39 60.85 103.47 C 60.79 103.54 60.69 103.55 60.62 103.50 C 60.59 103.47 60.49 103.43 60.43 103.44 C 60.42 103.44 60.39 103.45 60.35 103.52 C 60.32 103.57 60.26 103.61 60.21 103.61" fill="#dd996b" fill-rule="evenodd" group-id="1,2" id="Fill-107" node-id="74" stroke="none" target-height="0.5279999" target-width="0.87480164" target-x="60.0243" target-y="103.077415"></path><path d="M 52.82 100.99 C 52.77 101.06 52.71 101.13 52.65 101.19 L 49.10 99.26 C 49.11 99.16 49.14 99.07 49.17 98.98 C 49.22 98.81 49.42 98.73 49.58 98.81 L 52.74 100.56 C 52.90 100.64 52.93 100.85 52.82 100.99" fill="#ffffff" fill-rule="evenodd" group-id="1,2" id="Fill-109" node-id="75" stroke="none" target-height="2.4600067" target-width="3.836399" target-x="49.09608" target-y="98.72957"></path><path d="M 36.04 1.21 L 35.85 1.95 L 33.24 11.63 L 32.62 11.47 L 35.15 2.06 L 35.35 1.32 Z" fill="#fccf6b" fill-rule="evenodd" group-id="1,2" id="Fill-111" node-id="76" stroke="none" target-height="10.419001" target-width="3.4193993" target-x="32.625" target-y="1.21464"></path><path d="M 38.89 148.80 C 46.77 162.56 24.34 181.32 3.13 180.53 C 2.52 177.89 3.20 175.73 3.20 175.73 C 40.42 170.67 34.75 148.86 34.75 148.86 C 27.07 130.65 36.49 117.61 36.49 117.61 L 22.41 90.01 L 22.41 56.87 L 25.13 56.87 L 25.13 89.96 L 40.74 119.26 C 40.74 119.26 30.33 133.83 38.89 148.80" fill="#2d3333" fill-rule="evenodd" group-id="1,2" id="Fill-113" node-id="77" stroke="none" target-height="124.4514" target-width="44.253" target-x="2.5188" target-y="56.8728"></path><path d="M 36.04 56.87 L 26.48 56.87 L 26.48 56.85 C 27.61 56.66 33.39 55.60 35.78 55.16 L 36.04 56.87 Z" fill="#e8b089" fill-rule="evenodd" group-id="1,2" id="Fill-115" node-id="78" stroke="none" target-height="1.7099991" target-width="9.562199" target-x="26.476322" target-y="55.1628"></path><path d="M 98.77 167.91 C 98.76 167.93 98.77 167.93 98.77 167.94 C 98.16 168.25 94.02 170.33 91.12 171.75 C 91.04 171.62 90.94 171.50 90.85 171.37 C 90.45 170.81 90.03 170.23 89.62 169.66 L 98.77 167.91 Z" fill="#e8b089" fill-rule="evenodd" group-id="1,2" id="Fill-117" node-id="79" stroke="none" target-height="3.8363953" target-width="9.145203" target-x="89.62146" target-y="167.91385"></path><path d="M 52.79 127.24 C 49.86 125.27 48.15 122.89 47.73 120.11 C 47.43 118.15 47.78 116.19 48.41 114.40 C 47.74 116.24 47.35 118.28 47.66 120.30 C 48.08 123.08 49.79 125.47 52.72 127.44 L 66.83 112.66 L 66.73 112.64 L 52.79 127.24 Z" fill="#dddbd7" fill-rule="evenodd" group-id="1,2" id="Fill-119" node-id="80" stroke="none" target-height="14.799599" target-width="19.471794" target-x="47.353325" target-y="112.636375"></path><path d="M 93.02 202.31 C 93.05 203.67 92.73 204.65 92.13 205.33 C 89.31 200.43 81.28 195.39 73.26 190.99 C 66.10 187.05 65.97 177.10 66.44 171.88 C 66.59 170.23 67.03 168.63 67.58 167.07 C 70.45 158.86 65.60 141.24 64.15 136.33 C 63.91 135.55 64.21 134.71 64.88 134.24 C 65.63 133.71 66.64 133.81 67.30 134.45 C 82.10 148.89 82.84 166.45 82.76 170.96 L 80.29 171.43 C 82.86 154.75 69.81 138.22 66.92 134.80 C 66.60 134.42 66.06 134.30 65.61 134.51 C 65.19 134.70 64.96 135.11 64.96 135.52 C 64.96 135.76 65.03 135.99 65.19 136.19 C 68.28 140.08 70.34 149.25 71.36 154.91 C 71.87 157.68 71.95 160.51 71.66 163.31 C 70.15 177.67 73.50 184.56 75.34 187.17 C 75.89 187.96 76.69 188.55 77.60 188.86 C 92.34 193.95 93.02 202.31 93.02 202.31" fill="#2d3333" fill-rule="evenodd" group-id="1,2" id="Fill-121" node-id="81" stroke="none" target-height="71.61301" target-width="29.1348" target-x="63.91332" target-y="133.7139"></path></g></g></svg>