<?xml version="1.0" standalone="no"?><!DOCTYPE svg PUBLIC "-//W3C//DTD SVG 1.1//EN" "http://www.w3.org/Graphics/SVG/1.1/DTD/svg11.dtd"><svg height="1024" node-id="1" sillyvg="true" template-height="1024" template-width="1024" version="1.1" viewBox="0 0 1024 1024" width="1024" xmlns="http://www.w3.org/2000/svg" xmlns:xlink="http://www.w3.org/1999/xlink"><defs node-id="150"></defs><g node-id="503"><g node-id="554"><path d="M 969.48 708.77 C 949.93 763.53 898.87 824.40 856.62 862.07 C 815.33 898.86 740.65 904.34 684.85 922.16 C 632.72 938.81 575.20 888.20 516.36 886.12 C 461.76 884.18 403.48 925.22 347.88 905.36 C 292.29 885.51 274.11 815.61 230.63 782.52 C 183.79 746.87 64.36 777.97 34.58 732.05 C 2.71 682.90 43.73 595.73 35.10 541.10 C 26.28 485.20 16.40 430.06 35.96 375.30 C 55.52 320.53 62.77 244.48 105.01 206.82 C 146.31 170.03 223.75 174.46 279.56 156.63 C 331.68 139.98 389.10 87.20 447.95 89.30 C 502.54 91.23 551.44 160.05 607.02 179.91 C 662.61 199.76 740.20 182.55 783.68 215.64 C 830.51 251.30 812.14 345.01 841.90 390.94 C 873.78 440.09 980.67 462.45 989.29 517.09 C 998.13 572.99 989.05 654.00 969.48 708.77 Z" fill="#d1cbbd" fill-opacity="0.37" fill-rule="nonzero" group-id="1,52" node-id="157" stroke="none" target-height="851.6129" target-width="995.426" target-x="2.708" target-y="87.2"></path></g></g><g node-id="504"><g node-id="555"><path d="M 696.81 1002.39 L 238.37 1002.39 C 235.07 1002.39 232.39 999.72 232.39 996.42 C 232.39 993.11 235.07 990.44 238.37 990.44 L 696.81 990.44 C 700.11 990.44 702.79 993.11 702.79 996.42 C 702.79 999.72 700.11 1002.39 696.81 1002.39 Z" fill="#6e6e96" fill-opacity="0.21" fill-rule="nonzero" group-id="2,53" node-id="164" stroke="none" target-height="11.957947" target-width="470.40094" target-x="232.39201" target-y="990.4371"></path></g></g><g node-id="505"><path d="M 235.05 781.88 C 232.40 781.73 229.81 781.95 227.31 782.41 C 221.23 772.89 210.84 766.33 198.71 765.65 C 185.44 764.90 173.46 771.38 166.51 781.66 C 165.26 781.30 163.94 781.04 162.56 780.97 C 152.58 780.39 144.04 788.03 143.47 798.01 C 142.91 808.00 150.54 816.54 160.53 817.11 C 161.53 817.18 162.52 817.08 163.50 816.99 C 168.91 828.94 180.61 837.57 194.62 838.34 C 199.88 838.64 204.95 837.77 209.57 836.01 C 215.05 841.94 222.74 845.84 231.43 846.33 C 249.22 847.33 264.46 833.72 265.47 815.92 C 266.47 798.12 252.85 782.88 235.05 781.88 Z" fill="#ffbf00" fill-rule="nonzero" group-id="3" node-id="170" stroke="none" target-height="82.422" target-width="123.56198" target-x="142.906" target-y="764.904"></path><path d="M 233.26 848.37 C 233.26 848.37 233.26 848.37 233.26 848.37 C 232.62 848.37 231.97 848.36 231.31 848.32 C 222.87 847.84 215.00 844.31 209.03 838.33 C 204.36 839.93 199.49 840.63 194.51 840.33 C 180.66 839.57 168.44 831.47 162.29 819.09 C 161.66 819.13 161.03 819.15 160.40 819.10 C 149.35 818.47 140.86 808.96 141.48 797.90 C 142.11 786.88 151.53 778.34 162.68 778.98 C 163.66 779.03 164.66 779.17 165.67 779.39 C 173.33 768.90 185.69 762.90 198.83 763.66 C 210.64 764.32 221.55 770.49 228.26 780.23 C 230.62 779.88 232.89 779.75 235.16 779.89 C 254.03 780.95 268.52 797.17 267.46 816.03 C 266.43 834.17 251.41 848.37 233.26 848.37 Z M 209.57 834.02 C 210.12 834.02 210.65 834.24 211.03 834.66 C 216.40 840.46 223.68 843.90 231.54 844.34 C 248.27 845.25 262.54 832.41 263.48 815.81 C 264.41 799.14 251.61 784.81 234.94 783.87 C 232.56 783.74 230.17 783.91 227.68 784.37 C 226.87 784.53 226.07 784.18 225.63 783.49 C 219.69 774.18 209.59 768.26 198.60 767.64 C 186.37 766.97 174.95 772.72 168.16 782.78 C 167.68 783.49 166.78 783.80 165.96 783.58 C 164.76 783.23 163.58 783.02 162.45 782.96 C 153.52 782.41 145.96 789.29 145.46 798.13 C 144.96 806.99 151.77 814.61 160.64 815.12 L 161.22 815.14 C 161.90 815.14 162.58 815.07 163.25 815.01 C 164.10 814.89 164.96 815.39 165.31 816.16 C 170.63 827.91 181.90 835.65 194.73 836.35 C 199.59 836.62 204.33 835.88 208.86 834.15 C 209.09 834.06 209.33 834.02 209.57 834.02 Z" fill="#6e6e96" fill-rule="nonzero" group-id="3" node-id="172" stroke="none" target-height="85.47504" target-width="127.66" target-x="140.857" target-y="762.899"></path></g><g node-id="506"><path d="M 216.30 807.96 C 293.90 812.34 265.71 682.68 278.56 618.88 C 309.02 467.42 393.95 423.09 342.53 406.90 C 291.10 390.71 196.61 491.26 161.76 602.01 C 126.90 712.76 99.05 801.36 216.30 807.96 Z" fill="#eb6e6e" fill-rule="nonzero" group-id="4" node-id="177" stroke="none" target-height="421.62897" target-width="294.896" target-x="99.052" target-y="390.708"></path><path d="M 220.07 810.06 C 219.00 810.05 217.51 810.02 216.19 809.95 C 179.06 807.86 154.59 797.56 141.39 778.46 C 115.79 741.42 136.21 676.54 159.85 601.40 C 191.92 499.52 275.02 403.19 330.84 403.19 C 335.18 403.19 339.31 403.79 343.13 405.00 C 352.34 407.90 357.60 411.76 359.69 417.16 C 363.70 427.50 355.61 441.43 342.20 464.50 C 323.59 496.52 295.47 544.91 280.51 619.28 C 276.94 637.00 276.58 659.71 276.19 683.75 C 275.23 742.96 274.14 810.06 220.07 810.06 Z M 330.84 407.17 C 277.51 407.17 194.70 503.97 163.66 602.60 C 140.32 676.74 120.18 740.76 144.67 776.19 C 157.13 794.22 180.59 803.96 216.41 805.97 C 217.65 806.04 218.88 806.08 220.06 806.08 C 220.06 806.08 220.07 806.08 220.07 806.08 C 270.23 806.08 271.23 743.86 272.20 683.69 C 272.59 659.46 272.96 636.57 276.60 618.49 C 291.69 543.48 320.01 494.74 338.75 462.49 C 351.12 441.21 359.29 427.15 355.97 418.60 C 354.35 414.42 349.89 411.31 341.93 408.80 C 338.50 407.72 334.77 407.17 330.84 407.17 Z" fill="#6e6e96" fill-rule="nonzero" group-id="4" node-id="179" stroke="none" target-height="406.877" target-width="247.91" target-x="115.788" target-y="403.187"></path></g><g node-id="507"><path d="M 278.56 618.88 C 268.45 669.17 283.80 760.35 252.74 794.59 C 153.30 809.47 217.88 575.97 247.74 514.72 C 261.86 523.05 275.21 546.13 283.69 596.34" fill="#c90000" fill-rule="nonzero" group-id="5" node-id="184" stroke="none" target-height="294.75397" target-width="130.49802" target-x="153.297" target-y="514.715"></path><path d="M 244.03 797.26 C 230.28 797.26 219.40 791.93 211.63 781.33 C 190.71 752.81 196.70 692.38 205.40 646.72 C 215.61 593.14 233.53 539.32 245.95 513.84 C 246.19 513.34 246.63 512.97 247.16 512.81 C 247.70 512.64 248.27 512.72 248.75 513.00 C 265.61 522.95 278.03 550.88 285.65 596.00 C 285.83 597.09 285.10 598.12 284.02 598.30 C 282.91 598.49 281.90 597.75 281.72 596.67 C 274.60 554.47 263.45 527.90 248.56 517.61 C 224.85 568.02 178.41 729.30 214.84 778.97 C 223.18 790.33 235.59 794.94 251.74 792.72 C 270.78 771.02 271.51 726.60 272.21 683.63 C 272.60 659.43 272.98 636.56 276.61 618.49 C 276.83 617.41 277.87 616.70 278.96 616.93 C 280.04 617.15 280.73 618.20 280.52 619.28 C 276.96 636.99 276.58 659.67 276.19 683.70 C 275.47 727.76 274.73 773.31 254.22 795.93 C 253.91 796.27 253.49 796.49 253.04 796.56 C 249.91 797.03 246.91 797.26 244.03 797.26 Z" fill="#6e6e96" fill-rule="nonzero" group-id="5" node-id="186" stroke="none" target-height="284.62" target-width="107.42297" target-x="178.41202" target-y="512.644"></path></g><g node-id="508"><path d="M 262.23 529.66 C 270.68 542.79 278.20 563.86 283.69 596.34 L 278.57 618.88 C 268.90 666.96 282.46 752.33 256.57 789.68 C 242.24 751.83 234.96 701.53 238.04 646.77 C 240.52 602.83 249.31 562.50 262.23 529.66 Z" fill="#ad0000" fill-rule="nonzero" group-id="6" node-id="191" stroke="none" target-height="260.016" target-width="48.73401" target-x="234.957" target-y="529.664"></path><path d="M 256.57 791.67 C 256.50 791.67 256.41 791.67 256.33 791.66 C 255.60 791.57 254.97 791.08 254.71 790.38 C 239.69 750.73 233.06 699.69 236.06 646.66 C 238.46 603.97 246.87 563.26 260.37 528.94 C 260.65 528.24 261.29 527.75 262.03 527.68 C 262.80 527.63 263.50 527.96 263.90 528.59 C 273.23 543.07 280.55 565.76 285.66 596.00 C 285.70 596.26 285.69 596.52 285.63 596.77 L 280.51 619.32 C 276.96 636.98 276.58 659.66 276.19 683.67 C 275.51 724.57 274.81 766.87 258.21 790.82 C 257.84 791.36 257.22 791.67 256.57 791.67 Z M 262.63 534.17 C 250.12 567.30 242.32 606.17 240.03 646.88 C 237.17 697.71 243.21 746.64 257.06 785.23 C 270.91 761.72 271.57 722.04 272.20 683.61 C 272.60 659.41 272.98 636.55 276.61 618.49 L 281.66 596.28 C 277.04 569.07 270.64 548.21 262.63 534.17 Z" fill="#6e6e96" fill-rule="nonzero" group-id="6" node-id="193" stroke="none" target-height="264.04498" target-width="52.634003" target-x="233.065" target-y="527.627"></path></g><g node-id="509"><path d="M 748.43 680.29 C 748.43 826.62 633.35 893.54 471.75 893.54 C 310.13 893.54 174.93 824.37 174.93 678.04 C 174.93 531.72 310.13 363.63 471.75 363.63 C 633.35 363.63 748.43 533.96 748.43 680.29 Z" fill="#eb6e6e" fill-rule="nonzero" group-id="7" node-id="198" stroke="none" target-height="529.9121" target-width="573.4971" target-x="174.93399" target-y="363.626"></path><path d="M 471.75 895.53 C 387.12 895.53 314.46 877.13 261.64 842.33 C 203.61 804.10 172.94 747.28 172.94 678.04 C 172.94 534.73 306.23 361.63 471.75 361.63 C 631.25 361.64 750.42 529.88 750.42 680.29 C 750.42 817.08 648.85 895.53 471.75 895.53 Z M 471.75 365.62 C 308.44 365.62 176.93 536.53 176.93 678.04 C 176.93 745.88 206.98 801.54 263.83 839.00 C 316.00 873.38 387.90 891.54 471.75 891.54 C 646.32 891.54 746.44 814.55 746.44 680.29 C 746.44 531.76 628.96 365.63 471.75 365.62 Z" fill="#6e6e96" fill-rule="nonzero" group-id="7" node-id="200" stroke="none" target-height="533.896" target-width="577.484" target-x="172.94098" target-y="361.634"></path></g><g node-id="510"><path d="M 442.62 610.28 C 364.97 610.28 300.73 508.57 300.73 456.66 C 300.73 415.54 338.93 412.10 378.05 412.10 C 387.49 412.10 397.39 412.36 407.87 412.63 C 419.11 412.93 430.74 413.23 442.62 413.23 L 445.08 413.23 C 517.58 413.23 607.82 413.23 607.82 468.24 C 607.81 523.04 517.62 610.28 442.62 610.28 Z M 378.05 416.09 C 331.60 416.09 304.71 422.73 304.71 456.66 C 304.71 483.33 321.05 520.44 346.34 551.20 C 375.12 586.22 410.22 606.29 442.62 606.29 C 515.81 606.29 603.83 521.50 603.83 468.24 C 603.83 417.22 515.80 417.22 445.08 417.22 L 442.62 417.22 C 430.69 417.22 419.04 416.92 407.77 416.62 C 397.31 416.35 387.43 416.09 378.05 416.09 Z" fill="#6e6e96" fill-rule="nonzero" group-id="8" node-id="205" stroke="none" target-height="198.17902" target-width="307.089" target-x="300.726" target-y="412.102"></path></g><g node-id="511"><path d="M 437.59 567.09 C 477.04 567.09 509.02 599.07 509.02 638.51 C 509.02 677.97 477.04 709.94 437.59 709.94 C 398.14 709.94 366.17 677.97 366.17 638.51 C 366.17 599.07 398.14 567.09 437.59 567.09 Z" fill="#6e6e96" fill-opacity="0.15" fill-rule="nonzero" group-id="9" node-id="210" stroke="none" target-height="142.84998" target-width="142.85098" target-x="366.167" target-y="567.092"></path></g><g node-id="512"><path d="M 456.30 459.97 C 456.30 487.05 403.36 509.00 338.05 509.00 C 272.73 509.00 219.78 504.43 219.78 459.97 C 219.78 419.72 272.73 410.95 338.05 410.95 C 403.36 410.95 456.30 432.90 456.30 459.97 Z" fill="#eb6e6e" fill-rule="nonzero" group-id="10" node-id="215" stroke="none" target-height="98.04599" target-width="236.52003" target-x="219.782" target-y="410.95"></path><path d="M 338.05 510.99 C 274.67 510.99 217.79 507.09 217.79 459.97 C 217.79 414.75 282.06 408.96 338.05 408.96 C 405.48 408.96 458.30 431.37 458.30 459.97 C 458.30 488.58 405.48 510.99 338.05 510.99 Z M 338.05 412.94 C 257.63 412.94 221.78 427.45 221.78 459.97 C 221.78 499.31 264.41 507.00 338.05 507.00 C 402.15 507.00 454.31 485.90 454.31 459.97 C 454.31 434.04 402.15 412.94 338.05 412.94 Z" fill="#6e6e96" fill-rule="nonzero" group-id="10" node-id="217" stroke="none" target-height="102.03201" target-width="240.506" target-x="217.79" target-y="408.957"></path></g><g node-id="513"><path d="M 477.47 428.63 C 477.47 460.03 424.52 485.49 359.21 485.49 C 293.89 485.49 240.94 480.18 240.94 428.63 C 240.94 381.94 293.89 371.75 359.21 371.75 C 424.52 371.76 477.47 397.23 477.47 428.63 Z" fill="#eb6e6e" fill-rule="nonzero" group-id="11" node-id="222" stroke="none" target-height="113.734985" target-width="236.522" target-x="240.944" target-y="371.755"></path><path d="M 359.21 487.48 C 295.83 487.48 238.95 482.98 238.95 428.63 C 238.95 376.45 303.22 369.76 359.21 369.76 C 425.51 369.77 479.46 396.18 479.46 428.63 C 479.46 461.08 425.51 487.48 359.21 487.48 Z M 359.21 373.75 C 278.80 373.75 242.94 390.68 242.94 428.63 C 242.94 474.52 285.57 483.50 359.21 483.50 C 423.31 483.50 475.47 458.88 475.47 428.63 C 475.47 398.38 423.31 373.76 359.21 373.75 Z" fill="#6e6e96" fill-rule="nonzero" group-id="11" node-id="224" stroke="none" target-height="117.72101" target-width="240.50702" target-x="238.95099" target-y="369.76196"></path></g><g node-id="514"><path d="M 439.10 564.03 C 470.98 564.03 496.83 589.88 496.83 621.76 C 496.83 653.65 470.98 679.49 439.10 679.49 C 407.22 679.49 381.37 653.65 381.37 621.76 C 381.37 589.88 407.22 564.03 439.10 564.03 Z" fill="#ffd500" fill-rule="nonzero" group-id="12" node-id="229" stroke="none" target-height="115.456055" target-width="115.45508" target-x="381.37396" target-y="564.035"></path><path d="M 439.10 681.48 C 406.17 681.48 379.38 654.70 379.38 621.76 C 379.38 588.83 406.17 562.04 439.10 562.04 C 472.03 562.04 498.82 588.83 498.82 621.76 C 498.82 654.70 472.03 681.48 439.10 681.48 Z M 439.10 566.03 C 408.37 566.03 383.37 591.03 383.37 621.76 C 383.37 652.50 408.37 677.50 439.10 677.50 C 469.83 677.50 494.84 652.50 494.84 621.76 C 494.83 591.03 469.83 566.03 439.10 566.03 Z" fill="#6e6e96" fill-rule="nonzero" group-id="12" node-id="231" stroke="none" target-height="119.44299" target-width="119.441986" target-x="379.381" target-y="562.041"></path></g><g node-id="515"><path d="M 194.04 766.77 C 193.97 766.77 193.90 766.76 193.83 766.75 C 191.23 766.48 129.97 759.57 129.97 722.50 C 129.97 721.40 130.87 720.51 131.97 720.51 C 133.07 720.51 133.96 721.40 133.96 722.50 C 133.96 756.02 193.65 762.72 194.25 762.79 C 195.35 762.91 196.14 763.89 196.02 764.98 C 195.92 766.01 195.05 766.77 194.04 766.77 Z" fill="#6e6e96" fill-rule="nonzero" group-id="13" node-id="236" stroke="none" target-height="46.256897" target-width="66.165985" target-x="129.974" target-y="720.50903"></path></g><g node-id="516"><path d="M 464.27 621.76 C 464.27 635.66 453.00 646.93 439.10 646.93 C 425.21 646.93 413.94 635.66 413.94 621.76" fill="#ffff00" fill-rule="nonzero" group-id="14" node-id="241" stroke="none" target-height="25.169006" target-width="50.337006" target-x="413.935" target-y="621.765"></path><path d="M 439.10 648.93 C 424.12 648.93 411.94 636.74 411.94 621.76 C 411.94 620.66 412.83 619.77 413.94 619.77 C 415.04 619.77 415.93 620.66 415.93 621.76 C 415.93 634.54 426.32 644.94 439.10 644.94 C 451.88 644.94 462.28 634.54 462.28 621.76 C 462.28 620.66 463.17 619.77 464.27 619.77 C 465.38 619.77 466.27 620.66 466.27 621.76 C 466.26 636.74 454.08 648.93 439.10 648.93 Z" fill="#6e6e96" fill-rule="nonzero" group-id="14" node-id="243" stroke="none" target-height="29.154968" target-width="54.325043" target-x="411.94196" target-y="619.773"></path></g><g node-id="517"><path d="M 280.90 851.53 C 280.90 851.53 298.19 951.51 405.29 951.51 C 459.47 967.80 462.91 926.35 462.91 926.35 C 464.90 965.42 633.55 995.17 678.57 822.71 C 678.56 822.72 501.48 906.55 280.90 851.53 Z" fill="#eb6e6e" fill-rule="nonzero" group-id="15" node-id="248" stroke="none" target-height="172.46606" target-width="397.66803" target-x="280.899" target-y="822.707"></path><path d="M 527.87 958.42 C 497.12 958.42 470.74 947.97 463.11 933.95 C 459.93 943.06 451.24 957.30 428.09 957.30 C 421.21 957.30 413.45 956.03 405.00 953.50 C 297.72 953.32 279.11 852.88 278.94 851.87 C 278.82 851.21 279.05 850.53 279.54 850.07 C 280.04 849.61 280.73 849.44 281.38 849.59 C 331.00 861.97 382.49 868.24 434.42 868.24 C 576.90 868.24 676.71 821.38 677.70 820.91 C 678.41 820.57 679.24 820.68 679.83 821.17 C 680.43 821.66 680.69 822.46 680.50 823.21 C 647.75 948.67 555.40 958.42 527.87 958.42 Z M 462.91 924.36 C 462.92 924.36 462.93 924.36 462.94 924.36 C 463.99 924.37 464.85 925.20 464.90 926.25 C 465.59 939.86 491.06 954.43 527.87 954.43 C 554.41 954.43 642.83 945.09 675.66 825.84 C 654.33 835.40 561.85 872.23 434.42 872.23 C 383.25 872.23 332.50 866.18 283.53 854.23 C 287.57 870.83 311.67 949.52 405.29 949.52 C 405.49 949.52 405.68 949.55 405.87 949.61 C 414.05 952.07 421.53 953.31 428.09 953.31 C 458.23 953.31 460.83 927.29 460.92 926.18 C 461.01 925.15 461.88 924.36 462.91 924.36 Z" fill="#6e6e96" fill-rule="nonzero" group-id="15" node-id="250" stroke="none" target-height="137.84204" target-width="401.87296" target-x="278.821" target-y="820.573"></path></g><g node-id="518"><path d="M 795.87 795.63 C 794.12 795.63 792.39 795.85 790.75 796.21 C 782.59 782.58 767.74 773.41 750.69 773.41 C 735.10 773.41 721.34 781.09 712.85 792.82 C 709.68 792.05 706.39 791.58 702.98 791.58 C 680.13 791.58 661.60 810.10 661.60 832.97 C 661.60 855.83 680.12 874.36 702.98 874.36 C 714.15 874.36 724.27 869.91 731.72 862.73 C 737.51 865.32 743.92 866.80 750.69 866.80 C 768.67 866.80 784.25 856.61 792.05 841.72 C 793.30 841.93 794.56 842.06 795.87 842.06 C 808.69 842.06 819.08 831.67 819.08 818.85 C 819.08 806.02 808.69 795.63 795.87 795.63 Z" fill="#ffbf00" fill-rule="nonzero" group-id="16" node-id="255" stroke="none" target-height="100.95404" target-width="157.48102" target-x="661.597" target-y="773.407"></path><path d="M 702.98 876.35 C 679.07 876.35 659.60 856.89 659.60 832.97 C 659.60 809.05 679.07 789.59 702.98 789.59 C 705.95 789.59 708.92 789.91 712.03 790.58 C 721.24 778.56 735.59 771.41 750.69 771.41 C 767.47 771.41 782.71 779.83 791.72 793.99 C 807.61 791.31 821.07 803.59 821.07 818.85 C 821.07 832.75 809.77 844.06 795.87 844.06 C 794.99 844.06 794.09 844.00 793.14 843.89 C 784.50 859.29 768.37 868.79 750.69 868.79 C 744.30 868.79 738.07 867.54 732.12 865.08 C 724.11 872.36 713.81 876.35 702.98 876.35 Z M 702.98 793.57 C 681.26 793.57 663.59 811.24 663.59 832.97 C 663.59 854.69 681.26 872.37 702.98 872.37 C 713.22 872.37 722.93 868.43 730.33 861.30 C 730.92 860.73 731.79 860.58 732.53 860.91 C 738.32 863.49 744.43 864.80 750.69 864.80 C 767.35 864.80 782.52 855.60 790.29 840.79 C 790.68 840.03 791.51 839.61 792.38 839.76 C 793.64 839.97 794.78 840.07 795.87 840.07 C 807.57 840.07 817.08 830.55 817.08 818.85 C 817.08 807.14 807.57 797.62 795.87 797.62 C 794.36 797.62 792.78 797.80 791.18 798.16 C 790.35 798.34 789.48 797.97 789.04 797.23 C 780.86 783.56 766.53 775.40 750.69 775.40 C 736.42 775.40 722.88 782.35 714.47 793.98 C 713.99 794.64 713.17 794.95 712.38 794.75 C 709.11 793.96 706.04 793.57 702.98 793.57 Z" fill="#6e6e96" fill-rule="nonzero" group-id="16" node-id="257" stroke="none" target-height="104.94" target-width="161.46796" target-x="659.603" target-y="771.414"></path></g><g node-id="519"><path d="M 364.98 944.78 C 364.98 944.78 323.04 915.12 359.04 899.56 C 395.05 884.01 495.20 887.67 462.20 957.11 L 364.98 944.78 Z" fill="#ffbf00" fill-rule="nonzero" group-id="17" node-id="262" stroke="none" target-height="73.09503" target-width="172.16199" target-x="323.037" target-y="884.015"></path><path d="M 462.20 959.10 C 462.12 959.10 462.03 959.10 461.95 959.09 L 364.73 946.76 C 364.40 946.71 364.09 946.59 363.83 946.40 C 362.89 945.74 340.93 930.02 342.54 914.56 C 343.26 907.58 348.55 901.92 358.25 897.73 C 369.44 892.90 386.17 890.02 403.02 890.02 C 417.35 890.02 452.15 892.33 465.68 913.73 C 473.00 925.33 472.44 940.21 464.00 957.97 C 463.67 958.67 462.96 959.10 462.20 959.10 Z M 365.74 942.87 L 461.01 954.95 C 468.24 939.09 468.68 925.95 462.31 915.86 C 453.66 902.18 431.49 894.00 403.01 894.00 C 386.69 894.00 370.54 896.77 359.83 901.39 C 351.56 904.97 347.07 909.53 346.50 914.97 C 345.23 927.11 362.86 940.73 365.74 942.87 Z" fill="#6e6e96" fill-rule="nonzero" group-id="17" node-id="264" stroke="none" target-height="69.087036" target-width="132.077" target-x="340.927" target-y="890.017"></path></g><g node-id="520"><path d="M 463.45 967.72 C 463.45 996.57 436.39 996.41 403.02 996.41 C 369.65 996.41 342.60 996.57 342.60 967.72 C 342.60 938.86 369.65 927.43 403.02 927.43 C 436.39 927.42 463.45 938.85 463.45 967.72 Z" fill="#9898b5" fill-rule="nonzero" group-id="18" node-id="269" stroke="none" target-height="69.14801" target-width="120.85504" target-x="342.595" target-y="927.422"></path><path d="M 404.09 998.41 L 401.95 998.41 C 369.04 998.41 340.60 998.41 340.60 967.72 C 340.60 940.85 363.35 925.44 403.02 925.44 C 442.71 925.44 465.44 940.85 465.44 967.72 C 465.44 998.41 437.01 998.41 404.09 998.41 Z M 403.07 929.43 C 385.45 929.43 344.59 933.16 344.59 967.72 C 344.59 993.13 366.39 994.42 401.96 994.42 L 404.09 994.42 C 439.66 994.42 461.46 993.13 461.46 967.72 C 461.46 933.16 420.63 929.43 403.07 929.43 Z" fill="#6e6e96" fill-rule="nonzero" group-id="18" node-id="271" stroke="none" target-height="72.966" target-width="124.84198" target-x="340.601" target-y="925.441"></path></g><g node-id="521"><path d="M 464.44 951.94 C 464.44 951.94 454.98 905.31 483.25 894.59 C 522.83 879.58 639.40 884.74 598.29 956.19 L 464.44 951.94 Z" fill="#ffbf00" fill-rule="nonzero" group-id="19" node-id="276" stroke="none" target-height="76.60797" target-width="184.42502" target-x="454.975" target-y="879.583"></path><path d="M 598.29 958.19 C 598.27 958.19 598.25 958.19 598.23 958.19 L 464.38 953.93 C 463.45 953.90 462.67 953.24 462.49 952.34 C 462.09 950.36 453.03 903.92 482.54 892.73 C 494.07 888.36 511.71 885.75 529.73 885.75 C 566.85 885.75 594.89 895.92 604.75 912.96 C 611.64 924.87 610.05 939.75 600.02 957.18 C 599.66 957.80 599.00 958.19 598.29 958.19 Z M 466.13 950.00 L 597.15 954.16 C 605.90 938.51 607.29 925.32 601.30 914.95 C 592.16 899.16 565.41 889.73 529.74 889.73 C 512.17 889.73 495.05 892.24 483.95 896.45 C 460.37 905.40 464.85 942.01 466.13 950.00 Z" fill="#6e6e96" fill-rule="nonzero" group-id="19" node-id="278" stroke="none" target-height="72.43799" target-width="158.61298" target-x="453.02502" target-y="885.748"></path></g><g node-id="522"><path d="M 728.37 842.04 C 645.57 842.04 683.30 705.87 673.47 637.26 C 650.14 474.38 562.47 422.15 618.13 408.01 C 673.78 393.87 768.24 506.45 798.68 626.31 C 829.13 746.15 853.44 842.04 728.37 842.04 Z" fill="#eb6e6e" fill-rule="nonzero" group-id="20" node-id="283" stroke="none" target-height="448.1769" target-width="290.969" target-x="562.472" target-y="393.868"></path><path d="M 728.37 844.04 C 712.90 844.04 700.49 839.29 691.49 829.92 C 668.25 805.73 670.27 755.21 672.23 706.35 C 673.26 680.77 674.23 656.61 671.50 637.54 C 660.04 557.55 633.03 504.40 615.15 469.23 C 602.29 443.92 594.53 428.65 599.38 417.95 C 601.91 412.38 607.71 408.60 617.64 406.08 C 620.95 405.24 624.46 404.81 628.07 404.81 C 686.83 404.81 772.29 514.28 800.61 625.82 C 821.26 707.08 839.09 777.26 809.69 815.07 C 794.53 834.56 767.93 844.04 728.37 844.04 Z M 628.07 408.80 C 624.79 408.80 621.61 409.19 618.62 409.95 C 609.96 412.15 605.00 415.21 603.01 419.60 C 598.95 428.56 606.81 444.02 618.70 467.42 C 636.70 502.83 663.89 556.34 675.45 636.98 C 678.22 656.40 677.25 680.74 676.22 706.51 C 674.29 754.54 672.30 804.20 694.36 827.16 C 702.70 835.84 713.82 840.05 728.37 840.05 C 766.62 840.05 792.19 831.08 806.54 812.62 C 834.75 776.36 817.14 707.05 796.75 626.80 C 768.81 516.78 685.26 408.80 628.07 408.80 Z" fill="#6e6e96" fill-rule="nonzero" group-id="20" node-id="285" stroke="none" target-height="439.222" target-width="244.56201" target-x="594.528" target-y="404.815"></path></g><g node-id="523"><path d="M 599.68 966.80 C 599.68 995.64 569.51 995.49 532.29 995.49 C 495.08 995.49 464.92 995.64 464.92 966.80 C 464.92 937.94 495.08 926.51 532.29 926.51 C 569.51 926.51 599.68 937.94 599.68 966.80 Z" fill="#9898b5" fill-rule="nonzero" group-id="21" node-id="290" stroke="none" target-height="69.132996" target-width="134.76202" target-x="464.922" target-y="926.512"></path><path d="M 530.93 997.48 C 512.97 997.48 496.02 997.47 483.69 993.75 C 469.72 989.54 462.93 980.73 462.93 966.80 C 462.93 939.93 488.21 924.52 532.29 924.52 C 576.39 924.52 601.68 939.93 601.68 966.80 C 601.68 997.48 570.08 997.48 533.49 997.48 L 531.10 997.48 C 531.04 997.48 530.99 997.48 530.93 997.48 Z M 532.29 928.51 C 512.64 928.51 466.92 932.23 466.92 966.80 C 466.92 979.06 472.44 986.20 484.84 989.94 C 496.61 993.49 513.27 993.49 530.93 993.49 C 530.99 993.49 531.04 993.49 531.10 993.49 L 533.49 993.49 C 573.29 993.49 597.69 992.21 597.69 966.80 C 597.69 932.23 551.96 928.51 532.29 928.51 Z" fill="#6e6e96" fill-rule="nonzero" group-id="21" node-id="292" stroke="none" target-height="72.96399" target-width="138.74802" target-x="462.929" target-y="924.518"></path></g><g node-id="524"><path d="M 755.10 441.01 C 755.10 441.01 607.01 396.73 593.07 441.01 C 579.13 485.31 669.39 578.14 669.39 612.98 C 669.39 612.98 664.27 469.66 755.10 441.01 Z" fill="#eb6e6e" fill-rule="nonzero" group-id="22" node-id="297" stroke="none" target-height="216.24896" target-width="175.96893" target-x="579.128" target-y="396.726"></path><path d="M 669.47 614.97 C 669.45 614.97 669.42 614.97 669.39 614.97 C 668.32 614.97 667.43 614.12 667.39 613.04 L 667.37 612.01 C 666.67 597.77 650.92 573.21 634.26 547.22 C 610.14 509.60 582.81 466.96 591.17 440.41 C 595.57 426.43 612.43 419.34 641.27 419.34 C 689.02 419.34 755.01 438.91 755.67 439.10 C 756.51 439.35 757.08 440.12 757.09 441.00 C 757.10 441.87 756.53 442.65 755.70 442.91 C 671.17 469.57 671.08 597.24 671.35 611.87 C 671.36 612.04 671.37 612.22 671.37 612.39 C 671.43 612.58 671.46 612.77 671.46 612.98 C 671.46 614.08 670.57 614.97 669.47 614.97 Z M 641.27 423.32 C 614.37 423.32 598.79 429.48 594.97 441.61 C 587.17 466.38 613.97 508.19 637.62 545.07 C 650.39 564.99 661.90 582.95 667.60 597.15 C 669.24 559.58 680.31 467.62 748.50 441.22 C 731.19 436.44 680.05 423.32 641.27 423.32 Z" fill="#6e6e96" fill-rule="nonzero" group-id="22" node-id="299" stroke="none" target-height="195.63599" target-width="174.28802" target-x="582.811" target-y="419.336"></path></g><g node-id="525"><path d="M 487.69 474.11 C 488.99 501.15 542.91 520.53 608.16 517.39 C 673.40 514.25 726.07 507.14 723.93 462.75 C 722.00 422.54 668.69 416.33 603.46 419.46 C 538.21 422.60 486.38 447.06 487.69 474.11 Z" fill="#eb6e6e" fill-rule="nonzero" group-id="23" node-id="304" stroke="none" target-height="104.20404" target-width="239.69" target-x="486.38098" target-y="416.326"></path><path d="M 594.39 519.72 C 594.38 519.72 594.38 519.72 594.38 519.72 C 533.66 519.72 486.94 500.15 485.69 474.20 C 485.02 460.26 497.12 446.70 519.76 436.02 C 541.86 425.59 571.55 419.00 603.36 417.48 C 613.19 417.00 622.01 416.77 630.31 416.77 C 670.40 416.77 723.95 421.53 725.92 462.65 C 726.95 484.03 715.86 498.67 692.00 507.41 C 670.09 515.44 638.80 517.91 608.26 519.38 C 603.63 519.61 598.96 519.72 594.39 519.72 Z M 630.31 420.76 C 622.07 420.76 613.32 420.99 603.55 421.45 C 572.25 422.96 543.10 429.41 521.46 439.62 C 500.38 449.58 489.09 461.79 489.68 474.01 C 490.80 497.40 536.79 515.73 594.38 515.74 C 594.38 515.74 594.39 515.74 594.39 515.74 C 598.90 515.74 603.50 515.62 608.06 515.40 C 638.29 513.95 669.22 511.52 690.63 503.67 C 712.94 495.49 722.89 482.52 721.94 462.85 C 720.56 434.13 691.44 420.76 630.31 420.76 Z" fill="#6e6e96" fill-rule="nonzero" group-id="23" node-id="306" stroke="none" target-height="102.95099" target-width="241.92908" target-x="485.021" target-y="416.771"></path></g><g node-id="526"><path d="M 465.03 443.81 C 466.54 475.18 520.65 498.06 585.88 494.93 C 651.12 491.79 703.75 483.95 701.28 432.46 C 699.03 385.81 645.66 378.20 580.43 381.34 C 515.19 384.47 463.53 412.44 465.03 443.81 Z" fill="#eb6e6e" fill-rule="nonzero" group-id="24" node-id="311" stroke="none" target-height="119.858" target-width="240.22101" target-x="463.529" target-y="378.202"></path><path d="M 573.99 497.21 C 573.99 497.21 573.99 497.21 573.99 497.21 C 512.20 497.20 464.50 474.29 463.04 443.90 C 462.28 427.93 474.25 412.42 496.75 400.23 C 518.80 388.29 548.49 380.88 580.33 379.35 C 589.00 378.93 596.83 378.73 604.29 378.73 C 645.67 378.73 700.95 384.29 703.26 432.36 C 705.88 486.65 649.28 493.87 585.98 496.92 C 581.99 497.11 577.95 497.21 573.99 497.21 Z M 604.29 382.71 C 596.90 382.71 589.13 382.91 580.53 383.32 C 549.26 384.83 520.19 392.08 498.65 403.74 C 477.57 415.15 466.34 429.35 467.03 443.71 C 468.36 471.47 515.34 493.22 573.99 493.22 C 573.99 493.22 573.99 493.22 573.99 493.22 C 577.89 493.22 581.86 493.13 585.79 492.94 C 659.34 489.40 701.49 478.39 699.29 432.55 C 697.65 398.55 667.47 382.71 604.29 382.71 Z" fill="#6e6e96" fill-rule="nonzero" group-id="24" node-id="313" stroke="none" target-height="118.47998" target-width="243.6" target-x="462.277" target-y="378.728"></path></g><g node-id="527"><path d="M 728.15 525.08 C 707.97 523.54 673.65 542.11 669.39 612.97 C 669.39 612.97 665.02 458.73 740.77 442.49 C 816.51 426.25 776.28 562.25 776.28 562.25 C 776.28 562.25 754.10 527.05 728.15 525.08 Z" fill="#ffbf00" fill-rule="nonzero" group-id="25" node-id="318" stroke="none" target-height="186.72498" target-width="151.48608" target-x="665.022" target-y="426.24902"></path><path d="M 669.39 614.97 C 669.38 614.97 669.38 614.97 669.37 614.97 C 668.30 614.95 667.43 614.10 667.40 613.03 C 667.39 612.64 666.40 573.77 674.73 533.42 C 685.85 479.48 708.55 447.36 740.35 440.54 C 757.59 436.85 770.55 440.58 778.71 451.51 C 801.66 482.23 779.16 559.54 778.19 562.81 C 777.97 563.57 777.33 564.12 776.55 564.22 C 775.78 564.32 775.00 563.97 774.59 563.31 C 774.38 562.97 752.64 528.94 728.00 527.07 C 727.30 527.01 726.58 526.99 725.85 526.99 C 707.54 526.99 675.46 545.12 671.38 613.10 C 671.32 614.15 670.45 614.97 669.39 614.97 Z M 752.49 443.14 C 749.02 443.14 745.22 443.58 741.18 444.44 C 690.16 455.38 676.33 532.06 672.65 578.12 C 676.50 563.53 682.29 551.49 689.97 542.13 C 699.95 529.97 713.03 523.00 725.85 523.00 C 726.68 523.00 727.50 523.03 728.30 523.09 C 750.15 524.75 768.93 548.30 775.50 557.55 C 779.86 540.98 794.37 479.13 775.52 453.89 C 770.11 446.66 762.58 443.14 752.49 443.14 Z" fill="#6e6e96" fill-rule="nonzero" group-id="25" node-id="320" stroke="none" target-height="178.117" target-width="135.25897" target-x="666.401" target-y="436.851"></path></g><g node-id="528"><path d="M 717.07 804.03 C 695.19 804.03 677.60 799.56 677.22 799.45 C 676.15 799.18 675.51 798.09 675.79 797.02 C 676.07 795.96 677.15 795.31 678.23 795.60 C 679.03 795.81 759.48 816.21 788.12 768.16 C 788.68 767.21 789.91 766.91 790.85 767.47 C 791.79 768.04 792.11 769.26 791.54 770.21 C 775.15 797.71 743.09 804.03 717.07 804.03 Z" fill="#6e6e96" fill-rule="nonzero" group-id="26" node-id="325" stroke="none" target-height="49.30194" target-width="116.59296" target-x="675.515" target-y="766.91205"></path></g><g node-id="529"><path d="M 496.11 287.42 C 426.42 263.16 381.13 211.27 394.97 171.51 C 408.81 131.75 476.52 119.19 546.22 143.45 C 615.91 167.70 661.19 219.60 647.36 259.35 C 633.52 299.11 565.80 311.68 496.11 287.42 Z" fill="#ffbf00" fill-rule="nonzero" group-id="27" node-id="330" stroke="none" target-height="192.49002" target-width="280.061" target-x="381.132" target-y="119.187996"></path><path d="M 565.39 301.77 C 543.07 301.77 518.88 297.45 495.45 289.30 C 461.42 277.46 432.04 258.74 412.71 236.59 C 393.12 214.14 386.15 190.79 393.09 170.85 C 402.19 144.71 433.53 129.10 476.93 129.10 C 499.26 129.10 523.45 133.41 546.87 141.56 C 617.50 166.14 663.42 219.28 649.24 260.01 C 640.14 286.16 608.79 301.77 565.39 301.77 Z M 476.93 133.08 C 435.31 133.08 405.37 147.69 396.85 172.17 C 390.41 190.69 397.11 212.64 415.72 233.97 C 434.60 255.60 463.38 273.92 496.76 285.53 C 519.77 293.54 543.50 297.78 565.39 297.78 C 607.02 297.78 636.95 283.17 645.47 258.70 C 658.93 220.04 614.11 169.18 545.57 145.33 C 522.55 137.32 498.82 133.08 476.93 133.08 Z" fill="#6e6e96" fill-rule="nonzero" group-id="27" node-id="332" stroke="none" target-height="172.66899" target-width="277.266" target-x="386.151" target-y="129.098"></path></g><g node-id="530"><g node-id="556"><path d="M 439.92 150.69 L 426.87 78.98 L 480.98 115.56 L 535.11 38.07 L 560.61 128.06 L 623.32 108.07 L 597.73 190.25 C 597.73 190.24 539.75 129.67 439.92 150.69 Z" fill="#ffff00" fill-rule="nonzero" group-id="28,54" node-id="339" stroke="none" target-height="152.177" target-width="196.45502" target-x="426.867" target-y="38.07"></path><path d="M 597.73 192.24 C 597.19 192.24 596.67 192.02 596.29 191.63 C 595.87 191.19 553.82 148.25 481.39 148.25 C 467.97 148.25 454.16 149.72 440.33 152.63 C 439.80 152.75 439.25 152.64 438.81 152.34 C 438.36 152.04 438.05 151.57 437.96 151.04 L 424.91 79.33 C 424.76 78.54 425.11 77.75 425.78 77.31 C 426.45 76.87 427.32 76.88 427.99 77.33 L 480.47 112.81 L 533.48 36.93 C 533.91 36.30 534.68 35.98 535.44 36.10 C 536.20 36.23 536.82 36.79 537.03 37.53 L 561.97 125.54 L 622.72 106.17 C 623.44 105.95 624.20 106.13 624.73 106.66 C 625.25 107.18 625.45 107.95 625.23 108.66 L 599.63 190.84 C 599.42 191.51 598.88 192.03 598.19 192.19 C 598.03 192.22 597.88 192.24 597.73 192.24 Z M 481.39 144.26 C 546.55 144.26 586.83 177.33 596.79 186.56 L 620.28 111.13 L 561.22 129.96 C 560.70 130.12 560.14 130.07 559.67 129.82 C 559.19 129.56 558.84 129.12 558.69 128.60 L 534.34 42.66 L 482.61 116.70 C 482.00 117.59 480.77 117.82 479.86 117.21 L 429.68 83.28 L 441.51 148.32 C 454.94 145.63 468.35 144.26 481.39 144.26 Z" fill="#6e6e96" fill-rule="nonzero" group-id="28,54" node-id="341" stroke="none" target-height="156.26299" target-width="200.686" target-x="424.764" target-y="35.978"></path></g><g node-id="557"><path d="M 623.64 95.17 C 631.76 95.17 638.34 101.74 638.34 109.86 C 638.34 117.97 631.76 124.55 623.64 124.55 C 615.53 124.55 608.95 117.97 608.95 109.86 C 608.95 101.74 615.53 95.17 623.64 95.17 Z" fill="#ffff00" fill-rule="nonzero" group-id="28,55" node-id="346" stroke="none" target-height="29.385994" target-width="29.388" target-x="608.948" target-y="95.166"></path><path d="M 623.64 126.55 C 614.44 126.55 606.96 119.06 606.96 109.86 C 606.96 100.66 614.44 93.17 623.64 93.17 C 632.84 93.17 640.33 100.66 640.33 109.86 C 640.33 119.06 632.84 126.55 623.64 126.55 Z M 623.64 97.16 C 616.64 97.16 610.94 102.86 610.94 109.86 C 610.94 116.86 616.64 122.56 623.64 122.56 C 630.64 122.56 636.34 116.86 636.34 109.86 C 636.34 102.86 630.64 97.16 623.64 97.16 Z" fill="#6e6e96" fill-rule="nonzero" group-id="28,55" node-id="348" stroke="none" target-height="33.373" target-width="33.373962" target-x="606.955" target-y="93.172"></path></g><g node-id="558"><path d="M 549.04 38.71 C 549.04 46.82 542.47 53.40 534.35 53.40 C 526.24 53.40 519.66 46.82 519.66 38.71 C 519.66 30.60 526.24 24.02 534.35 24.02 C 542.47 24.02 549.04 30.60 549.04 38.71 Z" fill="#ffff00" fill-rule="nonzero" group-id="28,56" node-id="353" stroke="none" target-height="29.379997" target-width="29.380005" target-x="519.664" target-y="24.019001"></path><path d="M 534.35 55.39 C 525.15 55.39 517.67 47.91 517.67 38.71 C 517.67 29.51 525.15 22.03 534.35 22.03 C 543.55 22.03 551.03 29.51 551.03 38.71 C 551.03 47.91 543.55 55.39 534.35 55.39 Z M 534.35 26.01 C 527.35 26.01 521.65 31.71 521.65 38.71 C 521.65 45.71 527.35 51.41 534.35 51.41 C 541.35 51.41 547.05 45.71 547.05 38.71 C 547.05 31.71 541.35 26.01 534.35 26.01 Z" fill="#6e6e96" fill-rule="nonzero" group-id="28,56" node-id="355" stroke="none" target-height="33.367004" target-width="33.366943" target-x="517.668" target-y="22.026"></path></g><g node-id="559"><path d="M 440.28 76.33 C 440.28 84.45 433.70 91.02 425.59 91.02 C 417.47 91.02 410.90 84.45 410.90 76.33 C 410.90 68.22 417.47 61.64 425.59 61.64 C 433.70 61.64 440.28 68.22 440.28 76.33 Z" fill="#ffff00" fill-rule="nonzero" group-id="28,57" node-id="360" stroke="none" target-height="29.380001" target-width="29.379974" target-x="410.897" target-y="61.643"></path><path d="M 425.59 93.02 C 416.39 93.02 408.90 85.53 408.90 76.33 C 408.90 67.13 416.39 59.65 425.59 59.65 C 434.79 59.65 442.27 67.13 442.27 76.33 C 442.27 85.53 434.79 93.02 425.59 93.02 Z M 425.59 63.64 C 418.59 63.64 412.89 69.33 412.89 76.33 C 412.89 83.33 418.58 89.03 425.59 89.03 C 432.59 89.03 438.28 83.33 438.28 76.33 C 438.28 69.33 432.59 63.64 425.59 63.64 Z" fill="#6e6e96" fill-rule="nonzero" group-id="28,57" node-id="362" stroke="none" target-height="33.368" target-width="33.36798" target-x="408.90103" target-y="59.649"></path></g></g><g node-id="531"><g node-id="560"><g node-id="562"><path d="M 693.57 373.33 C 693.21 363.90 689.37 354.89 684.92 350.75 C 683.08 349.02 681.02 347.60 678.85 346.42 C 680.81 342.52 681.52 338.11 681.33 333.81 C 681.03 326.24 677.94 319.01 674.38 315.68 C 674.24 315.55 674.09 315.43 673.94 315.29 C 673.72 313.89 673.44 312.51 673.18 311.10 C 675.21 307.97 675.92 304.24 675.76 300.62 C 675.55 295.14 673.32 289.89 670.73 287.48 C 669.28 286.13 667.59 285.10 665.83 284.32 C 662.16 274.10 657.56 264.07 652.12 254.37 C 655.81 257.05 659.11 260.11 659.77 262.85 C 659.77 262.85 659.79 239.93 651.99 230.18 C 651.99 230.18 670.59 228.33 684.20 236.71 C 684.20 236.71 682.83 216.06 643.98 197.89 L 663.51 200.01 C 663.51 200.01 637.20 184.33 614.41 180.72 L 625.39 178.11 C 625.39 178.11 598.14 167.61 575.58 176.41 C 566.18 171.03 556.33 166.44 546.07 162.87 C 522.73 154.74 500.92 150.61 480.70 149.76 C 467.32 134.02 446.10 127.16 446.10 127.16 L 453.01 136.10 C 433.00 124.58 402.68 120.24 402.68 120.24 L 419.22 130.86 C 377.57 120.60 363.53 135.81 363.53 135.81 C 379.39 137.84 392.69 150.96 392.69 150.96 C 380.48 153.65 366.12 171.50 366.12 171.50 C 371.48 167.35 389.99 171.35 390.67 171.50 C 374.97 180.82 361.21 192.70 349.40 206.38 C 346.27 206.77 343.23 207.59 340.40 208.96 C 333.91 212.10 327.00 222.00 324.28 234.28 C 323.45 237.95 323.01 241.84 323.03 245.82 C 322.31 247.20 321.62 248.59 320.95 249.99 C 315.55 249.62 310.15 250.42 305.35 252.74 C 298.86 255.88 291.94 265.76 289.23 278.05 C 286.87 288.48 287.47 300.67 293.82 311.98 C 289.17 316.71 284.94 324.37 282.96 333.34 C 280.58 343.88 281.24 356.20 287.77 367.61 C 280.88 379.45 276.44 395.62 289.48 409.97 C 291.12 412.14 293.10 414.28 295.52 416.33 C 288.22 428.25 282.93 445.10 296.46 459.99 C 301.86 467.12 311.09 473.69 325.87 478.84 C 342.59 484.66 356.24 485.05 367.16 482.18 C 363.95 494.07 364.97 507.33 376.23 519.51 C 382.98 528.25 394.41 536.30 412.54 542.61 C 458.50 558.61 485.85 541.79 498.83 520.55 C 502.54 522.50 506.70 524.34 511.53 526.02 C 544.52 537.51 565.60 527.96 577.20 513.63 C 599.02 522.60 617.91 502.11 617.91 502.11 C 619.32 500.01 619.85 498.03 619.71 496.15 L 619.71 496.15 L 619.71 496.14 L 619.71 496.14 L 619.71 496.14 L 619.71 496.14 C 619.71 496.14 619.71 496.14 619.71 496.14 C 619.68 495.80 619.63 495.48 619.58 495.15 C 630.26 496.16 641.48 493.34 651.38 482.89 C 656.76 478.15 661.67 471.37 665.88 462.21 C 666.76 461.46 667.34 460.88 667.61 460.62 C 667.64 460.59 667.67 460.56 667.70 460.54 C 667.70 460.54 667.70 460.54 667.70 460.53 C 667.75 460.47 667.78 460.44 667.78 460.44 C 668.61 459.23 668.90 458.08 668.83 457.00 C 668.83 457.00 668.84 456.97 668.84 456.97 L 668.84 456.96 C 668.84 456.96 668.83 456.97 668.82 456.97 L 668.82 456.97 L 668.84 456.96 C 668.84 456.96 668.83 456.96 668.82 456.97 C 668.79 456.56 668.71 456.15 668.57 455.75 C 669.80 452.46 670.98 448.99 672.04 445.15 C 676.74 428.11 677.23 413.83 674.95 401.97 C 689.51 396.90 694.06 384.78 693.57 373.33 Z M 611.62 202.99 C 607.80 199.45 603.86 196.05 599.78 192.81 C 603.84 195.53 607.87 198.88 611.62 202.99 Z" fill="#ffffff" fill-rule="nonzero" group-id="29,58,60" node-id="372" stroke="none" target-height="438.37497" target-width="417.62402" target-x="276.435" target-y="120.238"></path><path d="M 446.53 550.95 C 435.84 550.95 424.19 548.78 411.88 544.50 C 394.76 538.53 382.23 530.54 374.65 520.73 C 365.18 510.49 361.73 498.39 364.48 484.83 C 352.87 487.12 339.61 485.73 325.21 480.72 C 311.20 475.84 300.99 469.27 294.87 461.19 C 281.05 445.99 285.93 428.87 292.96 416.73 C 291.08 415.00 289.38 413.14 287.89 411.17 C 277.07 399.28 276.21 384.19 285.48 367.59 C 279.88 357.23 278.29 344.96 281.01 332.90 C 282.83 324.67 286.58 317.01 291.39 311.67 C 286.07 301.46 284.61 289.43 287.29 277.61 C 289.96 265.52 297.03 254.54 304.48 250.94 C 308.99 248.76 314.16 247.78 319.74 247.93 C 320.16 247.06 320.60 246.20 321.05 245.34 C 321.06 241.45 321.49 237.58 322.34 233.84 C 325.01 221.74 332.09 210.77 339.54 207.16 C 342.21 205.87 345.19 204.97 348.39 204.51 C 359.40 191.85 371.76 181.11 385.21 172.53 C 382.25 172.07 378.43 171.62 374.90 171.62 C 369.96 171.62 368.05 172.53 367.34 173.07 C 366.55 173.69 365.41 173.61 364.70 172.89 C 363.99 172.17 363.94 171.03 364.57 170.25 C 365.12 169.56 377.01 154.90 388.75 150.12 C 384.25 146.39 374.33 139.20 363.29 137.79 C 362.55 137.69 361.92 137.19 361.67 136.49 C 361.41 135.79 361.57 135.00 362.07 134.46 C 362.42 134.08 370.77 125.31 392.77 125.31 C 397.88 125.31 403.35 125.79 409.12 126.74 L 401.61 121.91 C 400.82 121.40 400.49 120.42 400.81 119.54 C 401.14 118.66 402.03 118.12 402.97 118.26 C 404.06 118.42 426.88 121.76 446.05 130.33 L 444.53 128.37 C 443.99 127.68 443.97 126.72 444.47 126.01 C 444.98 125.29 445.88 124.98 446.72 125.26 C 447.59 125.54 468.05 132.29 481.65 147.80 C 502.53 148.78 524.42 153.21 546.73 160.98 C 556.43 164.36 566.20 168.81 575.76 174.21 C 581.75 172.01 588.54 170.90 595.97 170.90 C 612.05 170.90 625.55 176.02 626.12 176.24 C 626.93 176.56 627.45 177.37 627.39 178.24 C 627.33 179.11 626.71 179.84 625.86 180.04 L 623.44 180.62 C 642.69 185.71 661.54 196.54 664.24 198.12 C 665.02 198.39 665.59 199.13 665.59 200.01 C 665.59 201.12 664.68 202.06 663.56 202.00 C 663.47 202.00 663.39 202.00 663.30 201.99 L 654.44 201.03 C 681.79 216.53 685.61 232.48 686.12 235.92 C 686.22 236.16 686.28 236.43 686.28 236.70 C 686.28 237.81 685.39 238.70 684.28 238.70 C 684.27 238.70 684.24 238.70 684.21 238.70 C 683.85 238.70 683.49 238.60 683.16 238.40 C 673.60 232.51 661.32 231.95 655.59 232.00 C 661.71 243.08 661.77 261.97 661.77 262.85 C 661.77 263.86 661.01 264.71 660.01 264.83 C 659.95 264.84 659.89 264.84 659.82 264.84 C 662.67 270.77 665.21 276.80 667.42 282.86 C 669.21 283.73 670.78 284.79 672.09 286.02 C 675.26 288.98 677.54 294.81 677.76 300.54 C 677.94 304.62 677.08 308.39 675.28 311.48 L 675.36 311.86 C 675.51 312.67 675.66 313.46 675.80 314.27 C 680.00 318.23 683.03 326.05 683.33 333.73 C 683.51 337.98 682.86 342.04 681.41 345.60 C 683.21 346.70 684.84 347.94 686.29 349.29 C 691.39 354.05 695.20 363.91 695.56 373.25 C 696.17 387.45 689.50 398.29 677.21 403.25 C 679.33 415.89 678.24 430.16 673.97 445.68 C 673.05 449.00 671.97 452.33 670.67 455.84 C 670.69 455.93 670.71 456.01 670.72 456.09 C 670.85 456.35 670.92 456.65 670.92 456.96 C 670.92 457.14 670.89 457.32 670.85 457.49 C 670.83 458.82 670.36 460.22 669.44 461.56 C 669.40 461.62 669.34 461.69 669.27 461.77 C 669.15 461.92 669.02 462.05 668.86 462.16 C 668.65 462.39 668.18 462.85 667.51 463.43 C 663.38 472.31 658.40 479.36 652.71 484.39 C 644.17 493.42 633.50 497.80 621.71 497.29 C 621.60 499.30 620.88 501.28 619.57 503.22 C 618.84 504.05 605.88 517.89 588.58 517.89 C 584.92 517.89 581.31 517.26 577.82 516.00 C 570.90 524.06 558.71 533.11 538.87 533.11 C 530.23 533.11 520.81 531.36 510.88 527.90 C 506.85 526.50 503.12 524.94 499.55 523.15 C 492.33 534.22 476.45 550.95 446.53 550.95 Z M 367.16 480.19 C 367.68 480.19 368.20 480.39 368.57 480.77 C 369.08 481.28 369.27 482.01 369.08 482.69 C 365.46 496.13 368.36 508.06 377.70 518.16 C 384.91 527.48 396.82 535.02 413.20 540.73 C 425.08 544.87 436.29 546.96 446.53 546.96 C 475.96 546.96 490.87 529.76 497.14 519.51 C 497.69 518.61 498.83 518.30 499.77 518.78 C 503.66 520.83 507.72 522.59 512.18 524.14 C 521.70 527.45 530.67 529.12 538.87 529.12 C 558.06 529.12 569.46 520.02 575.65 512.38 C 576.21 511.69 577.14 511.45 577.96 511.79 C 581.38 513.20 584.96 513.91 588.58 513.91 C 604.14 513.91 616.32 500.89 616.45 500.76 C 617.36 499.36 617.84 497.83 617.72 496.30 C 617.70 496.05 617.66 495.76 617.61 495.48 C 617.51 494.87 617.70 494.24 618.12 493.79 C 618.54 493.34 619.15 493.12 619.76 493.16 C 621.04 493.28 622.31 493.35 623.59 493.35 C 633.64 493.35 642.50 489.37 649.93 481.52 C 655.42 476.67 660.14 469.93 664.07 461.38 C 664.19 461.12 664.37 460.88 664.59 460.70 C 665.34 460.05 665.86 459.54 666.14 459.27 C 666.17 459.25 666.21 459.21 666.25 459.17 C 666.27 459.15 666.28 459.14 666.30 459.12 C 666.65 458.57 666.87 457.90 666.85 457.24 C 666.85 457.20 666.84 457.17 666.84 457.14 C 666.82 456.87 666.77 456.63 666.70 456.43 C 666.54 455.98 666.54 455.50 666.70 455.06 C 668.08 451.38 669.17 448.06 670.13 444.61 C 674.42 429.01 675.39 414.79 672.99 402.35 C 672.81 401.38 673.36 400.42 674.29 400.09 C 690.09 394.59 691.90 381.01 691.57 373.42 C 691.20 363.63 687.16 355.56 683.56 352.21 C 681.94 350.69 680.04 349.34 677.90 348.18 C 676.96 347.66 676.59 346.49 677.07 345.53 C 678.75 342.20 679.53 338.18 679.34 333.90 C 679.05 326.50 675.94 319.87 673.02 317.13 C 672.70 316.83 672.05 316.04 671.98 315.61 C 671.81 314.61 671.63 313.61 671.44 312.61 L 671.22 311.46 C 671.13 310.96 671.23 310.44 671.51 310.01 C 673.57 306.83 673.88 303.20 673.77 300.71 C 673.57 295.49 671.40 290.84 669.37 288.94 C 668.19 287.84 666.73 286.90 665.02 286.15 C 664.52 285.93 664.13 285.51 663.95 285.00 C 660.34 274.93 655.77 264.95 650.38 255.34 C 649.93 254.53 650.10 253.50 650.80 252.88 C 651.50 252.26 652.54 252.20 653.29 252.76 C 654.91 253.94 656.30 255.07 657.46 256.15 C 656.86 248.83 655.18 237.35 650.44 231.42 C 649.98 230.85 649.88 230.08 650.16 229.41 C 650.44 228.74 651.07 228.27 651.79 228.20 C 651.79 228.20 667.39 226.54 681.10 232.80 C 678.51 226.14 670.11 212.31 643.14 199.70 C 642.26 199.29 641.80 198.30 642.07 197.36 C 642.33 196.42 643.22 195.79 644.20 195.91 L 653.66 196.94 C 644.09 192.07 628.30 184.94 614.10 182.69 C 613.16 182.54 612.45 181.75 612.41 180.80 C 612.38 179.85 613.02 179.00 613.95 178.79 L 617.82 177.86 C 612.48 176.47 604.54 174.89 595.97 174.89 C 588.66 174.89 582.05 176.02 576.31 178.26 C 575.75 178.49 575.12 178.44 574.60 178.14 C 564.99 172.65 555.17 168.14 545.41 164.75 C 523.16 157.00 501.36 152.62 480.62 151.75 C 480.06 151.72 479.55 151.47 479.19 151.05 C 470.90 141.31 459.37 135.01 452.17 131.75 L 454.59 134.88 C 455.17 135.63 455.14 136.69 454.51 137.41 C 453.89 138.12 452.84 138.30 452.02 137.82 C 439.54 130.64 422.79 126.27 412.30 124.05 L 420.30 129.18 C 421.12 129.71 421.44 130.75 421.05 131.65 C 420.67 132.54 419.70 133.04 418.74 132.79 C 409.33 130.48 400.59 129.30 392.77 129.30 C 380.09 129.30 372.38 132.41 368.40 134.72 C 382.58 138.31 393.59 149.04 394.09 149.54 C 394.61 150.06 394.81 150.81 394.61 151.51 C 394.41 152.22 393.84 152.75 393.12 152.91 C 385.70 154.54 377.20 162.41 372.14 167.73 C 373.00 167.66 373.92 167.63 374.90 167.63 C 382.03 167.63 390.19 169.36 391.10 169.56 C 391.90 169.73 392.51 170.38 392.64 171.19 C 392.77 172.00 392.39 172.80 391.69 173.22 C 376.68 182.12 362.96 193.72 350.91 207.69 C 350.58 208.06 350.14 208.31 349.64 208.36 C 346.58 208.74 343.77 209.55 341.27 210.75 C 336.01 213.30 329.07 221.88 326.23 234.71 C 325.41 238.33 325.01 242.06 325.03 245.81 C 325.03 246.14 324.95 246.46 324.80 246.75 C 324.09 248.11 323.41 249.48 322.74 250.86 C 322.39 251.59 321.68 252.04 320.81 251.98 C 315.51 251.61 310.46 252.47 306.22 254.53 C 300.96 257.07 294.01 265.66 291.18 278.48 C 289.36 286.52 288.64 298.69 295.56 311.01 C 296.00 311.78 295.87 312.75 295.25 313.38 C 290.54 318.17 286.67 325.79 284.90 333.77 C 283.07 341.90 282.38 354.19 289.50 366.62 C 289.85 367.24 289.85 367.99 289.49 368.61 C 280.46 384.16 280.95 397.62 290.96 408.63 C 292.71 410.94 294.64 412.97 296.81 414.81 C 297.56 415.44 297.73 416.53 297.22 417.37 C 290.46 428.41 285.10 444.53 297.94 458.65 C 303.69 466.22 313.27 472.34 326.52 476.96 C 341.50 482.17 355.12 483.29 366.65 480.25 C 366.82 480.21 366.99 480.19 367.16 480.19 Z M 611.62 204.98 C 611.13 204.98 610.65 204.81 610.26 204.45 C 606.45 200.91 602.51 197.52 598.54 194.37 C 597.71 193.71 597.54 192.50 598.17 191.64 C 598.80 190.77 600.00 190.56 600.89 191.16 C 605.38 194.16 609.48 197.69 613.09 201.65 C 613.81 202.44 613.78 203.66 613.02 204.41 C 612.64 204.79 612.12 204.98 611.62 204.98 Z" fill="#6e6e96" fill-rule="nonzero" group-id="29,58,60" node-id="374" stroke="none" target-height="432.83" target-width="419.958" target-x="276.211" target-y="118.121"></path></g></g></g><g node-id="532"><path d="M 504.62 148.55 C 422.41 141.02 351.36 190.09 345.93 258.15 C 340.50 326.21 402.73 387.48 484.94 395.00 C 567.15 402.55 638.21 353.48 643.65 285.42 C 649.08 217.36 586.83 156.08 504.62 148.55 Z" fill="#f2b3a4" fill-rule="nonzero" group-id="30" node-id="381" stroke="none" target-height="261.536" target-width="308.573" target-x="340.505" target-y="141.017"></path><path d="M 501.60 397.76 C 501.59 397.76 501.60 397.76 501.59 397.76 C 496.02 397.76 490.36 397.50 484.76 396.99 C 401.61 389.38 338.44 327.02 343.94 257.99 C 349.05 194.03 410.98 145.80 488.00 145.80 C 493.56 145.80 499.22 146.06 504.81 146.57 C 587.97 154.19 651.14 216.54 645.63 285.58 C 640.52 349.53 578.59 397.76 501.60 397.76 Z M 488.00 149.78 C 413.08 149.78 352.85 196.44 347.92 258.31 C 342.59 325.18 404.14 385.61 485.12 393.02 C 490.60 393.52 496.14 393.78 501.59 393.78 C 576.50 393.78 636.71 347.13 641.66 285.26 C 647.00 218.39 585.44 157.96 504.44 150.54 C 498.97 150.04 493.44 149.78 488.00 149.78 Z" fill="#6e6e96" fill-rule="nonzero" group-id="30" node-id="383" stroke="none" target-height="251.96802" target-width="312.701" target-x="338.44" target-y="145.797"></path></g><g node-id="533"><path d="M 517.44 374.44 L 463.27 355.72 L 430.19 344.29 L 430.19 344.29 L 423.31 341.92 C 423.31 341.92 422.29 345.31 421.67 350.46 C 417.49 363.25 411.69 393.23 444.24 404.22 C 483.09 417.34 501.52 396.51 508.69 384.15 C 514.39 378.88 517.44 374.44 517.44 374.44 Z" fill="#eb6e6e" fill-rule="nonzero" group-id="31" node-id="388" stroke="none" target-height="75.423004" target-width="105.75101" target-x="411.692" target-y="341.916"></path><path d="M 467.45 410.40 C 467.45 410.40 467.45 410.40 467.45 410.40 C 460.05 410.40 452.03 408.95 443.60 406.11 C 409.29 394.52 415.51 362.90 419.78 349.84 C 420.33 344.97 421.36 341.49 421.40 341.34 C 421.56 340.82 421.92 340.39 422.40 340.14 C 422.89 339.90 423.45 339.86 423.96 340.03 L 518.09 372.56 C 518.68 372.76 519.14 373.23 519.34 373.82 C 519.53 374.41 519.44 375.06 519.09 375.57 C 518.96 375.76 515.92 380.14 510.27 385.41 C 504.71 394.86 491.86 410.40 467.45 410.40 Z M 424.71 344.51 C 424.39 345.95 423.96 348.10 423.65 350.70 C 418.72 365.90 415.05 392.26 444.88 402.33 C 452.89 405.04 460.49 406.41 467.45 406.41 C 490.09 406.41 501.93 391.83 506.97 383.14 C 507.07 382.97 507.20 382.82 507.34 382.68 C 510.46 379.80 512.77 377.16 514.18 375.42 L 424.71 344.51 Z" fill="#6e6e96" fill-rule="nonzero" group-id="31" node-id="390" stroke="none" target-height="70.54199" target-width="110.246" target-x="409.285" target-y="339.855"></path></g><g node-id="534"><g node-id="561"><path d="M 461.63 322.47 C 446.44 366.62 489.55 415.59 532.48 412.39 C 572.38 409.21 615.27 390.67 630.48 347.67 C 581.37 338.61 529.22 344.91 485.83 312.10 C 474.31 309.21 466.08 312.83 461.63 322.47 Z" fill="#ffffff" fill-rule="nonzero" group-id="32,59" node-id="397" stroke="none" target-height="106.38501" target-width="184.03802" target-x="446.438" target-y="309.206"></path><path d="M 528.47 414.54 L 528.47 414.54 C 506.91 414.54 484.64 402.09 470.35 382.05 C 456.92 363.23 453.05 341.27 459.75 321.82 C 464.69 311.10 473.99 307.07 486.31 310.17 C 486.57 310.23 486.82 310.35 487.03 310.51 C 517.77 333.75 553.86 337.17 588.76 340.48 C 602.61 341.79 616.94 343.14 630.84 345.70 C 631.41 345.81 631.91 346.16 632.20 346.67 C 632.50 347.17 632.55 347.78 632.36 348.33 C 619.12 385.76 581.84 410.46 532.64 414.38 C 531.24 414.49 529.85 414.54 528.47 414.54 Z M 478.60 313.12 C 471.66 313.12 466.56 316.55 463.44 323.31 C 457.25 341.34 460.92 361.97 473.60 379.74 C 487.15 398.74 508.18 410.55 528.47 410.55 L 528.47 410.55 C 529.75 410.55 531.04 410.50 532.33 410.41 C 578.93 406.69 614.41 383.88 627.78 349.21 C 614.78 346.94 601.37 345.67 588.38 344.44 C 553.05 341.10 516.52 337.63 484.95 313.94 C 482.70 313.40 480.56 313.12 478.60 313.12 Z" fill="#6e6e96" fill-rule="nonzero" group-id="32,59" node-id="399" stroke="none" target-height="107.46301" target-width="179.50198" target-x="453.051" target-y="307.073"></path></g></g><g node-id="535"><path d="M 481.44 331.82 C 461.62 356.94 431.35 365.95 400.05 365.29 C 359.79 362.66 312.50 320.76 331.45 277.82 C 376.06 303.41 424.31 298.39 473.68 307.56 C 482.85 314.08 485.36 322.69 481.44 331.82 Z" fill="#ffffff" fill-rule="nonzero" group-id="33" node-id="405" stroke="none" target-height="88.130005" target-width="172.857" target-x="312.503" target-y="277.817"></path><path d="M 403.19 367.32 C 402.13 367.32 401.07 367.31 400.01 367.29 C 374.38 365.61 347.17 348.99 333.76 326.86 C 323.87 310.54 322.44 293.30 329.62 277.01 C 329.85 276.50 330.29 276.10 330.82 275.92 C 331.36 275.74 331.95 275.80 332.44 276.09 C 362.73 293.47 394.43 296.53 427.98 299.77 C 443.00 301.22 458.53 302.72 474.05 305.60 C 474.33 305.65 474.60 305.77 474.84 305.94 C 484.66 312.92 487.66 322.39 483.27 332.61 C 483.20 332.77 483.11 332.92 483.00 333.06 C 465.32 355.47 437.72 367.32 403.19 367.32 Z M 332.42 280.65 C 325.30 298.81 330.99 314.60 337.17 324.79 C 349.95 345.88 375.86 361.71 400.18 363.30 C 401.13 363.32 402.16 363.33 403.19 363.33 C 426.32 363.33 458.35 357.68 479.70 330.80 C 483.13 322.59 480.77 315.21 472.88 309.44 C 457.68 306.64 442.39 305.17 427.60 303.74 C 394.32 300.52 362.85 297.49 332.42 280.65 Z" fill="#6e6e96" fill-rule="nonzero" group-id="33" node-id="407" stroke="none" target-height="91.57999" target-width="165.22" target-x="322.436" target-y="275.737"></path></g><g node-id="536"><path d="M 475.46 252.69 C 435.53 292.64 438.43 330.86 451.80 344.38 C 465.15 357.90 490.70 337.52 503.93 313.61" fill="#f2b3a4" fill-rule="nonzero" group-id="34" node-id="412" stroke="none" target-height="105.20897" target-width="68.399994" target-x="435.526" target-y="252.69499"></path><path d="M 462.23 350.70 C 457.63 350.70 453.58 349.02 450.38 345.79 C 435.76 331.00 433.44 291.90 474.06 251.29 C 474.83 250.51 476.10 250.51 476.87 251.29 C 477.65 252.06 477.65 253.33 476.87 254.10 C 438.62 292.37 440.14 329.76 453.21 342.98 C 456.17 345.97 459.94 347.17 464.45 346.56 C 476.35 344.91 492.22 330.65 502.18 312.64 C 502.71 311.68 503.93 311.33 504.89 311.86 C 505.85 312.40 506.20 313.61 505.67 314.57 C 494.98 333.90 478.25 348.67 464.99 350.50 C 464.05 350.63 463.13 350.70 462.23 350.70 Z" fill="#6e6e96" fill-rule="nonzero" group-id="34" node-id="414" stroke="none" target-height="100.190994" target-width="72.759" target-x="433.443" target-y="250.507"></path></g><g node-id="537"><path d="M 367.16 482.18 C 367.16 482.18 367.18 466.17 391.15 466.17" fill="#ffffff" fill-rule="nonzero" group-id="35" node-id="419" stroke="none" target-height="16.007965" target-width="23.988037" target-x="367.16498" target-y="466.169"></path><path d="M 367.16 484.16 C 367.16 484.16 367.15 484.16 367.15 484.16 C 366.05 484.16 365.17 483.27 365.17 482.18 C 365.17 481.99 365.49 464.18 391.15 464.18 C 392.26 464.18 393.15 465.07 393.15 466.17 C 393.15 467.27 392.26 468.16 391.15 468.16 C 369.59 468.16 369.17 481.62 369.16 482.19 C 369.14 483.28 368.25 484.16 367.16 484.16 Z" fill="#6e6e96" fill-rule="nonzero" group-id="35" node-id="421" stroke="none" target-height="19.986023" target-width="27.977966" target-x="365.17004" target-y="464.177"></path></g><g node-id="538"><path d="M 454.97 223.04 C 453.95 223.04 452.93 222.65 452.15 221.87 C 446.09 215.81 439.69 212.90 433.35 213.01 C 423.06 213.30 415.50 221.62 415.43 221.70 C 413.96 223.34 411.45 223.49 409.80 222.03 C 408.16 220.57 408.01 218.07 409.46 216.42 C 409.85 215.97 419.27 205.47 433.04 205.04 C 441.73 204.78 450.09 208.54 457.79 216.24 C 459.35 217.79 459.35 220.32 457.79 221.87 C 457.01 222.65 455.99 223.04 454.97 223.04 Z" fill="#6e6e96" fill-rule="nonzero" group-id="36" node-id="426" stroke="none" target-height="18.71901" target-width="51.340973" target-x="408.006" target-y="204.775"></path></g><g node-id="539"><path d="M 569.11 250.64 C 567.78 250.64 566.49 249.98 565.73 248.78 C 561.14 241.50 555.61 237.19 549.28 235.97 C 539.14 234.00 530.04 240.44 529.95 240.51 C 528.17 241.80 525.67 241.39 524.39 239.61 C 523.10 237.83 523.50 235.34 525.28 234.05 C 525.77 233.70 537.29 225.55 550.79 228.14 C 559.37 229.80 566.66 235.31 572.48 244.52 C 573.65 246.38 573.10 248.85 571.24 250.02 C 570.57 250.44 569.84 250.64 569.11 250.64 Z" fill="#6e6e96" fill-rule="nonzero" group-id="37" node-id="431" stroke="none" target-height="25.08699" target-width="50.551025" target-x="523.1" target-y="225.54901"></path></g><g node-id="540"><path d="M 272.09 532.62 C 272.09 532.62 219.79 553.40 214.47 627.82 C 209.16 702.23 230.42 828.47 381.90 828.47 C 533.39 828.47 646.34 799.23 652.98 722.16 C 659.63 645.09 609.13 541.44 609.13 541.44 L 617.90 517.39 C 617.90 517.39 691.21 610.53 674.09 710.20 C 674.09 710.20 663.30 772.97 674.09 803.37 L 661.60 832.97 C 661.60 832.97 470.91 917.11 280.90 851.53 C 280.90 851.53 126.47 794.81 194.39 577.77 L 239.51 494.73 L 282.26 506.63 L 272.09 532.62 Z" fill="#6e6e96" fill-opacity="0.15" fill-rule="nonzero" group-id="38" node-id="436" stroke="none" target-height="422.37698" target-width="564.735" target-x="126.47" target-y="494.728"></path></g><g node-id="541"><path d="M 272.09 532.62 L 357.98 532.62 C 357.98 532.62 431.07 610.54 505.48 548.09 C 505.48 548.09 561.29 589.28 609.13 541.45 L 617.90 517.39 L 577.22 513.63 C 577.22 513.63 538.74 548.82 498.86 520.54 C 498.86 520.54 430.48 578.27 368.32 507.36 L 274.27 507.36 L 272.09 532.62 Z" fill="#6e6e96" fill-opacity="0.15" fill-rule="nonzero" group-id="39" node-id="441" stroke="none" target-height="103.17401" target-width="345.80997" target-x="272.092" target-y="507.364"></path></g><g node-id="542"><path d="M 669.35 606.62 C 669.35 606.62 676.42 481.65 735.38 481.65 C 794.34 481.65 776.28 562.25 776.28 562.25 C 776.28 562.25 805.48 447.12 758.00 441.54 C 710.51 435.97 663.11 513.73 669.35 606.62 Z" fill="#6e6e96" fill-opacity="0.15" fill-rule="nonzero" group-id="40" node-id="446" stroke="none" target-height="170.65" target-width="142.37195" target-x="663.112" target-y="435.97098"></path></g><g node-id="543"><path d="M 687.66 548.61 C 687.66 548.61 728.32 517.92 757.76 618.71 C 787.20 719.50 814.34 811.00 681.95 811.00 C 681.95 811.00 685.09 856.58 780.66 833.79 C 876.22 811.00 786.39 600.11 781.34 574.09 C 776.27 548.08 727.65 490.67 687.66 548.61 Z" fill="#6e6e96" fill-opacity="0.15" fill-rule="nonzero" group-id="41" node-id="451" stroke="none" target-height="365.90695" target-width="194.27399" target-x="681.95" target-y="490.671"></path></g><g node-id="544"><path d="M 532.29 926.51 C 532.29 926.51 582.95 930.94 568.87 963.08 C 554.79 995.22 456.63 967.79 464.45 951.94 C 464.45 951.94 457.66 999.24 524.10 997.23 C 524.10 997.23 599.69 996.63 599.69 966.80 C 599.69 936.96 560.44 926.51 532.29 926.51 Z" fill="#6e6e96" fill-opacity="0.15" fill-rule="nonzero" group-id="42" node-id="456" stroke="none" target-height="72.724" target-width="143.06003" target-x="456.62997" target-y="926.512"></path></g><g node-id="545"><path d="M 407.36 931.82 C 407.36 931.82 456.03 936.00 442.50 966.33 C 428.96 996.66 334.65 970.77 342.17 955.82 C 342.17 955.82 335.64 1000.45 399.48 998.56 C 399.48 998.56 472.11 998.00 472.11 969.84 C 472.11 941.69 434.40 931.82 407.36 931.82 Z" fill="#6e6e96" fill-opacity="0.15" fill-rule="nonzero" group-id="43" node-id="461" stroke="none" target-height="68.62494" target-width="137.45996" target-x="334.653" target-y="931.8221"></path></g><g node-id="546"><path d="M 536.05 889.59 C 536.05 889.59 578.57 899.38 557.31 926.80 L 597.81 956.18 C 597.81 956.18 622.08 919.28 596.66 906.16 C 571.25 893.04 536.05 889.59 536.05 889.59 Z" fill="#6e6e96" fill-opacity="0.15" fill-rule="nonzero" group-id="44" node-id="466" stroke="none" target-height="66.58307" target-width="86.035034" target-x="536.048" target-y="889.594"></path></g><g node-id="547"><path d="M 396.47 892.17 C 396.47 892.17 450.68 893.21 436.89 932.60 L 464.13 950.13 L 464.13 915.02 C 464.13 915.02 448.24 892.17 396.47 892.17 Z" fill="#6e6e96" fill-opacity="0.15" fill-rule="nonzero" group-id="45" node-id="471" stroke="none" target-height="57.950928" target-width="67.656006" target-x="396.471" target-y="892.175"></path></g><g node-id="548"><path d="M 370.35 445.37 C 370.35 445.37 417.78 442.76 417.78 460.39 C 417.78 478.03 378.76 507.39 417.78 512.22 C 456.81 517.04 458.97 475.01 501.50 490.96 C 544.02 506.90 568.24 471.33 579.90 482.98 C 591.55 494.64 598.79 462.88 617.25 468.95 C 635.71 475.01 662.28 435.15 654.31 408.57 C 646.34 381.99 686.21 378.01 671.59 363.39 C 656.97 348.77 671.45 323.40 656.97 308.91 C 642.48 294.42 645.42 263.95 645.42 263.95 C 645.42 263.95 673.16 288.41 673.16 311.11 C 673.16 333.82 678.85 338.78 678.85 346.43 C 678.85 354.09 708.36 368.55 674.94 401.97 C 674.94 401.97 686.14 490.74 619.73 496.16 C 619.73 496.16 605.09 523.04 577.21 513.64 C 577.21 513.64 528.70 550.40 498.86 520.55 C 498.86 520.55 433.13 588.91 368.31 507.37 C 368.31 507.37 265.18 483.88 295.52 416.33 C 295.52 416.33 266.95 387.97 288.88 366.04 C 288.88 366.04 296.85 415.21 314.13 416.54 C 314.13 416.53 292.35 467.56 370.35 445.37 Z" fill="#6e6e96" fill-opacity="0.1" fill-rule="nonzero" group-id="46" node-id="476" stroke="none" target-height="324.95898" target-width="443.187" target-x="265.175" target-y="263.95"></path></g><g node-id="549"><path d="M 327.31 301.79 C 327.31 301.79 314.13 395.27 448.34 385.97 C 448.34 385.97 530.91 519.31 630.48 347.67 C 630.48 347.67 506.81 441.78 448.34 339.46 C 448.35 339.46 369.73 378.40 327.31 301.79 Z" fill="#6e6e96" fill-opacity="0.15" fill-rule="nonzero" group-id="47" node-id="481" stroke="none" target-height="217.52298" target-width="316.343" target-x="314.134" target-y="301.79"></path></g><g node-id="550"><path d="M 459.80 271.14 C 459.80 271.14 443.01 334.17 468.27 319.53 C 493.54 304.89 494.85 287.64 513.45 295.61 C 532.05 303.58 514.46 363.71 469.44 366.20 C 424.43 368.70 435.97 297.76 459.80 271.14 Z" fill="#6e6e96" fill-opacity="0.1" fill-rule="nonzero" group-id="48" node-id="486" stroke="none" target-height="97.551056" target-width="107.62598" target-x="424.427" target-y="271.145"></path></g><g node-id="551"><path d="M 525.70 151.75 C 525.70 151.75 611.12 172.73 611.12 265.05 C 611.12 357.37 520.12 304.72 520.12 304.72 L 520.12 330.32 L 618.32 345.74 C 618.32 345.74 711.36 205.89 525.70 151.75 Z" fill="#6e6e96" fill-opacity="0.1" fill-rule="nonzero" group-id="49" node-id="491" stroke="none" target-height="205.618" target-width="191.24402" target-x="520.117" target-y="151.753"></path></g><g node-id="552"><path d="M 406.16 240.47 C 407.48 233.43 417.31 229.37 428.13 231.39 C 438.95 233.41 446.66 240.75 445.35 247.79 C 444.04 254.82 434.20 258.88 423.38 256.86 C 412.56 254.84 404.85 247.50 406.16 240.47 Z" fill="#ffffff" fill-opacity="0.13" fill-rule="nonzero" group-id="50" node-id="496" stroke="none" target-height="29.513016" target-width="41.815002" target-x="404.848" target-y="229.368"></path></g><path d="M 522.01 261.16 C 523.75 254.22 533.82 250.78 544.49 253.46 C 555.16 256.15 562.40 263.95 560.65 270.89 C 558.91 277.83 548.84 281.28 538.16 278.59 C 527.49 275.90 520.26 268.10 522.01 261.16 Z" fill="#ffffff" fill-opacity="0.13" fill-rule="nonzero" group-id="51" node-id="501" stroke="none" target-height="30.502014" target-width="42.141968" target-x="520.257" target-y="250.775"></path></svg>