<?xml version='1.0' encoding='utf-8'?>
<svg xmlns="http://www.w3.org/2000/svg" enable-background="new 102.5 201.5 452 385" version="1.1" viewBox="102.5 201.5 452 385"> <path d="m345.28 226.68c-108.88 0-197.14 65.957-197.14 147.29 0 20.273 5.492 39.574 15.43 57.191l-38.109 135.4 133.38-60.25c26.098 9.569 55.414 14.922 86.445 14.922 108.89 0 197.12-65.938 197.12-147.27-0.01-81.33-88.23-147.28-197.12-147.28zm5.34 273.18c-28.414 0-55.629-4.703-80.941-13.949l-6.16-2.246s-71.234 32.195-107.92 48.75c10.633-37.781 30.566-108.69 30.566-108.69l-3.301-5.824c-8.848-15.681-13.34-32.267-13.34-49.301 0-72.368 81.246-131.26 181.1-131.26 99.858 0 181.09 58.891 181.09 131.26-0.01 72.38-81.24 131.26-181.1 131.26z"/> <path d="m135.55 345.6-0.207 0.203-0.73-2.707c0.2 1.05 0.41 1.57 0.94 2.51z" fill="#fff"/> <path d="m169.52 368.6c0 17.034 4.492 33.62 13.34 49.301l3.301 5.824s-19.934 70.905-30.566 108.69c36.688-16.555 107.92-48.75 107.92-48.75l6.16 2.246c25.312 9.246 52.527 13.949 80.941 13.949 99.858 0 181.09-58.888 181.09-131.26 0-72.367-81.23-131.26-181.09-131.26-99.84 0.01-181.09 58.9-181.09 131.26z" fill="#fff"/> </svg>