<?xml version="1.0" standalone="no"?><!DOCTYPE svg PUBLIC "-//W3C//DTD SVG 1.1//EN" "http://www.w3.org/Graphics/SVG/1.1/DTD/svg11.dtd"><svg height="1024" node-id="1" sillyvg="true" template-height="1024" template-width="1024" version="1.1" viewBox="0 0 1024 1024" width="1024" xmlns="http://www.w3.org/2000/svg" xmlns:xlink="http://www.w3.org/1999/xlink"><defs node-id="26"></defs><path d="M 0.00 0.00 L 1024.00 0.00 L 1024.00 1024.00 L 0.00 1024.00 Z" fill="none" node-id="29" stroke="none" target-height="1024" target-width="1024" target-x="0" target-y="0"></path><g node-id="58"><path d="M 628.00 621.00 C 619.00 572.00 657.00 536.00 695.00 529.00 C 745.00 519.00 784.00 551.00 790.00 593.00 C 805.00 701.00 645.00 713.00 628.00 621.00 Z M 440.00 366.00 C 557.00 334.00 589.00 506.00 480.00 529.00 C 366.00 555.00 324.00 397.00 440.00 366.00 Z M 437.00 682.00 C 443.00 667.00 480.00 621.00 492.00 604.00 L 577.00 487.00 C 595.00 466.00 658.00 373.00 665.00 370.00 L 745.00 368.00 C 741.00 386.00 666.00 485.00 649.00 506.00 C 637.00 521.00 627.00 536.00 616.00 552.00 L 535.00 663.00 C 529.00 672.00 527.00 680.00 515.00 682.00 C 504.00 684.00 449.00 683.00 437.00 682.00 Z M 248.00 720.00 C 255.00 768.00 324.00 758.00 373.00 758.00 C 427.00 757.00 481.00 758.00 535.00 758.00 C 577.00 758.00 833.00 762.00 852.00 754.00 C 852.00 749.00 851.00 751.00 857.00 752.00 C 862.00 748.00 860.00 749.00 865.00 746.00 L 869.00 744.00 L 872.00 741.00 L 874.00 738.00 L 877.00 734.00 L 878.00 730.00 L 881.00 725.00 L 886.00 715.00 L 887.00 304.00 L 248.00 303.00 L 248.00 720.00 Z" fill="#fdfef9" fill-rule="evenodd" group-id="1" node-id="32" stroke="none" target-height="465" target-width="639" target-x="248" target-y="303"></path><path d="M 694.00 918.00 L 662.00 918.00 L 663.00 801.00 L 695.00 800.00 L 698.00 878.00 C 726.00 881.00 768.00 869.00 770.00 900.00 C 773.00 926.00 754.00 919.00 694.00 918.00 Z M 457.00 802.00 L 491.00 800.00 L 490.00 911.00 C 489.00 918.00 491.00 913.00 488.00 917.00 C 475.00 922.00 401.00 921.00 388.00 917.00 C 371.00 871.00 431.00 881.00 440.00 880.00 C 468.00 879.00 451.00 864.00 457.00 802.00 Z M 172.00 206.00 C 124.00 207.00 115.00 121.00 183.00 107.00 C 215.00 100.00 692.00 104.00 747.00 105.00 C 808.00 105.00 879.00 93.00 888.00 152.00 L 889.00 340.00 C 888.00 387.00 892.00 699.00 886.00 715.00 C 884.00 725.00 886.00 720.00 881.00 725.00 C 881.00 732.00 883.00 729.00 878.00 730.00 L 877.00 734.00 L 874.00 738.00 L 872.00 741.00 L 869.00 744.00 L 865.00 746.00 L 857.00 752.00 L 852.00 754.00 C 833.00 762.00 577.00 758.00 535.00 758.00 C 481.00 758.00 427.00 757.00 373.00 758.00 C 324.00 758.00 255.00 768.00 248.00 720.00 C 238.00 703.00 251.00 361.00 245.00 304.00 L 244.00 176.00 C 207.00 174.00 208.00 177.00 207.00 192.00 C 206.00 197.00 207.00 203.00 206.00 209.00 C 188.00 215.00 176.00 208.00 176.00 208.00 L 172.00 206.00 Z M 528.00 943.00 C 535.00 911.00 522.00 830.00 532.00 801.00 C 547.00 796.00 605.00 800.00 623.00 800.00 C 627.00 838.00 616.00 908.00 623.00 940.00 C 626.00 967.00 672.00 961.00 703.00 961.00 C 733.00 961.00 773.00 968.00 794.00 950.00 C 813.00 935.00 823.00 903.00 807.00 874.00 C 791.00 843.00 761.00 842.00 738.00 839.00 L 738.00 801.00 C 769.00 800.00 836.00 804.00 861.00 796.00 C 893.00 786.00 917.00 764.00 926.00 732.00 C 936.00 702.00 931.00 289.00 931.00 221.00 C 931.00 179.00 937.00 139.00 915.00 107.00 C 898.00 82.00 874.00 64.00 828.00 63.00 C 655.00 61.00 481.00 63.00 309.00 63.00 C 216.00 63.00 142.00 48.00 103.00 117.00 C 85.00 147.00 89.00 192.00 110.00 217.00 C 133.00 246.00 158.00 250.00 190.00 252.00 C 210.00 253.00 204.00 252.00 204.00 294.00 L 204.00 630.00 C 204.00 700.00 195.00 751.00 243.00 783.00 C 289.00 813.00 355.00 798.00 416.00 801.00 C 414.00 868.00 411.00 827.00 373.00 848.00 C 363.00 854.00 355.00 862.00 349.00 873.00 C 333.00 902.00 339.00 931.00 359.00 948.00 C 383.00 967.00 410.00 962.00 445.00 961.00 C 475.00 961.00 522.00 968.00 528.00 943.00 Z" fill="#010101" fill-rule="evenodd" group-id="1" node-id="34" stroke="none" target-height="920" target-width="852" target-x="85" target-y="48"></path><path d="M 172.00 206.00 L 202.00 207.00 C 202.00 190.00 205.00 186.00 197.00 174.00 C 171.00 137.00 230.00 113.00 246.00 148.00 C 250.00 157.00 249.00 294.00 245.00 304.00 C 251.00 361.00 238.00 703.00 248.00 720.00 L 248.00 303.00 L 887.00 304.00 L 886.00 715.00 L 881.00 725.00 L 878.00 730.00 L 877.00 734.00 L 874.00 738.00 L 872.00 741.00 L 869.00 744.00 L 865.00 746.00 C 860.00 749.00 862.00 748.00 857.00 752.00 C 851.00 751.00 852.00 749.00 852.00 754.00 L 857.00 752.00 L 865.00 746.00 L 869.00 744.00 L 872.00 741.00 L 874.00 738.00 L 877.00 734.00 L 878.00 730.00 C 883.00 729.00 881.00 732.00 881.00 725.00 C 886.00 720.00 884.00 725.00 886.00 715.00 C 892.00 699.00 888.00 387.00 889.00 340.00 L 888.00 152.00 C 879.00 93.00 808.00 105.00 747.00 105.00 C 692.00 104.00 215.00 100.00 183.00 107.00 C 115.00 121.00 124.00 207.00 172.00 206.00 Z" fill="#fd6ab2" fill-rule="evenodd" group-id="1" node-id="36" stroke="none" target-height="661" target-width="777" target-x="115" target-y="93"></path><path d="M 437.00 682.00 C 449.00 683.00 504.00 684.00 515.00 682.00 C 527.00 680.00 529.00 672.00 535.00 663.00 L 616.00 552.00 C 627.00 536.00 637.00 521.00 649.00 506.00 C 666.00 485.00 741.00 386.00 745.00 368.00 L 665.00 370.00 C 658.00 373.00 595.00 466.00 577.00 487.00 L 492.00 604.00 C 480.00 621.00 443.00 667.00 437.00 682.00 Z" fill="#010101" fill-rule="evenodd" group-id="1" node-id="38" stroke="none" target-height="316" target-width="308" target-x="437" target-y="368"></path><path d="M 448.00 418.00 C 484.00 401.00 501.00 465.00 469.00 475.00 C 425.00 487.00 421.00 432.00 448.00 418.00 Z M 440.00 366.00 C 324.00 397.00 366.00 555.00 480.00 529.00 C 589.00 506.00 557.00 334.00 440.00 366.00 Z" fill="#010101" fill-rule="evenodd" group-id="1" node-id="40" stroke="none" target-height="221" target-width="265" target-x="324" target-y="334"></path><path d="M 704.00 580.00 C 736.00 571.00 744.00 625.00 716.00 632.00 C 679.00 640.00 674.00 589.00 704.00 580.00 Z M 628.00 621.00 C 645.00 713.00 805.00 701.00 790.00 593.00 C 784.00 551.00 745.00 519.00 695.00 529.00 C 657.00 536.00 619.00 572.00 628.00 621.00 Z" fill="#010101" fill-rule="evenodd" group-id="1" node-id="42" stroke="none" target-height="194" target-width="186" target-x="619" target-y="519"></path><path d="M 694.00 918.00 C 754.00 919.00 773.00 926.00 770.00 900.00 C 768.00 869.00 726.00 881.00 698.00 878.00 L 695.00 800.00 L 663.00 801.00 L 662.00 918.00 L 694.00 918.00 Z" fill="#fce201" fill-rule="evenodd" group-id="1" node-id="44" stroke="none" target-height="126" target-width="111" target-x="662" target-y="800"></path><path d="M 457.00 802.00 C 451.00 864.00 468.00 879.00 440.00 880.00 C 431.00 881.00 371.00 871.00 388.00 917.00 C 401.00 921.00 475.00 922.00 488.00 917.00 C 491.00 913.00 489.00 918.00 490.00 911.00 L 491.00 800.00 L 457.00 802.00 Z" fill="#fce201" fill-rule="evenodd" group-id="1" node-id="46" stroke="none" target-height="122" target-width="120" target-x="371" target-y="800"></path><path d="M 172.00 206.00 L 176.00 208.00 C 176.00 208.00 188.00 215.00 206.00 209.00 C 207.00 203.00 206.00 197.00 207.00 192.00 C 208.00 177.00 207.00 174.00 244.00 176.00 L 245.00 304.00 C 249.00 294.00 250.00 157.00 246.00 148.00 C 230.00 113.00 171.00 137.00 197.00 174.00 C 205.00 186.00 202.00 190.00 202.00 207.00 L 172.00 206.00 Z" fill="#9d3465" fill-rule="evenodd" group-id="1" node-id="48" stroke="none" target-height="191" target-width="79" target-x="171" target-y="113"></path><path d="M 448.00 418.00 C 421.00 432.00 425.00 487.00 469.00 475.00 C 501.00 465.00 484.00 401.00 448.00 418.00 Z" fill="#fdfef9" fill-rule="evenodd" group-id="1" node-id="50" stroke="none" target-height="86" target-width="80" target-x="421" target-y="401"></path><path d="M 704.00 580.00 C 674.00 589.00 679.00 640.00 716.00 632.00 C 744.00 625.00 736.00 571.00 704.00 580.00 Z" fill="#fdfef9" fill-rule="evenodd" group-id="1" node-id="52" stroke="none" target-height="69" target-width="70" target-x="674" target-y="571"></path><path d="M 528.00 943.00 C 543.00 927.00 527.00 848.00 535.00 802.00 L 619.00 802.00 C 623.00 828.00 618.00 890.00 619.00 923.00 C 619.00 934.00 617.00 934.00 623.00 940.00 C 616.00 908.00 627.00 838.00 623.00 800.00 C 605.00 800.00 547.00 796.00 532.00 801.00 C 522.00 830.00 535.00 911.00 528.00 943.00 Z" fill="#564809" fill-rule="evenodd" group-id="1" node-id="54" stroke="none" target-height="147" target-width="105" target-x="522" target-y="796"></path><path d="M 401.00 141.00 C 424.00 143.00 436.00 149.00 437.00 160.00 C 436.00 169.00 431.00 174.00 424.00 173.00 C 422.00 173.00 418.00 173.00 414.00 172.00 C 410.00 170.00 405.00 168.00 399.00 168.00 C 389.00 168.00 384.00 172.00 384.00 179.00 C 383.00 185.00 390.00 190.00 405.00 194.00 C 432.00 203.00 446.00 217.00 446.00 236.00 C 443.00 263.00 427.00 276.00 396.00 277.00 C 366.00 276.00 351.00 269.00 351.00 257.00 C 352.00 249.00 356.00 244.00 364.00 244.00 C 368.00 244.00 372.00 245.00 376.00 247.00 C 384.00 250.00 390.00 251.00 395.00 252.00 C 408.00 252.00 414.00 247.00 415.00 236.00 C 415.00 230.00 407.00 225.00 392.00 220.00 C 366.00 212.00 353.00 199.00 353.00 182.00 C 355.00 156.00 371.00 142.00 401.00 141.00 Z" fill="#fefefe" fill-rule="nonzero" group-id="1" node-id="56" stroke="none" target-height="136" target-width="95" target-x="351" target-y="141"></path><path d="M 460.00 259.00 L 500.00 158.00 C 504.00 148.00 510.00 143.00 520.00 143.00 C 529.00 144.00 536.00 149.00 540.00 159.00 L 575.00 262.00 C 576.00 265.00 576.00 267.00 576.00 269.00 C 576.00 276.00 571.00 280.00 563.00 280.00 C 556.00 280.00 551.00 277.00 549.00 271.00 L 544.00 253.00 L 492.00 252.00 L 486.00 269.00 C 483.00 275.00 479.00 278.00 472.00 278.00 C 464.00 278.00 459.00 274.00 459.00 266.00 C 459.00 265.00 459.00 263.00 459.00 261.00 C 459.00 260.00 460.00 260.00 460.00 259.00 Z M 520.00 172.00 L 501.00 226.00 L 536.00 227.00 L 520.00 172.00 Z" fill="#fefefe" fill-rule="nonzero" group-id="1" id="1" node-id="22" stroke="none" target-height="137" target-width="117" target-x="459" target-y="143"></path><path d="M 595.00 265.00 L 598.00 160.00 C 598.00 150.00 602.00 146.00 612.00 145.00 C 621.00 146.00 625.00 151.00 625.00 160.00 L 624.00 255.00 L 657.00 256.00 C 665.00 256.00 670.00 261.00 670.00 269.00 C 669.00 277.00 664.00 282.00 656.00 281.00 L 609.00 280.00 C 600.00 280.00 595.00 275.00 595.00 265.00 Z" fill="#fefefe" fill-rule="nonzero" group-id="1" id="2" node-id="23" stroke="none" target-height="137" target-width="75" target-x="595" target-y="145"></path><path d="M 686.00 268.00 L 688.00 164.00 C 688.00 154.00 693.00 149.00 702.00 148.00 L 749.00 149.00 C 757.00 150.00 761.00 154.00 762.00 162.00 C 761.00 171.00 756.00 175.00 748.00 175.00 L 715.00 174.00 L 715.00 202.00 L 746.00 202.00 C 754.00 203.00 759.00 208.00 759.00 216.00 C 758.00 224.00 754.00 228.00 745.00 229.00 L 714.00 228.00 L 714.00 257.00 L 748.00 257.00 C 757.00 258.00 761.00 262.00 761.00 270.00 C 760.00 279.00 756.00 283.00 748.00 283.00 L 699.00 282.00 C 690.00 281.00 686.00 277.00 686.00 268.00 Z" fill="#fefefe" fill-rule="nonzero" group-id="1" id="3" node-id="24" stroke="none" target-height="135" target-width="76" target-x="686" target-y="148"></path></g></svg>