<?xml version="1.0" standalone="no"?><!DOCTYPE svg PUBLIC "-//W3C//DTD SVG 1.1//EN" "http://www.w3.org/Graphics/SVG/1.1/DTD/svg11.dtd"><svg height="260" node-id="1" sillyvg="true" template-height="260" template-width="349" version="1.1" viewBox="0 0 349 260" width="349" xmlns="http://www.w3.org/2000/svg" xmlns:xlink="http://www.w3.org/1999/xlink"><defs node-id="10"></defs><g node-id="12"><path d="M 78.00 235.00 C 78.00 235.00 62.18 238.67 48.77 238.57 C 37.72 238.49 25.69 237.81 25.69 237.81 L 1.00 244.84 C 1.00 244.84 18.35 250.90 37.99 248.39 C 56.84 245.98 78.00 235.00 78.00 235.00 Z" fill="#e22b2b" fill-rule="evenodd" group-id="1" id="形状_1826" node-id="6" stroke="none" target-height="15.900558" target-width="77" target-x="1" target-y="235"></path><path d="M 349.00 9.99 L 342.82 0.00 L 214.51 51.68 L 224.20 62.52 L 241.40 68.90 C 241.40 68.90 200.31 121.47 160.59 163.37 C 140.95 183.93 119.88 203.07 97.54 220.65 C 97.54 220.65 75.33 238.91 50.81 245.01 C 27.19 250.90 1.23 244.65 1.23 244.65 L 0.00 255.01 C 0.00 255.01 17.33 258.07 30.49 259.48 C 39.68 260.46 52.24 259.76 52.24 259.76 L 179.99 213.59 L 349.00 9.99 Z" fill="#ff6161" fill-rule="evenodd" group-id="1" id="形状_1826-2" node-id="7" stroke="none" target-height="260.45898" target-width="349" target-x="0" target-y="0"></path><path d="M 349.35 10.00 L 353.00 111.28 L 327.69 100.65 C 327.69 100.65 253.02 174.42 200.99 217.16 C 161.86 249.30 140.95 253.57 140.95 253.57 C 140.95 253.57 123.63 257.38 106.32 258.52 C 77.98 260.38 44.00 259.96 44.00 259.96 C 44.00 259.96 67.93 255.94 95.18 237.71 C 123.42 218.83 155.01 185.72 155.01 185.72 C 155.01 185.72 175.28 163.55 196.01 139.82 C 222.92 109.03 251.93 74.82 251.93 74.82 L 223.67 62.57 L 349.35 10.00 Z" fill="#e22b2b" fill-rule="evenodd" group-id="1" id="形状_1825" node-id="8" stroke="none" target-height="250.38474" target-width="309" target-x="44" target-y="10"></path></g></svg>