<?xml version="1.0" standalone="no"?><!DOCTYPE svg PUBLIC "-//W3C//DTD SVG 1.1//EN" "http://www.w3.org/Graphics/SVG/1.1/DTD/svg11.dtd"><svg height="200" node-id="1" sillyvg="true" template-height="200" template-width="200" version="1.1" viewBox="0 0 200 200" width="200" xmlns="http://www.w3.org/2000/svg" xmlns:xlink="http://www.w3.org/1999/xlink"><defs node-id="35"><clipPath id="clip-path" node-id="5"><path d="M 198.00 101.00 C 198.00 155.12 154.12 199.00 100.00 199.00 C 45.88 199.00 2.00 155.12 2.00 101.00 C 2.00 46.88 45.88 3.00 100.00 3.00 C 154.12 3.00 198.00 46.88 198.00 101.00 Z" fill="#000000" fill-rule="nonzero" node-id="38" stroke="none" target-height="196" target-width="196" target-x="2" target-y="3"></path></clipPath></defs><path d="M 201.00 101.00 C 201.00 156.78 155.78 202.00 100.00 202.00 C 44.22 202.00 -1.00 156.78 -1.00 101.00 C -1.00 45.22 44.22 0.00 100.00 0.00 C 155.78 0.00 201.00 45.22 201.00 101.00 Z" fill="#5b1d96" fill-rule="nonzero" node-id="42" stroke="none" target-height="202" target-width="202" target-x="-1" target-y="0"></path><path d="M 100.00 200.50 C 45.05 200.50 0.50 155.95 0.50 101.00 C 0.50 46.05 45.05 1.50 100.00 1.50 C 154.95 1.50 199.50 46.05 199.50 101.00 C 199.44 155.93 154.93 200.44 100.00 200.50 Z" fill="#ffffff" fill-rule="nonzero" node-id="44" stroke="none" target-height="199" target-width="199" target-x="0.5" target-y="1.5"></path><path d="M 100.00 3.00 C 154.12 3.00 198.00 46.88 198.00 101.00 C 198.00 155.12 154.12 199.00 100.00 199.00 C 45.88 199.00 2.00 155.12 2.00 101.00 C 2.00 46.88 45.88 3.00 100.00 3.00 M 100.00 0.00 C 44.22 0.00 -1.00 45.22 -1.00 101.00 C -1.00 156.78 44.22 202.00 100.00 202.00 C 155.78 202.00 201.00 156.78 201.00 101.00 C 200.94 45.24 155.76 0.06 100.00 0.00 Z" fill="#000000" fill-rule="nonzero" node-id="46" stroke="none" target-height="202" target-width="202" target-x="-1" target-y="0"></path><g node-id="104"><g clip-path="url(#clip-path)" group-id="1" id="sillyvg_g_0" node-id="48"><path d="M 139.81 84.81 L 168.50 29.25 L 109.79 6.39 L 118.20 28.37 L 34.82 60.30 L 48.27 95.44 L 131.66 63.51 L 139.81 84.81 Z" fill="#ffbd66" fill-rule="nonzero" group-id="1" node-id="50" stroke="none" target-height="89.05" target-width="133.68" target-x="34.82" target-y="6.39"></path><path d="M 80.37 106.16 L 105.10 108.24 C 111.71 108.80 116.61 114.60 116.05 121.21 L 112.23 166.56 C 111.67 173.16 105.87 178.06 99.26 177.51 L 74.53 175.42 C 67.93 174.86 63.02 169.06 63.58 162.45 L 67.40 117.11 C 67.96 110.50 73.77 105.60 80.37 106.16 Z" fill="#ff4848" fill-rule="nonzero" group-id="1,2" node-id="54" stroke="#0c0c0c" stroke-linecap="butt" stroke-width="2.79" target-height="72.46345" target-width="53.585102" target-x="63.02287" target-y="105.598915"></path><path d="M 66.72 125.30 C 66.72 125.30 39.55 117.74 62.83 90.58" fill="none" group-id="1" node-id="57" stroke="#0c0c0c" stroke-linecap="round" stroke-width="2.79" target-height="34.719994" target-width="27.170002" target-x="39.55" target-y="90.58"></path><path d="M 71.23 175.14 C 71.23 175.14 66.06 183.70 66.71 189.52" fill="none" group-id="1" node-id="59" stroke="#0c0c0c" stroke-linecap="round" stroke-width="2.79" target-height="14.37999" target-width="5.170006" target-x="66.06" target-y="175.14"></path><path d="M 100.53 177.61 C 100.53 177.61 106.15 181.76 102.27 189.52" fill="none" group-id="1" node-id="61" stroke="#0c0c0c" stroke-linecap="round" stroke-width="2.79" target-height="11.909988" target-width="5.6200027" target-x="100.53" target-y="177.61"></path><path d="M 60.00 193.14 C 60.71 195.33 65.58 195.63 67.39 194.83 C 72.39 192.64 61.32 185.62 59.96 192.12 C 59.88 192.46 59.90 192.81 60.00 193.14 Z" fill="#ffffff" fill-rule="nonzero" group-id="1" node-id="63" stroke="#0c0c0c" stroke-linecap="round" stroke-width="2.79" target-height="10.01001" target-width="12.505119" target-x="59.88488" target-y="185.62"></path><path d="M 100.10 193.78 C 100.81 195.97 105.58 195.96 107.49 195.47 C 112.34 194.23 101.28 187.18 100.06 192.76 C 99.98 193.10 99.99 193.45 100.10 193.78 Z" fill="#ffffff" fill-rule="nonzero" group-id="1" node-id="65" stroke="#0c0c0c" stroke-linecap="round" stroke-width="2.79" target-height="8.790009" target-width="12.359451" target-x="99.980545" target-y="187.18"></path><path d="M 139.13 82.17 C 139.13 82.17 140.80 122.52 115.71 125.30" fill="none" group-id="1" node-id="67" stroke="#0c0c0c" stroke-linecap="round" stroke-width="2.79" target-height="43.129997" target-width="25.089996" target-x="115.71001" target-y="82.17"></path><path d="M 57.67 84.81 C 58.24 87.00 59.73 88.83 61.76 89.82 C 63.79 90.82 66.15 90.88 68.23 90.00" fill="none" group-id="1" node-id="69" stroke="#0c0c0c" stroke-linecap="round" stroke-width="2.79" target-height="6.07444" target-width="10.560001" target-x="57.670002" target-y="84.81"></path><path d="M 65.00 83.47 C 65.42 85.77 64.79 88.14 63.30 89.94" fill="none" group-id="1" node-id="71" stroke="#0c0c0c" stroke-linecap="round" stroke-width="2.79" target-height="6.470001" target-width="2.1166496" target-x="63.3" target-y="83.47"></path><path d="M 133.34 79.57 C 135.23 80.80 137.37 81.60 139.61 81.90 C 141.86 82.03 144.35 80.90 144.98 78.70" fill="none" group-id="1" node-id="73" stroke="#0c0c0c" stroke-linecap="round" stroke-width="2.79" target-height="3.3300018" target-width="11.639999" target-x="133.34" target-y="78.7"></path><path d="M 138.64 74.44 L 138.45 74.00 C 139.20 76.06 139.51 78.26 139.36 80.45" fill="none" group-id="1" node-id="75" stroke="#0c0c0c" stroke-linecap="round" stroke-width="2.79" target-height="6.449997" target-width="1.0597382" target-x="138.45" target-y="74"></path><path d="M 79.64 99.85 C 80.80 98.56 82.43 97.78 84.16 97.69" fill="none" group-id="1" node-id="77" stroke="#0c0c0c" stroke-linecap="round" stroke-width="2.79" target-height="2.1599884" target-width="4.5200043" target-x="79.64" target-y="97.69"></path><path d="M 105.52 98.31 C 106.87 98.77 108.06 99.61 108.95 100.72" fill="none" group-id="1" node-id="79" stroke="#0c0c0c" stroke-linecap="round" stroke-width="2.79" target-height="2.4100113" target-width="3.4300003" target-x="105.52" target-y="98.31"></path><path d="M 91.88 117.79 C 92.38 117.87 92.81 118.34 93.06 119.12 C 93.31 119.89 93.36 120.90 93.20 121.92 C 93.04 122.93 92.69 123.88 92.22 124.54 C 91.75 125.21 91.20 125.53 90.69 125.45 C 90.18 125.38 89.76 124.90 89.51 124.12 C 89.26 123.35 89.21 122.34 89.37 121.32 C 89.52 120.31 89.88 119.36 90.35 118.70 C 90.82 118.04 91.37 117.71 91.88 117.79 Z" fill="#ffffff" fill-rule="nonzero" group-id="1,3" node-id="83" stroke="none" target-height="7.826088" target-width="4.149185" target-x="89.2083" target-y="117.70761"></path><path d="M 83.52 116.77 C 83.52 117.71 83.21 118.62 82.67 119.29 C 82.12 119.95 81.38 120.33 80.61 120.33 C 79.84 120.33 79.10 119.95 78.55 119.29 C 78.01 118.62 77.70 117.71 77.70 116.77 C 77.70 115.83 78.01 114.92 78.55 114.25 C 79.10 113.59 79.84 113.21 80.61 113.21 C 81.38 113.21 82.12 113.59 82.67 114.25 C 83.21 114.92 83.52 115.83 83.52 116.77 Z" fill="#ffffff" fill-rule="nonzero" group-id="1" node-id="86" stroke="#000000" stroke-linecap="butt" stroke-width="0.65" target-height="7.119995" target-width="5.8200073" target-x="77.7" target-y="113.21"></path><path d="M 82.86 113.88 C 83.29 114.30 83.53 114.88 83.53 115.48 C 83.53 116.08 83.29 116.65 82.86 117.08 C 82.44 117.50 81.87 117.74 81.27 117.74 C 80.67 117.74 80.09 117.50 79.67 117.08 C 79.24 116.65 79.01 116.08 79.01 115.48 C 79.01 114.88 79.24 114.30 79.67 113.88 C 80.09 113.46 80.67 113.22 81.27 113.22 C 81.87 113.22 82.44 113.46 82.86 113.88 Z" fill="#000000" fill-rule="nonzero" group-id="1,4" node-id="90" stroke="none" target-height="4.520012" target-width="4.5200043" target-x="79.0062" target-y="113.217186"></path><path d="M 104.86 118.06 C 104.86 119.00 104.55 119.91 104.01 120.58 C 103.46 121.24 102.72 121.62 101.95 121.62 C 101.18 121.62 100.44 121.24 99.89 120.58 C 99.35 119.91 99.04 119.00 99.04 118.06 C 99.04 117.12 99.35 116.21 99.89 115.54 C 100.44 114.88 101.18 114.50 101.95 114.50 C 102.72 114.50 103.46 114.88 104.01 115.54 C 104.55 116.21 104.86 117.12 104.86 118.06 Z" fill="#ffffff" fill-rule="nonzero" group-id="1" node-id="93" stroke="#000000" stroke-linecap="butt" stroke-width="0.65" target-height="7.1199875" target-width="5.8199997" target-x="99.03999" target-y="114.50001"></path><path d="M 104.20 115.17 C 104.62 115.60 104.86 116.17 104.86 116.77 C 104.86 117.37 104.62 117.94 104.20 118.37 C 103.77 118.79 103.20 119.03 102.60 119.03 C 102.00 119.03 101.42 118.79 101.00 118.37 C 100.58 117.94 100.34 117.37 100.34 116.77 C 100.34 116.17 100.58 115.60 101.00 115.17 C 101.42 114.75 102.00 114.51 102.60 114.51 C 103.20 114.51 103.77 114.75 104.20 115.17 Z" fill="#000000" fill-rule="nonzero" group-id="1,5" node-id="97" stroke="none" target-height="4.5200195" target-width="4.5200195" target-x="100.338" target-y="114.5097"></path><path d="M 66.71 120.33 C 66.71 120.33 79.01 132.38 88.71 133.26 C 102.94 134.55 115.55 123.88 115.55 123.88" fill="none" group-id="1" node-id="100" stroke="#0c0c0c" stroke-linecap="butt" stroke-width="1.94" target-height="14.220001" target-width="48.840004" target-x="66.71" target-y="120.33"></path><path d="M 96.78 135.52 C 96.78 137.24 96.10 138.88 94.88 140.09 C 93.67 141.31 92.03 141.99 90.31 141.99 C 88.59 141.99 86.95 141.31 85.74 140.09 C 84.52 138.88 83.84 137.24 83.84 135.52 C 83.84 133.80 84.52 132.16 85.74 130.95 C 86.95 129.73 88.59 129.05 90.31 129.05 C 92.03 129.05 93.67 129.73 94.88 130.95 C 96.10 132.16 96.78 133.80 96.78 135.52 Z" fill="#ffbd66" fill-rule="nonzero" group-id="1" node-id="102" stroke="#0c0c0c" stroke-linecap="butt" stroke-width="1.94" target-height="12.940002" target-width="12.940002" target-x="83.84" target-y="129.05"></path></g></g></svg>