<?xml version='1.0' encoding='utf-8'?>
<svg xmlns="http://www.w3.org/2000/svg" viewBox="0 0 103.12 102.67"> <g transform="translate(-226.82 -431.17)" stroke-dashoffset="3.003" stroke-linecap="round" stroke-linejoin="round" stroke-width="2"> <path d="m305.95 462.26-24.73-28.278-23.584 28.528 13.46-0.62322c5.1977 29.349-27.745 49.362-36.916 54.288l17.363 16.462c17.223-10.986 29.168-24.962 31.423-36.694 7.8966 16.402 21.68 29.161 32.864 36.901l13.11-22.179c-25.713-16.126-36.997-22.172-38.218-48.03z" fill="#ccc" stroke="#ccc"/> <path d="m301.46 460.45-24.73-28.278-25.458 29.278 13.46-0.62322c5.1977 29.349-27.745 49.362-36.916 54.288l17.363 16.462c17.223-10.986 30.48-23.838 32.735-35.569 7.8966 16.402 20.368 28.036 31.552 35.776l14.234-21.617c-25.713-16.126-34.748-23.859-35.969-49.716z" fill="#fff" stroke="#000"/> </g> </svg>