<?xml version="1.0" encoding="UTF-8"?>
<svg version="1.1" xmlns="http://www.w3.org/2000/svg" width="400" height="300">
<path d="M0 0 C3.0782296 0.68975145 4.36860294 1.43649727 6.62402344 3.60864258 C7.30126465 4.24882324 7.97850586 4.88900391 8.67626953 5.54858398 C9.36672363 6.23227051 10.05717773 6.91595703 10.76855469 7.62036133 C11.45771973 8.28471191 12.14688477 8.9490625 12.85693359 9.63354492 C14.95273777 11.6715 17.01984 13.73496837 19.08105469 15.80786133 C19.78294922 16.50588867 20.48484375 17.20391602 21.20800781 17.9230957 C22.22217773 18.93919922 22.22217773 18.93919922 23.25683594 19.97583008 C23.86052002 20.58064209 24.4642041 21.1854541 25.08618164 21.80859375 C26.81985167 23.67560365 28.38091914 25.4810115 29.76855469 27.62036133 C29.45605469 30.37036133 29.45605469 30.37036133 28.76855469 32.62036133 C26.61352539 33.42871094 26.61352539 33.42871094 23.76855469 33.62036133 C21.64241238 32.03481293 20.04129302 30.59532376 18.24902344 28.68676758 C17.74558914 28.1748436 17.24215485 27.66291962 16.72346497 27.13548279 C15.11970415 25.49815086 13.5380493 23.84120657 11.95605469 22.18286133 C10.87216166 21.06887364 9.78689012 19.95622543 8.70019531 18.8449707 C6.04007344 16.118716 3.39959167 13.37468371 0.76855469 10.62036133 C-3.49518017 12.2717578 -6.34632918 15.46488365 -9.49316406 18.65161133 C-10.08442581 19.2433313 -10.67568756 19.83505127 -11.28486633 20.44470215 C-12.53025897 21.69310942 -13.77322675 22.94393981 -15.01391602 24.19702148 C-16.91727809 26.11867808 -18.82855917 28.03217393 -20.74121094 29.94458008 C-21.950669 31.15895224 -23.15966937 32.37378045 -24.36816406 33.58911133 C-24.9410466 34.16310669 -25.51392914 34.73710205 -26.10417175 35.32849121 C-29.02388876 38.20576321 -29.02388876 38.20576321 -31.23144531 41.62036133 C-29.45618721 41.61369949 -29.45618721 41.61369949 -27.64506531 41.60690308 C-16.50588957 41.56640571 -5.36672872 41.53640037 5.77250385 41.51673698 C11.49965286 41.50628811 17.22674255 41.49210877 22.95385742 41.46948242 C28.47812167 41.44779342 34.00232878 41.43580102 39.52663231 41.43060684 C41.63701464 41.42690399 43.74739376 41.41967351 45.85775185 41.40890121 C48.80766244 41.39443875 51.7573352 41.39238119 54.70727539 41.39331055 C55.58480972 41.38612 56.46234406 41.37892944 57.36647034 41.371521 C63.4263982 41.39225701 63.4263982 41.39225701 66.76855469 43.62036133 C67.70605469 46.37036133 67.70605469 46.37036133 67.76855469 49.62036133 C64.58207904 55.41395342 59.88629975 59.76515817 55.20605469 64.37036133 C54.43841797 65.13735352 53.67078125 65.9043457 52.87988281 66.69458008 C47.19128767 72.33853934 47.19128767 72.33853934 43.76855469 74.62036133 C39.54011174 74.52672448 37.32953186 74.04457134 33.93261719 71.47583008 C33.09472656 70.59540039 32.25683594 69.7149707 31.39355469 68.80786133 C30.11351562 67.49881836 30.11351562 67.49881836 28.80761719 66.16333008 C26.92374866 63.81390783 26.01262438 62.58131202 25.76855469 59.62036133 C26.76855469 57.62036133 26.76855469 57.62036133 28.58105469 56.78051758 C30.76855469 56.62036133 30.76855469 56.62036133 32.76855469 58.05395508 C33.42855469 58.71524414 34.08855469 59.3765332 34.76855469 60.05786133 C38.00550154 63.3848295 38.00550154 63.3848295 42.76855469 63.62036133 C44.49005667 62.44754238 44.49005667 62.44754238 46.00292969 60.77661133 C46.5765625 60.19008789 47.15019531 59.60356445 47.74121094 58.99926758 C48.32773437 58.37922852 48.91425781 57.75918945 49.51855469 57.12036133 C50.42154297 56.19030273 50.42154297 56.19030273 51.34277344 55.24145508 C52.82719103 53.70991312 54.29909814 52.16626359 55.76855469 50.62036133 C54.61454666 50.61449509 53.46053864 50.60862885 52.27156067 50.60258484 C41.39774982 50.54537953 30.52413938 50.47262925 19.65053272 50.38464642 C14.06024936 50.33991309 8.47003937 50.30066337 2.87963867 50.27392578 C-2.5151038 50.24792256 -7.90956435 50.20754097 -13.30413246 50.15717506 C-15.36257738 50.14048623 -17.42107108 50.12898453 -19.4795742 50.12274742 C-22.36225334 50.1131284 -25.2442079 50.08509508 -28.12670898 50.05273438 C-28.97835129 50.05416946 -29.82999359 50.05560455 -30.70744324 50.05708313 C-35.27638944 49.98451299 -38.66835079 49.81171777 -42.23144531 46.62036133 C-43.22874451 44.17114258 -43.22874451 44.17114258 -43.23144531 41.62036133 C-42.06825256 39.66333008 -42.06825256 39.66333008 -40.2746582 37.80786133 C-39.62345001 37.11950195 -38.97224182 36.43114258 -38.30130005 35.72192383 C-37.61824799 35.0284082 -36.93519592 34.33489258 -36.23144531 33.62036133 C-35.61453827 32.9680957 -34.99763123 32.31583008 -34.36203003 31.64379883 C-30.28222701 27.34107881 -26.10392918 23.13271411 -21.93383789 18.91772461 C-20.41585382 17.37797791 -18.90417678 15.83198933 -17.39868164 14.2800293 C-15.21008835 12.02474099 -13.00262584 9.78958445 -10.79003906 7.55786133 C-10.12113144 6.86112305 -9.45222382 6.16438477 -8.76304626 5.4465332 C-4.0792533 0.78312048 -4.0792533 0.78312048 0 0 Z " fill="#0960F5" transform="translate(290.2314453125,98.379638671875)"/>
<path d="M0 0 C0.8146875 0.00257813 1.629375 0.00515625 2.46875 0.0078125 C3.2834375 0.00523437 4.098125 0.00265625 4.9375 0 C6.96875 0.1328125 6.96875 0.1328125 7.96875 1.1328125 C8.06985353 4.0781682 8.10844279 6.9995881 8.1015625 9.9453125 C8.10251923 10.82936768 8.10347595 11.71342285 8.10446167 12.62426758 C8.10514351 14.49723379 8.10328893 16.37020236 8.09912109 18.24316406 C8.09377289 21.12049638 8.09906593 23.99767258 8.10546875 26.875 C8.10480797 28.69010451 8.10352681 30.50520893 8.1015625 32.3203125 C8.10358673 33.18696533 8.10561096 34.05361816 8.10769653 34.9465332 C8.08370009 41.01786241 8.08370009 41.01786241 6.96875 42.1328125 C4.03557756 42.34062836 1.15515685 42.45750023 -1.78125 42.5078125 C-2.59335938 42.54519531 -3.40546875 42.58257812 -4.2421875 42.62109375 C-8.62653174 42.68535938 -10.45073857 42.58163033 -14.02734375 39.81640625 C-16.14965593 36.9742455 -17.1558823 34.55470442 -18.03125 31.1328125 C-18.093125 32.2053125 -18.155 33.2778125 -18.21875 34.3828125 C-19.03125 38.1328125 -19.03125 38.1328125 -20.90625 40.5703125 C-25.58118661 42.9077808 -29.90457104 42.89603237 -35.03125 42.1328125 C-39.22392708 39.82256186 -40.59474219 37.59847807 -42.03125 33.1328125 C-42.33203125 29.7578125 -42.33203125 29.7578125 -42.34375 26.1328125 C-42.36050781 24.9365625 -42.37726563 23.7403125 -42.39453125 22.5078125 C-41.91765175 18.07744807 -40.39789264 15.49945514 -37.28125 12.3828125 C-34.10649268 10.61905843 -31.66142667 10.25586934 -28.03125 10.1328125 C-24.06574963 11.45464596 -20.59309709 12.71701639 -18.03125 16.1328125 C-17.70125 17.1228125 -17.37125 18.1128125 -17.03125 19.1328125 C-16.639375 18.2046875 -16.2475 17.2765625 -15.84375 16.3203125 C-13.86695812 12.8438854 -12.70714056 11.62067297 -9.03125 10.1328125 C-6.21875 10.4453125 -6.21875 10.4453125 -4.03125 11.1328125 C-3.94037109 10.06740234 -3.94037109 10.06740234 -3.84765625 8.98046875 C-3.76386719 8.06136719 -3.68007812 7.14226562 -3.59375 6.1953125 C-3.51253906 5.27878906 -3.43132812 4.36226562 -3.34765625 3.41796875 C-2.90065945 0.1896585 -2.90065945 0.1896585 0 0 Z M-30.03125 20.1328125 C-30.36125 21.1228125 -30.69125 22.1128125 -31.03125 23.1328125 C-30.04125 23.1328125 -29.05125 23.1328125 -28.03125 23.1328125 C-28.36125 22.1428125 -28.69125 21.1528125 -29.03125 20.1328125 C-29.36125 20.1328125 -29.69125 20.1328125 -30.03125 20.1328125 Z M-5.03125 20.1328125 C-5.03125 24.4228125 -5.03125 28.7128125 -5.03125 33.1328125 C-4.37125 32.8028125 -3.71125 32.4728125 -3.03125 32.1328125 C-3.03125 28.5028125 -3.03125 24.8728125 -3.03125 21.1328125 C-3.69125 20.8028125 -4.35125 20.4728125 -5.03125 20.1328125 Z M-31.03125 30.1328125 C-30.70125 31.1228125 -30.37125 32.1128125 -30.03125 33.1328125 C-29.37125 32.8028125 -28.71125 32.4728125 -28.03125 32.1328125 C-28.03125 31.4728125 -28.03125 30.8128125 -28.03125 30.1328125 C-29.02125 30.1328125 -30.01125 30.1328125 -31.03125 30.1328125 Z " fill="#0D5FF3" transform="translate(225.03125,153.8671875)"/>
<path d="M0 0 C3.39292182 0.84548537 4.44241624 1.01919459 7.875 -0.125 C10.6875 -1.0625 10.6875 -1.0625 13.9375 -0.125 C17.39771256 2.47015942 18.00329571 4.83642932 18.6875 8.9375 C18.93277807 12.56782628 18.92246082 16.1755024 18.875 19.8125 C18.87435547 20.77414063 18.87371094 21.73578125 18.87304688 22.7265625 C18.82810834 29.79689166 18.82810834 29.79689166 17.6875 30.9375 C16.19011876 31.0354057 14.68807108 31.06724864 13.1875 31.0625 C12.3728125 31.06507813 11.558125 31.06765625 10.71875 31.0703125 C8.6875 30.9375 8.6875 30.9375 7.6875 29.9375 C7.53094973 28.45111008 7.43683057 26.95800873 7.37109375 25.46484375 C7.32919922 24.56572266 7.28730469 23.66660156 7.24414062 22.74023438 C7.20482422 21.79470703 7.16550781 20.84917969 7.125 19.875 C7.08181641 18.92560547 7.03863281 17.97621094 6.99414062 16.99804688 C6.88770724 14.64468647 6.78568992 12.29121646 6.6875 9.9375 C6.66244385 10.53812256 6.6373877 11.13874512 6.61157227 11.75756836 C6.4959472 14.46361437 6.37307064 17.16928283 6.25 19.875 C6.21068359 20.82052734 6.17136719 21.76605469 6.13085938 22.74023438 C6.08896484 23.63935547 6.04707031 24.53847656 6.00390625 25.46484375 C5.96724854 26.29749756 5.93059082 27.13015137 5.89282227 27.98803711 C5.6875 29.9375 5.6875 29.9375 4.6875 30.9375 C3.00141034 31.00955511 1.31249341 31.02136068 -0.375 31 C-1.29410156 30.99097656 -2.21320313 30.98195312 -3.16015625 30.97265625 C-3.87042969 30.96105469 -4.58070312 30.94945312 -5.3125 30.9375 C-6.46152646 28.63944709 -6.41511564 27.38913665 -6.375 24.83984375 C-6.36339844 23.63811523 -6.36339844 23.63811523 -6.3515625 22.41210938 C-6.33867188 21.57486328 -6.32578125 20.73761719 -6.3125 19.875 C-6.26675719 16.89028175 -6.26543093 13.92344428 -6.3125 10.9375 C-6.6425 10.6075 -6.9725 10.2775 -7.3125 9.9375 C-7.6425 16.8675 -7.9725 23.7975 -8.3125 30.9375 C-11.6125 30.9375 -14.9125 30.9375 -18.3125 30.9375 C-20.16964057 29.08035943 -19.44298681 26.01242951 -19.4453125 23.53125 C-19.44660156 22.23058594 -19.44789062 20.92992187 -19.44921875 19.58984375 C-19.44712402 18.90905762 -19.4450293 18.22827148 -19.44287109 17.52685547 C-19.4375224 15.44621485 -19.4428168 13.36579011 -19.44921875 11.28515625 C-19.44792969 9.98449219 -19.44664063 8.68382812 -19.4453125 7.34375 C-19.44418457 6.14041016 -19.44305664 4.93707031 -19.44189453 3.69726562 C-19.3125 0.9375 -19.3125 0.9375 -18.3125 -0.0625 C-15.52947443 -0.13502184 -12.75969465 -0.05874685 -9.9765625 0 C-0.75044151 -0.21644859 -0.75044151 -0.21644859 0 0 Z " fill="#0D61F2" transform="translate(75.3125,165.0625)"/>
<path d="M0 0 C1.73660521 0.03789876 3.4739656 0.04790727 5.2109375 0.03515625 C6.1086084 0.03008057 7.0062793 0.02500488 7.93115234 0.01977539 C8.95523193 0.00998657 8.95523193 0.00998657 10 0 C10.12405942 4.87458106 10.21455231 9.74823358 10.2746582 14.62402344 C10.299726 16.28076189 10.3337899 17.93739059 10.37719727 19.59375 C10.43819643 21.98204684 10.46628526 24.36887593 10.48828125 26.7578125 C10.51408768 27.49242706 10.5398941 28.22704163 10.56648254 28.98391724 C10.56857883 32.87099973 10.06684326 35.41553348 7.68432617 38.42919922 C3.66812129 42.27555096 0.01481802 42.92673389 -5.4375 43.125 C-6.283125 43.08375 -7.12875 43.0425 -8 43 C-10.42857143 36.71428571 -10.42857143 36.71428571 -9 33 C-6.525 32.505 -6.525 32.505 -4 32 C-4.9075 31.773125 -5.815 31.54625 -6.75 31.3125 C-10.68048175 29.72519006 -11.80289126 28.61490113 -14 25 C-14.57677436 21.83991083 -14.55920307 18.76686609 -14.5 15.5625 C-14.51546875 14.72912109 -14.5309375 13.89574219 -14.546875 13.03710938 C-14.51135918 7.42117065 -13.6510646 4.30743576 -10 0 C-6.63062398 -1.68468801 -3.60878652 -0.60146442 0 0 Z M-3 9 C-3 12.96 -3 16.92 -3 21 C-2.34 21 -1.68 21 -1 21 C-1 17.04 -1 13.08 -1 9 C-1.66 9 -2.32 9 -3 9 Z " fill="#0860F9" transform="translate(135,165)"/>
<path d="M0 0 C3.3 0 6.6 0 10 0 C10.103125 0.78375 10.20625 1.5675 10.3125 2.375 C10.77595022 5.33045181 10.77595022 5.33045181 14 7 C14.40843923 9.71203652 14.13336867 12.2437142 14 15 C13.01 15.33 12.02 15.66 11 16 C10.91885894 17.77007714 10.86074495 19.54122098 10.8125 21.3125 C10.77769531 22.29863281 10.74289062 23.28476563 10.70703125 24.30078125 C11.05123191 27.47201664 11.79135623 27.88534108 14 30 C14.10118893 32.78535848 13.49854208 35.23535757 13 38 C7.97762985 38.29543354 5.0892422 38.00679573 1 35 C0 34 0 34 -0.11352539 32.14233398 C-0.10828857 31.35157471 -0.10305176 30.56081543 -0.09765625 29.74609375 C-0.09443359 28.89208984 -0.09121094 28.03808594 -0.08789062 27.15820312 C-0.07951172 26.26037109 -0.07113281 25.36253906 -0.0625 24.4375 C-0.05798828 23.53580078 -0.05347656 22.63410156 -0.04882812 21.70507812 C-0.03700225 19.46998686 -0.0205222 17.23502563 0 15 C-0.66 15 -1.32 15 -2 15 C-3.14503657 21.011442 -3.04136301 26.87983769 -2.9375 32.98828125 C-3 36 -3 36 -4 38 C-5.45742463 38.08096803 -6.91612807 38.13917774 -8.375 38.1875 C-9.18710938 38.22230469 -9.99921875 38.25710937 -10.8359375 38.29296875 C-11.55007812 38.19628906 -12.26421875 38.09960938 -13 38 C-15.34963594 34.47554609 -15.24591382 33.00489606 -15.23046875 28.8359375 C-15.22756836 27.02996094 -15.22756836 27.02996094 -15.22460938 25.1875 C-15.21236328 23.929375 -15.20011719 22.67125 -15.1875 21.375 C-15.18685547 20.10914063 -15.18621094 18.84328125 -15.18554688 17.5390625 C-15.14016594 8.14016594 -15.14016594 8.14016594 -14 7 C-11.64686445 6.92728259 -9.29166332 6.91629132 -6.9375 6.9375 C-5.64714844 6.94652344 -4.35679687 6.95554688 -3.02734375 6.96484375 C-2.02832031 6.97644531 -1.02929688 6.98804688 0 7 C0 4.69 0 2.38 0 0 Z " fill="#0862F8" transform="translate(249,158)"/>
<path d="M0 0 C2.9576473 2.29217666 3.81597278 3.44791835 5 7 C5.09317856 8.68811426 5.13069271 10.37962994 5.1328125 12.0703125 C5.13474609 13.53791016 5.13474609 13.53791016 5.13671875 15.03515625 C5.13285156 16.05480469 5.12898438 17.07445312 5.125 18.125 C5.13080078 19.66607422 5.13080078 19.66607422 5.13671875 21.23828125 C5.13542969 22.21410156 5.13414063 23.18992188 5.1328125 24.1953125 C5.13168457 25.09266113 5.13055664 25.99000977 5.12939453 26.91455078 C5 29 5 29 4 30 C0.92719621 30.33326675 -2.1614493 30.32496457 -5.25 30.375 C-6.53970703 30.43107422 -6.53970703 30.43107422 -7.85546875 30.48828125 C-12.31898851 30.55017906 -14.36993064 30.46012699 -18.0703125 27.7578125 C-20.54546511 24.22044864 -20.71732405 22.34340362 -20.5078125 18.16015625 C-19.70693788 14.75335882 -17.69155497 13.0859551 -15 11 C-16.65 10.67 -18.3 10.34 -20 10 C-19.80095656 5.72056594 -19.27797034 4.27797034 -16.1875 1.1875 C-10.52189545 -2.70065998 -6.34336579 -2.19219259 0 0 Z M-8 8 C-8.99 9.485 -8.99 9.485 -10 11 C-8.68 11 -7.36 11 -6 11 C-6.33 10.01 -6.66 9.02 -7 8 C-7.33 8 -7.66 8 -8 8 Z M-9 19 C-8.67 19.99 -8.34 20.98 -8 22 C-7.34 21.67 -6.68 21.34 -6 21 C-6 20.34 -6 19.68 -6 19 C-6.99 19 -7.98 19 -9 19 Z " fill="#0B60F5" transform="translate(115,166)"/>
<path d="M0 0 C4.31576378 4.20786969 5.16048506 7.87185249 5.25 13.75 C5.19263382 19.02131431 4.77477421 22.50295214 2 27 C-1.76577237 30.53754374 -5.68321352 30.32349824 -10.59765625 30.30078125 C-14.40936574 29.82354283 -16.26893637 28.8865387 -18.7265625 25.90625 C-20.43261872 22.01267385 -20.44033062 18.70293653 -20.375 14.5 C-20.38660156 13.75363281 -20.39820313 13.00726563 -20.41015625 12.23828125 C-20.3859646 7.6821877 -19.93427664 4.69195371 -17 1 C-11.35949131 -2.76033912 -6.20783792 -2.37870425 0 0 Z M-9 8 C-9 11.96 -9 15.92 -9 20 C-8.34 20 -7.68 20 -7 20 C-7 16.04 -7 12.08 -7 8 C-7.66 8 -8.32 8 -9 8 Z " fill="#0E61F2" transform="translate(284,166)"/>
<path d="M0 0 C2.64233769 2.19257809 4.46669809 3.93339618 6 7 C6.15112939 9.61860735 6.23133862 12.19290882 6.25 14.8125 C6.270625 15.52470703 6.29125 16.23691406 6.3125 16.97070312 C6.3462803 21.53526657 5.86055418 24.41142189 3 28 C0.10214934 30.7475472 -1.90449579 31.43131541 -5.875 31.4375 C-10.81627972 31.29882302 -13.29824499 30.22717103 -17 27 C-19.56818911 21.86362179 -19.60671635 13.18653543 -18.53515625 7.55859375 C-17.14381839 4.07648873 -15.27647937 1.78717057 -12 0 C-8.17493127 -1.63931517 -3.9191807 -1.15864668 0 0 Z M-7 9 C-7.33 9.99 -7.66 10.98 -8 12 C-7.01 12 -6.02 12 -5 12 C-5 11.01 -5 10.02 -5 9 C-5.66 9 -6.32 9 -7 9 Z M-7 19 C-7 19.66 -7 20.32 -7 21 C-6.01 20.67 -5.02 20.34 -4 20 C-4.99 19.67 -5.98 19.34 -7 19 Z " fill="#0D61F3" transform="translate(165,165)"/>
<path d="M0 0 C1.67542976 0.28604898 3.34385343 0.61781233 5 1 C5.495 2.485 5.495 2.485 6 4 C6.66 4 7.32 4 8 4 C8.495 4.99 8.495 4.99 9 6 C10.32 5.67 11.64 5.34 13 5 C11.55480663 8.31454474 9.74845019 10.49740972 7.19140625 13.0390625 C6.44439453 13.78414062 5.69738281 14.52921875 4.92773438 15.296875 C4.14720703 16.06515625 3.36667969 16.8334375 2.5625 17.625 C1.39750977 18.78902344 1.39750977 18.78902344 0.20898438 19.9765625 C-5.57793899 25.71862599 -5.57793899 25.71862599 -9 28 C-13.22844294 27.90636315 -15.43902283 27.42421001 -18.8359375 24.85546875 C-19.67382812 23.97503906 -20.51171875 23.09460938 -21.375 22.1875 C-22.65503906 20.87845703 -22.65503906 20.87845703 -23.9609375 19.54296875 C-25.84480603 17.19354651 -26.75593031 15.96095069 -27 13 C-26 11 -26 11 -24.1875 10.16015625 C-22 10 -22 10 -20 11.43359375 C-19.01 12.42552734 -19.01 12.42552734 -18 13.4375 C-14.76305315 16.76446817 -14.76305315 16.76446817 -10 17 C-5.71 12.71 -1.42 8.42 3 4 C-27.69 3.67 -58.38 3.34 -90 3 C-90 2.67 -90 2.34 -90 2 C-88.33083275 1.9845388 -88.33083275 1.9845388 -86.62794495 1.96876526 C-76.16502082 1.87120754 -65.70215852 1.76849067 -55.23933506 1.66066074 C-49.85969196 1.60538561 -44.48004348 1.55195842 -39.1003418 1.50268555 C-33.91320329 1.45510952 -28.72613315 1.40276944 -23.53907585 1.34705925 C-21.55545684 1.32660495 -19.57181906 1.30789708 -17.58816719 1.29092598 C-14.81985784 1.26694977 -12.05167898 1.23688636 -9.28344727 1.20532227 C-8.45482681 1.1995668 -7.62620636 1.19381134 -6.7724762 1.18788147 C-3.08336096 1.48801344 -3.08336096 1.48801344 0 0 Z " fill="#1960D5" transform="translate(343,145)"/>
<path d="M0 0 C0.0270043 1.45823212 0.04639787 2.91660675 0.0625 4.375 C0.07410156 5.18710938 0.08570313 5.99921875 0.09765625 6.8359375 C0 9 0 9 -1 11 C-3.5625 11.625 -3.5625 11.625 -6 12 C-6.06058594 13.28777344 -6.12117188 14.57554687 -6.18359375 15.90234375 C-6.26798247 17.58074159 -6.3526313 19.25912636 -6.4375 20.9375 C-6.47681641 21.78763672 -6.51613281 22.63777344 -6.55664062 23.51367188 C-6.59853516 24.32255859 -6.64042969 25.13144531 -6.68359375 25.96484375 C-6.73858032 27.08814087 -6.73858032 27.08814087 -6.79467773 28.23413086 C-7 30 -7 30 -8 31 C-9.49738124 31.0979057 -10.99942892 31.12974864 -12.5 31.125 C-13.3146875 31.12757813 -14.129375 31.13015625 -14.96875 31.1328125 C-17 31 -17 31 -18 30 C-18.10003289 27.86646826 -18.13081048 25.72962458 -18.1328125 23.59375 C-18.13410156 22.29308594 -18.13539063 20.99242187 -18.13671875 19.65234375 C-18.13462402 18.97155762 -18.1325293 18.29077148 -18.13037109 17.58935547 C-18.1250224 15.50871485 -18.1303168 13.42829011 -18.13671875 11.34765625 C-18.13542969 10.04699219 -18.13414062 8.74632812 -18.1328125 7.40625 C-18.13168457 6.20291016 -18.13055664 4.99957031 -18.12939453 3.75976562 C-18 1 -18 1 -17 0 C-14.18443216 -0.07230993 -11.38207789 0.00376369 -8.56640625 0.0625 C-0.45049273 -0.13514782 -0.45049273 -0.13514782 0 0 Z " fill="#0660FA" transform="translate(308,165)"/>
<path d="M0 0 C2.97 0 5.94 0 9 0 C9 13.2 9 26.4 9 40 C6.03 40 3.06 40 0 40 C0 39.34 0 38.68 0 38 C-0.9590625 37.8453125 -0.9590625 37.8453125 -1.9375 37.6875 C-2.9584375 37.3471875 -2.9584375 37.3471875 -4 37 C-4.495 35.515 -4.495 35.515 -5 34 C-3.68 33.34 -2.36 32.68 -1 32 C-0.67 26.39 -0.34 20.78 0 15 C-1.98 15.33 -3.96 15.66 -6 16 C-6.66 15.67 -7.32 15.34 -8 15 C-7.67 14.01 -7.34 13.02 -7 12 C-8.98 12.99 -8.98 12.99 -11 14 C-10.67 13.01 -10.34 12.02 -10 11 C-7.03 11 -4.06 11 -1 11 C-0.67 7.37 -0.34 3.74 0 0 Z " fill="#0760F8" transform="translate(223,156)"/>
<path d="M0 0 C0.8146875 0.00257813 1.629375 0.00515625 2.46875 0.0078125 C3.2834375 0.00523437 4.098125 0.00265625 4.9375 0 C6.96875 0.1328125 6.96875 0.1328125 7.96875 1.1328125 C8.05743299 4.08986571 8.08395296 7.02346306 8.06640625 9.98046875 C8.0649913 10.8668956 8.06357635 11.75332245 8.06211853 12.66661072 C8.05650215 15.50954504 8.04394691 18.35240181 8.03125 21.1953125 C8.02623711 23.11783741 8.02167384 25.04036354 8.01757812 26.96289062 C8.00652741 31.68622799 7.98925183 36.40950708 7.96875 41.1328125 C7.63875 41.1328125 7.30875 41.1328125 6.96875 41.1328125 C6.96875 28.2628125 6.96875 15.3928125 6.96875 2.1328125 C3.99875 2.1328125 1.02875 2.1328125 -2.03125 2.1328125 C-2.03125 6.0928125 -2.03125 10.0528125 -2.03125 14.1328125 C-5.33125 14.1328125 -8.63125 14.1328125 -12.03125 14.1328125 C-11.04125 14.1328125 -10.05125 14.1328125 -9.03125 14.1328125 C-8.70125 15.1228125 -8.37125 16.1128125 -8.03125 17.1328125 C-6.05125 16.8028125 -4.07125 16.4728125 -2.03125 16.1328125 C-0.82716629 19.74506363 -1.00873129 22.89519143 -1.21875 26.6328125 C-1.23744141 27.30957031 -1.25613281 27.98632812 -1.27539062 28.68359375 C-1.46442384 32.04639508 -1.6033188 33.72199855 -4.08203125 36.1015625 C-4.72527344 36.441875 -5.36851562 36.7821875 -6.03125 37.1328125 C-5.07259491 39.46357179 -5.07259491 39.46357179 -2.03125 41.1328125 C-5.05879455 41.79900422 -7.92577452 42.25245393 -11.03125 42.1328125 C-14.12801816 39.93926839 -15.67644261 38.48876431 -16.64453125 34.7890625 C-17.72538153 27.36504039 -18.20494901 18.66666823 -13.71875 12.2578125 C-11.49655719 10.77635063 -9.67803993 10.39749149 -7.03125 10.1328125 C-6.04125 10.4628125 -5.05125 10.7928125 -4.03125 11.1328125 C-3.97066406 10.42253906 -3.91007813 9.71226562 -3.84765625 8.98046875 C-3.76386719 8.06136719 -3.68007812 7.14226562 -3.59375 6.1953125 C-3.51253906 5.27878906 -3.43132812 4.36226562 -3.34765625 3.41796875 C-2.90065945 0.1896585 -2.90065945 0.1896585 0 0 Z M-5.03125 20.1328125 C-5.03125 24.4228125 -5.03125 28.7128125 -5.03125 33.1328125 C-4.37125 32.8028125 -3.71125 32.4728125 -3.03125 32.1328125 C-3.03125 28.5028125 -3.03125 24.8728125 -3.03125 21.1328125 C-3.69125 20.8028125 -4.35125 20.4728125 -5.03125 20.1328125 Z " fill="#0860FB" transform="translate(225.03125,153.8671875)"/>
<path d="M0 0 C3.3 0 6.6 0 10 0 C10.103125 0.78375 10.20625 1.5675 10.3125 2.375 C10.77595022 5.33045181 10.77595022 5.33045181 14 7 C14.40843923 9.71203652 14.13336867 12.2437142 14 15 C13.01 15.33 12.02 15.66 11 16 C10.91885894 17.77007714 10.86074495 19.54122098 10.8125 21.3125 C10.77769531 22.29863281 10.74289062 23.28476563 10.70703125 24.30078125 C11.05123191 27.47201664 11.79135623 27.88534108 14 30 C14.10118893 32.78535848 13.49854208 35.23535757 13 38 C7.97762985 38.29543354 5.0892422 38.00679573 1 35 C0 34 0 34 -0.11352539 32.14233398 C-0.10828857 31.35157471 -0.10305176 30.56081543 -0.09765625 29.74609375 C-0.09443359 28.89208984 -0.09121094 28.03808594 -0.08789062 27.15820312 C-0.07951172 26.26037109 -0.07113281 25.36253906 -0.0625 24.4375 C-0.05798828 23.53580078 -0.05347656 22.63410156 -0.04882812 21.70507812 C-0.03700225 19.46998686 -0.0205222 17.23502563 0 15 C-1.32 14.67 -2.64 14.34 -4 14 C-3.3125 12.0625 -3.3125 12.0625 -2 10 C0.625 9.25 0.625 9.25 3 9 C3.33 10.65 3.66 12.3 4 14 C4.33 13.01 4.66 12.02 5 11 C5.66 11 6.32 11 7 11 C7.99 12.485 7.99 12.485 9 14 C9.66 12.35 10.32 10.7 11 9 C10.34 9 9.68 9 9 9 C8.67 6.69 8.34 4.38 8 2 C5.48916886 3.25541557 5.12874554 4.50063488 4 7 C4 6.34 4 5.68 4 5 C3.34 5 2.68 5 2 5 C2 5.99 2 6.98 2 8 C0.68 7.67 -0.64 7.34 -2 7 C-1.34 7 -0.68 7 0 7 C0 4.69 0 2.38 0 0 Z " fill="#0D5EF1" transform="translate(249,158)"/>
<path d="M0 0 C1.64574566 -0.02688151 3.29161413 -0.04634123 4.9375 -0.0625 C5.85402344 -0.07410156 6.77054688 -0.08570313 7.71484375 -0.09765625 C10 0 10 0 11 1 C11.10003289 3.13353174 11.13081048 5.27037542 11.1328125 7.40625 C11.13410156 8.70691406 11.13539062 10.00757813 11.13671875 11.34765625 C11.13357666 12.36883545 11.13357666 12.36883545 11.13037109 13.41064453 C11.1250224 15.49128515 11.1303168 17.57170989 11.13671875 19.65234375 C11.13542969 20.95300781 11.13414063 22.25367188 11.1328125 23.59375 C11.13168457 24.79708984 11.13055664 26.00042969 11.12939453 27.24023438 C11 30 11 30 10 31 C8.50261876 31.0979057 7.00057108 31.12974864 5.5 31.125 C4.6853125 31.12757813 3.870625 31.13015625 3.03125 31.1328125 C1 31 1 31 0 30 C-0.08783542 27.78144736 -0.10694609 25.56011504 -0.09765625 23.33984375 C-0.0962413 22.67537735 -0.09482635 22.01091095 -0.09336853 21.3263092 C-0.08775518 19.19666101 -0.07520054 17.06711661 -0.0625 14.9375 C-0.05748671 13.49674631 -0.05292351 12.05599097 -0.04882812 10.61523438 C-0.03778145 7.07678898 -0.02050792 3.53840461 0 0 Z " fill="#075FFB" transform="translate(44,165)"/>
<path d="M0 0 C0.33 2.31 0.66 4.62 1 7 C-0.32 7.33 -1.64 7.66 -3 8 C-3.33 6.68 -3.66 5.36 -4 4 C-4.99 4.495 -4.99 4.495 -6 5 C-6.66 4.67 -7.32 4.34 -8 4 C-7.67 5.65 -7.34 7.3 -7 9 C-7.66 9 -8.32 9 -9 9 C-8.65213292 10.97536745 -8.65213292 10.97536745 -8 13 C-7.34 13.33 -6.68 13.66 -6 14 C-6.66 15.32 -7.32 16.64 -8 18 C-8.66 18 -9.32 18 -10 18 C-10 18.66 -10 19.32 -10 20 C-8.35 20.33 -6.7 20.66 -5 21 C-5.6875 23.4375 -5.6875 23.4375 -7 26 C-9.94025037 27.23800016 -11.33325904 27.25228036 -14.3125 26.125 C-16.98918649 22.75435776 -16.31297219 19.14688153 -16 15 C-16.66 15 -17.32 15 -18 15 C-19.125 8.25 -19.125 8.25 -18 6 C-17.34 6 -16.68 6 -16 6 C-15.87625 5.38125 -15.7525 4.7625 -15.625 4.125 C-15 2 -15 2 -13 0 C-8.41362253 -1.17325935 -4.63070417 -0.83352675 0 0 Z " fill="#075FFA" transform="translate(165,167)"/>
<path d="M0 0 C2.625 0.5625 2.625 0.5625 5 2 C5.8125 4.625 5.8125 4.625 6 7 C8.64 6.67 11.28 6.34 14 6 C14.33 7.32 14.66 8.64 15 10 C12.36 10 9.72 10 7 10 C7 11.32 7 12.64 7 14 C9.31 14.33 11.62 14.66 14 15 C14 17.31 14 19.62 14 22 C10.23313015 23.88343493 6.09377062 23.61695758 2 23 C-1.84863887 20.45989835 -1.84863887 20.45989835 -3 17 C-3.5485668 11.94995853 -3.72468452 7.04863552 -3 2 C-2.01 1.34 -1.02 0.68 0 0 Z " fill="#065FFB" transform="translate(188,172)"/>
<path d="M0 0 C3.19902639 -0.08886184 5.92677456 0.08941469 9 1 C9 1.66 9 2.32 9 3 C9.66 3 10.32 3 11 3 C11 2.34 11 1.68 11 1 C11.66 1.33 12.32 1.66 13 2 C12.67 3.65 12.34 5.3 12 7 C11.01 7 10.02 7 9 7 C9 14.26 9 21.52 9 29 C6.03 29.33 3.06 29.66 0 30 C-1 26 -1 26 0 23 C0.34081558 20.05153142 0.46482419 17.08825254 0.625 14.125 C0.6765625 13.32191406 0.728125 12.51882812 0.78125 11.69140625 C1.00980259 7.61107023 1.08217516 3.98951142 0 0 Z " fill="#055FFB" transform="translate(70,166)"/>
<path d="M0 0 C1.73660521 0.03789876 3.4739656 0.04790727 5.2109375 0.03515625 C6.1086084 0.03008057 7.0062793 0.02500488 7.93115234 0.01977539 C8.95523193 0.00998657 8.95523193 0.00998657 10 0 C10.1238948 4.89289165 10.21447509 9.78486427 10.2746582 14.67895508 C10.29975347 16.34252839 10.33383796 18.00599196 10.37719727 19.66918945 C10.4380746 22.06489153 10.46625769 24.45913251 10.48828125 26.85546875 C10.51408768 27.5952446 10.5398941 28.33502045 10.56648254 29.09721375 C10.56870328 33.21549188 10.16227089 34.80704402 7.46948242 38.0090332 C6.24708862 38.99456177 6.24708862 38.99456177 5 40 C5.32145996 39.16645996 5.64291992 38.33291992 5.97412109 37.47412109 C7.10147815 33.65634601 7.3186339 30.39025425 7.4140625 26.4140625 C7.43342865 25.71227875 7.4527948 25.010495 7.4727478 24.28744507 C7.53207569 22.06675001 7.57873917 19.84600177 7.625 17.625 C7.66322302 16.11065566 7.70227722 14.59633206 7.7421875 13.08203125 C7.83773734 9.38821169 7.92193937 5.6942353 8 2 C4.37 2.33 0.74 2.66 -3 3 C-3 4.32 -3 5.64 -3 7 C-2.34 7 -1.68 7 -1 7 C-1 7.66 -1 8.32 -1 9 C-1.66 9 -2.32 9 -3 9 C-3 12.96 -3 16.92 -3 21 C-3.33 21 -3.66 21 -4 21 C-4.33 17.7 -4.66 14.4 -5 11 C-7.31 10.67 -9.62 10.34 -12 10 C-11.88581333 12.58422459 -11.75907638 15.16679513 -11.625 17.75 C-11.5940625 18.47960937 -11.563125 19.20921875 -11.53125 19.9609375 C-11.3251506 23.73942656 -11.08487157 26.77946668 -9 30 C-11.6518784 27.94489931 -13.71003498 26.27471826 -14.47705078 22.90283203 C-14.63716567 20.43932802 -14.63278328 18.03001295 -14.5625 15.5625 C-14.57345703 14.72912109 -14.58441406 13.89574219 -14.59570312 13.03710938 C-14.52929828 7.43696774 -13.63465954 4.29612667 -10 0 C-6.63062398 -1.68468801 -3.60878652 -0.60146442 0 0 Z " fill="#0B5FF2" transform="translate(135,165)"/>
<path d="M0 0 C2.86358983 2.04542131 5.20994274 4.32193946 7.625 6.875 C10.61720268 5.51129701 12.91526529 3.92591917 15.375 1.75 C15.98859375 1.21117187 16.6021875 0.67234375 17.234375 0.1171875 C17.69328125 -0.29273438 18.1521875 -0.70265625 18.625 -1.125 C18.295 -0.135 17.965 0.855 17.625 1.875 C17.52542673 3.6866804 17.44388329 5.49939333 17.375 7.3125 C17.04050371 11.13893487 16.8980955 12.5215823 14.5 15.625 C10.68571095 17.28338654 8.64794399 16.84205384 4.625 15.875 C1.7890625 13.73046875 1.7890625 13.73046875 -0.75 11.0625 C-1.60335938 10.18980469 -2.45671875 9.31710938 -3.3359375 8.41796875 C-5.21980603 6.06854651 -6.13093031 4.83595069 -6.375 1.875 C-4.77224176 -1.33051647 -3.11028467 -1.47329274 0 0 Z " fill="#1360E8" transform="translate(322.375,156.125)"/>
<path d="M0 0 C0.77601562 0.15984375 1.55203125 0.3196875 2.3515625 0.484375 C4.375 1.25 4.375 1.25 6.375 4.25 C5.385 4.25 4.395 4.25 3.375 4.25 C3.375 3.59 3.375 2.93 3.375 2.25 C2.385 2.745 2.385 2.745 1.375 3.25 C1.21 3.91 1.045 4.57 0.875 5.25 C0.71 5.91 0.545 6.57 0.375 7.25 C-0.615 7.745 -0.615 7.745 -1.625 8.25 C-1.295 9.24 -0.965 10.23 -0.625 11.25 C0.5615126 15.33594833 0.52365179 19.01342394 0.375 23.25 C-0.615 22.92 -1.605 22.59 -2.625 22.25 C-2.295 21.59 -1.965 20.93 -1.625 20.25 C-2.615 20.25 -3.605 20.25 -4.625 20.25 C-4.955 21.24 -5.285 22.23 -5.625 23.25 C-5.625 21.93 -5.625 20.61 -5.625 19.25 C-4.965 19.25 -4.305 19.25 -3.625 19.25 C-3.295 17.6 -2.965 15.95 -2.625 14.25 C-4.935 13.92 -7.245 13.59 -9.625 13.25 C-9.625 14.24 -9.625 15.23 -9.625 16.25 C-11.275 16.25 -12.925 16.25 -14.625 16.25 C-13.305 14.93 -11.985 13.61 -10.625 12.25 C-12.275 11.92 -13.925 11.59 -15.625 11.25 C-15.42595656 6.97056594 -14.90297034 5.52797034 -11.8125 2.4375 C-7.51766964 -0.5099326 -5.06489689 -1.118004 0 0 Z M-3.625 9.25 C-4.615 10.735 -4.615 10.735 -5.625 12.25 C-4.305 12.25 -2.985 12.25 -1.625 12.25 C-1.955 11.26 -2.285 10.27 -2.625 9.25 C-2.955 9.25 -3.285 9.25 -3.625 9.25 Z " fill="#0760FA" transform="translate(110.625,164.75)"/>
<path d="M0 0 C1.61841797 0.08701172 1.61841797 0.08701172 3.26953125 0.17578125 C4.35621094 0.22089844 5.44289063 0.26601562 6.5625 0.3125 C7.80966797 0.39951172 7.80966797 0.39951172 9.08203125 0.48828125 C9.08203125 1.80828125 9.08203125 3.12828125 9.08203125 4.48828125 C9.38607803 6.16053854 9.71332037 7.82908229 10.08203125 9.48828125 C10.74203125 9.48828125 11.40203125 9.48828125 12.08203125 9.48828125 C13.6892876 12.70279394 13.1395131 15.92440661 13.08203125 19.48828125 C10.44203125 19.48828125 7.80203125 19.48828125 5.08203125 19.48828125 C4.75203125 15.52828125 4.42203125 11.56828125 4.08203125 7.48828125 C1.44203125 7.48828125 -1.19796875 7.48828125 -3.91796875 7.48828125 C-4.24796875 8.80828125 -4.57796875 10.12828125 -4.91796875 11.48828125 C-6.23796875 11.48828125 -7.55796875 11.48828125 -8.91796875 11.48828125 C-8.54296875 9.05078125 -8.54296875 9.05078125 -7.91796875 6.48828125 C-7.25796875 6.15828125 -6.59796875 5.82828125 -5.91796875 5.48828125 C-5.30501953 4.22951172 -5.30501953 4.22951172 -4.6796875 2.9453125 C-2.91796875 0.48828125 -2.91796875 0.48828125 0 0 Z " fill="#0560FA" transform="translate(273.91796875,166.51171875)"/>
<path d="M0 0 C0.8146875 0.00257813 1.629375 0.00515625 2.46875 0.0078125 C3.2834375 0.00523437 4.098125 0.00265625 4.9375 0 C6.96875 0.1328125 6.96875 0.1328125 7.96875 1.1328125 C8.05743299 4.08986571 8.08395296 7.02346306 8.06640625 9.98046875 C8.0649913 10.8668956 8.06357635 11.75332245 8.06211853 12.66661072 C8.05650215 15.50954504 8.04394691 18.35240181 8.03125 21.1953125 C8.02623711 23.11783741 8.02167384 25.04036354 8.01757812 26.96289062 C8.00652741 31.68622799 7.98925183 36.40950708 7.96875 41.1328125 C7.63875 41.1328125 7.30875 41.1328125 6.96875 41.1328125 C6.96875 28.2628125 6.96875 15.3928125 6.96875 2.1328125 C3.99875 2.1328125 1.02875 2.1328125 -2.03125 2.1328125 C-2.03125 6.0928125 -2.03125 10.0528125 -2.03125 14.1328125 C-5.33125 14.1328125 -8.63125 14.1328125 -12.03125 14.1328125 C-11.04125 14.1328125 -10.05125 14.1328125 -9.03125 14.1328125 C-8.70125 15.1228125 -8.37125 16.1128125 -8.03125 17.1328125 C-6.05125 16.8028125 -4.07125 16.4728125 -2.03125 16.1328125 C-0.80022008 19.82590226 -1.15949848 23.01331962 -1.46875 26.8203125 C-1.52095703 27.52220703 -1.57316406 28.22410156 -1.62695312 28.94726562 C-1.75632865 30.67619304 -1.89307531 32.40456605 -2.03125 34.1328125 C-2.69125 34.1328125 -3.35125 34.1328125 -4.03125 34.1328125 C-4.03125 29.8428125 -4.03125 25.5528125 -4.03125 21.1328125 C-4.155 22.7621875 -4.27875 24.3915625 -4.40625 26.0703125 C-4.6171875 28.84765625 -4.6171875 28.84765625 -5.03125 31.1328125 C-5.69125 31.4628125 -6.35125 31.7928125 -7.03125 32.1328125 C-7.03125 28.5028125 -7.03125 24.8728125 -7.03125 21.1328125 C-8.35125 20.8028125 -9.67125 20.4728125 -11.03125 20.1328125 C-11.03125 19.4728125 -11.03125 18.8128125 -11.03125 18.1328125 C-12.02125 18.4628125 -13.01125 18.7928125 -14.03125 19.1328125 C-14.36125 20.7828125 -14.69125 22.4328125 -15.03125 24.1328125 C-15.36125 24.1328125 -15.69125 24.1328125 -16.03125 24.1328125 C-16.51637072 16.9772819 -16.51637072 16.9772819 -14.34375 13.1953125 C-11.77593586 10.90509989 -10.43757707 10.30749594 -7.03125 10.1328125 C-6.04125 10.4628125 -5.05125 10.7928125 -4.03125 11.1328125 C-3.97066406 10.42253906 -3.91007813 9.71226562 -3.84765625 8.98046875 C-3.76386719 8.06136719 -3.68007812 7.14226562 -3.59375 6.1953125 C-3.51253906 5.27878906 -3.43132812 4.36226562 -3.34765625 3.41796875 C-2.90065945 0.1896585 -2.90065945 0.1896585 0 0 Z " fill="#1A66EA" transform="translate(225.03125,153.8671875)"/>
<path d="M0 0 C1.32 0.33 2.64 0.66 4 1 C4.1953125 3.05078125 4.390625 5.1015625 4.5859375 7.15234375 C4.72257812 7.76207031 4.85921875 8.37179688 5 9 C5.66 9.33 6.32 9.66 7 10 C7.05447047 11.41623216 7.09300508 12.83308191 7.125 14.25 C7.14820312 15.03890625 7.17140625 15.8278125 7.1953125 16.640625 C6.9828378 19.20731941 6.28654105 20.7916067 5 23 C5.66 23.66 6.32 24.32 7 25 C3.83390538 26.87620422 1.64167599 27.09662822 -2 27 C-1.86181468 23.52048477 -1.71317399 20.04149505 -1.5625 16.5625 C-1.52318359 15.56927734 -1.48386719 14.57605469 -1.44335938 13.55273438 C-1.40146484 12.60849609 -1.35957031 11.66425781 -1.31640625 10.69140625 C-1.27974854 9.81685791 -1.24309082 8.94230957 -1.20532227 8.04125977 C-1 6 -1 6 0 5 C-0.66 4.67 -1.32 4.34 -2 4 C-2 3.34 -2 2.68 -2 2 C-1.34 2 -0.68 2 0 2 C0 1.34 0 0.68 0 0 Z " fill="#0660FA" transform="translate(86,168)"/>
<path d="M0 0 C0.0270043 1.45823212 0.04639787 2.91660675 0.0625 4.375 C0.07410156 5.18710938 0.08570313 5.99921875 0.09765625 6.8359375 C0 9 0 9 -1 11 C-3.5625 11.625 -3.5625 11.625 -6 12 C-6.06058594 13.28777344 -6.12117188 14.57554687 -6.18359375 15.90234375 C-6.26798247 17.58074159 -6.3526313 19.25912636 -6.4375 20.9375 C-6.47681641 21.78763672 -6.51613281 22.63777344 -6.55664062 23.51367188 C-6.59853516 24.32255859 -6.64042969 25.13144531 -6.68359375 25.96484375 C-6.73858032 27.08814087 -6.73858032 27.08814087 -6.79467773 28.23413086 C-7 30 -7 30 -8 31 C-9.49738124 31.0979057 -10.99942892 31.12974864 -12.5 31.125 C-13.3146875 31.12757813 -14.129375 31.13015625 -14.96875 31.1328125 C-17 31 -17 31 -18 30 C-18.10003289 27.86646826 -18.13081048 25.72962458 -18.1328125 23.59375 C-18.13410156 22.29308594 -18.13539063 20.99242187 -18.13671875 19.65234375 C-18.13462402 18.97155762 -18.1325293 18.29077148 -18.13037109 17.58935547 C-18.1250224 15.50871485 -18.1303168 13.42829011 -18.13671875 11.34765625 C-18.13542969 10.04699219 -18.13414062 8.74632812 -18.1328125 7.40625 C-18.13168457 6.20291016 -18.13055664 4.99957031 -18.12939453 3.75976562 C-18 1 -18 1 -17 0 C-14.18443216 -0.07230993 -11.38207789 0.00376369 -8.56640625 0.0625 C-0.45049273 -0.13514782 -0.45049273 -0.13514782 0 0 Z M-16 2 C-17.35700647 4.71401294 -17.1123861 6.84846316 -17.09765625 9.8828125 C-17.09443359 11.04941406 -17.09121094 12.21601563 -17.08789062 13.41796875 C-17.07951172 14.64128906 -17.07113281 15.86460937 -17.0625 17.125 C-17.05798828 18.35605469 -17.05347656 19.58710938 -17.04882812 20.85546875 C-17.0370133 23.90369392 -17.02054028 26.95182314 -17 30 C-14.36 30 -11.72 30 -9 30 C-8.93941406 29.04738281 -8.87882812 28.09476563 -8.81640625 27.11328125 C-8.73261719 25.85902344 -8.64882813 24.60476562 -8.5625 23.3125 C-8.48128906 22.07113281 -8.40007812 20.82976562 -8.31640625 19.55078125 C-7.71685867 12.82252511 -6.80291803 10.80291803 -2 6 C-2 4.68 -2 3.36 -2 2 C-2.99 2 -3.98 2 -5 2 C-5.66 2.66 -6.32 3.32 -7 4 C-7.33 3.34 -7.66 2.68 -8 2 C-10.64 2 -13.28 2 -16 2 Z " fill="#1C5ECC" transform="translate(308,165)"/>
<path d="M0 0 C4.31576378 4.20786969 5.16048506 7.87185249 5.25 13.75 C5.22462174 18.97792182 4.49003522 22.43493543 2 27 C1.01 27 0.02 27 -1 27 C-0.50886719 26.47921875 -0.01773437 25.9584375 0.48828125 25.421875 C2.49150262 22.21257978 2.3000233 20.00077664 2.1875 16.25 C2.16042969 15.07953125 2.13335937 13.9090625 2.10546875 12.703125 C2.07066406 11.81109375 2.03585937 10.9190625 2 10 C1.34 10 0.68 10 0 10 C-2.125 5.375 -2.125 5.375 -1 2 C-4.96 2 -8.92 2 -13 2 C-13.99 3.98 -14.98 5.96 -16 8 C-16.66 8 -17.32 8 -18 8 C-18.33 12.62 -18.66 17.24 -19 22 C-19.33 22 -19.66 22 -20 22 C-20.08132187 19.43685501 -20.14064175 16.87631582 -20.1875 14.3125 C-20.21263672 13.59126953 -20.23777344 12.87003906 -20.26367188 12.12695312 C-20.32667231 7.52792109 -19.88572296 4.62565193 -17 1 C-11.35949131 -2.76033912 -6.20783792 -2.37870425 0 0 Z " fill="#1D63DF" transform="translate(284,166)"/>
<path d="M0 0 C1.64574566 -0.02688151 3.29161413 -0.04634123 4.9375 -0.0625 C5.85402344 -0.07410156 6.77054688 -0.08570313 7.71484375 -0.09765625 C10 0 10 0 11 1 C11.10003289 3.13353174 11.13081048 5.27037542 11.1328125 7.40625 C11.13410156 8.70691406 11.13539062 10.00757813 11.13671875 11.34765625 C11.13357666 12.36883545 11.13357666 12.36883545 11.13037109 13.41064453 C11.1250224 15.49128515 11.1303168 17.57170989 11.13671875 19.65234375 C11.13542969 20.95300781 11.13414063 22.25367188 11.1328125 23.59375 C11.13168457 24.79708984 11.13055664 26.00042969 11.12939453 27.24023438 C11 30 11 30 10 31 C8.50261876 31.0979057 7.00057108 31.12974864 5.5 31.125 C4.6853125 31.12757813 3.870625 31.13015625 3.03125 31.1328125 C1 31 1 31 0 30 C-0.08783542 27.78144736 -0.10694609 25.56011504 -0.09765625 23.33984375 C-0.0962413 22.67537735 -0.09482635 22.01091095 -0.09336853 21.3263092 C-0.08775518 19.19666101 -0.07520054 17.06711661 -0.0625 14.9375 C-0.05748671 13.49674631 -0.05292351 12.05599097 -0.04882812 10.61523438 C-0.03778145 7.07678898 -0.02050792 3.53840461 0 0 Z M1 2 C1 11.24 1 20.48 1 30 C3.64 30 6.28 30 9 30 C9 20.76 9 11.52 9 2 C6.36 2 3.72 2 1 2 Z " fill="#1E5ACC" transform="translate(44,165)"/>
<path d="M0 0 C1.73782166 0.04203729 3.47657165 0.05325248 5.21484375 0.0390625 C6.11195068 0.03342285 7.00905762 0.0277832 7.93334961 0.02197266 C8.61534424 0.01472168 9.29733887 0.0074707 10 0 C10.1238948 4.89289165 10.21447509 9.78486427 10.2746582 14.67895508 C10.29975347 16.34252839 10.33383796 18.00599196 10.37719727 19.66918945 C10.4380746 22.06489153 10.46625769 24.45913251 10.48828125 26.85546875 C10.51408768 27.5952446 10.5398941 28.33502045 10.56648254 29.09721375 C10.56870328 33.21549188 10.16227089 34.80704402 7.46948242 38.0090332 C6.24708862 38.99456177 6.24708862 38.99456177 5 40 C5.32145996 39.16645996 5.64291992 38.33291992 5.97412109 37.47412109 C7.10147815 33.65634601 7.3186339 30.39025425 7.4140625 26.4140625 C7.43342865 25.71227875 7.4527948 25.010495 7.4727478 24.28744507 C7.53207569 22.06675001 7.57873917 19.84600177 7.625 17.625 C7.66322302 16.11065566 7.70227722 14.59633206 7.7421875 13.08203125 C7.83773734 9.38821169 7.92193937 5.6942353 8 2 C7.40324463 2.08306396 6.80648926 2.16612793 6.19165039 2.25170898 C0.45609903 2.98312707 -3.46900714 2.70957961 -9 1 C-5.18085732 -1.54609512 -4.41066153 -0.80193846 0 0 Z " fill="#2464D5" transform="translate(135,165)"/>
<path d="M0 0 C0 0.66 0 1.32 0 2 C0.99 2.33 1.98 2.66 3 3 C1.35 3 -0.3 3 -2 3 C-2 3.99 -2 4.98 -2 6 C-5.23091667 7.78257471 -7.32518002 8 -11 8 C-10.93950287 10.37753738 -10.85232887 12.74919061 -10.75 15.125 C-10.73582031 15.79015625 -10.72164062 16.4553125 -10.70703125 17.140625 C-10.45113231 22.36096332 -9.11202852 25.00415538 -6 29 C-8.99360015 27.96772409 -9.9376032 27.10228241 -11.61328125 24.35546875 C-13.15341004 20.62879092 -13.40122557 17.95438315 -13.375 13.9375 C-13.38273438 12.75027344 -13.39046875 11.56304687 -13.3984375 10.33984375 C-12.97000743 6.74859169 -12.16664366 4.86455292 -10 2 C-6.59985328 0.12097155 -3.85017077 -0.22000976 0 0 Z " fill="#125FE3" transform="translate(196,166)"/>
<path d="M0 0 C2.375 1.5 2.375 1.5 3.8125 3.875 C4.375 6.5 4.375 6.5 3.875 8.75 C2.375 10.5 2.375 10.5 -0.5 11.5 C-3.625 11.5 -3.625 11.5 -6.0625 9.875 C-7.625 7.5 -7.625 7.5 -7.625 4.9375 C-6.02137859 1.02867281 -4.33722481 -0.82613806 0 0 Z " fill="#2260D3" transform="translate(241.625,152.5)"/>
<path d="M0 0 C2 3 2 3 1.8125 6.0625 C1 9 1 9 -2 11 C-5.32240324 10.6758631 -6.60776303 10.39223697 -9 8 C-9.375 5.0625 -9.375 5.0625 -9 2 C-6.14911792 -1.27323499 -4.00227856 -1.47452368 0 0 Z " fill="#1360E9" transform="translate(53,153)"/>
<path d="M0 0 C3.3 0 6.6 0 10 0 C10.103125 0.78375 10.20625 1.5675 10.3125 2.375 C10.77595022 5.33045181 10.77595022 5.33045181 14 7 C14.40843923 9.71203652 14.13336867 12.2437142 14 15 C13.01 15.33 12.02 15.66 11 16 C11 17.65 11 19.3 11 21 C10.34 20.67 9.68 20.34 9 20 C8.80377759 15.78121808 9.19769832 12.82989106 11 9 C10.34 9 9.68 9 9 9 C8.67 6.69 8.34 4.38 8 2 C5.48916886 3.25541557 5.12874554 4.50063488 4 7 C4 6.34 4 5.68 4 5 C3.34 5 2.68 5 2 5 C2 5.99 2 6.98 2 8 C0.68 7.67 -0.64 7.34 -2 7 C-1.34 7 -0.68 7 0 7 C0 4.69 0 2.38 0 0 Z " fill="#1963E3" transform="translate(249,158)"/>
<path d="M0 0 C-0.33 0.66 -0.66 1.32 -1 2 C-1.21941219 3.5912342 -1.39059852 5.18929031 -1.53515625 6.7890625 C-1.66567383 8.20058594 -1.66567383 8.20058594 -1.79882812 9.640625 C-1.9293457 11.11789063 -1.9293457 11.11789063 -2.0625 12.625 C-2.15337891 13.61757812 -2.24425781 14.61015625 -2.33789062 15.6328125 C-2.56218436 18.08823868 -2.78273107 20.54394389 -3 23 C-3.33 23 -3.66 23 -4 23 C-4.33 16.4 -4.66 9.8 -5 3 C-5.28923686 9.53676545 -5.28923686 9.53676545 -5.56811523 16.07397461 C-5.60622314 16.88358643 -5.64433105 17.69319824 -5.68359375 18.52734375 C-5.72025146 19.35999756 -5.75690918 20.19265137 -5.79467773 21.05053711 C-6 23 -6 23 -7 24 C-8.99958364 24.04080783 -11.00045254 24.04254356 -13 24 C-13 23.67 -13 23.34 -13 23 C-11.35 23 -9.7 23 -8 23 C-8 15.74 -8 8.48 -8 1 C-5.07175348 0.02391783 -3.04386724 -0.08226668 0 0 Z " fill="#1A5ED5" transform="translate(87,172)"/>
<path d="M0 0 C0.8146875 0.00257813 1.629375 0.00515625 2.46875 0.0078125 C3.2834375 0.00523437 4.098125 0.00265625 4.9375 0 C6.96875 0.1328125 6.96875 0.1328125 7.96875 1.1328125 C8.05743299 4.08986571 8.08395296 7.02346306 8.06640625 9.98046875 C8.0649913 10.8668956 8.06357635 11.75332245 8.06211853 12.66661072 C8.05650215 15.50954504 8.04394691 18.35240181 8.03125 21.1953125 C8.02623711 23.11783741 8.02167384 25.04036354 8.01757812 26.96289062 C8.00652741 31.68622799 7.98925183 36.40950708 7.96875 41.1328125 C7.63875 41.1328125 7.30875 41.1328125 6.96875 41.1328125 C6.96875 28.2628125 6.96875 15.3928125 6.96875 2.1328125 C3.99875 2.1328125 1.02875 2.1328125 -2.03125 2.1328125 C-2.03125 6.0928125 -2.03125 10.0528125 -2.03125 14.1328125 C-5.99125 14.1328125 -9.95125 14.1328125 -14.03125 14.1328125 C-12.03125 11.1328125 -12.03125 11.1328125 -9.59375 10.3828125 C-7.03125 10.1328125 -7.03125 10.1328125 -4.03125 11.1328125 C-3.97066406 10.42253906 -3.91007813 9.71226562 -3.84765625 8.98046875 C-3.76386719 8.06136719 -3.68007812 7.14226562 -3.59375 6.1953125 C-3.51253906 5.27878906 -3.43132812 4.36226562 -3.34765625 3.41796875 C-2.90065945 0.1896585 -2.90065945 0.1896585 0 0 Z " fill="#2864C7" transform="translate(225.03125,153.8671875)"/>
<path d="M0 0 C2.64233769 2.19257809 4.46669809 3.93339618 6 7 C6.12438451 9.65835737 6.18516188 12.27905229 6.1875 14.9375 C6.19974609 15.66646484 6.21199219 16.39542969 6.22460938 17.14648438 C6.23512685 20.9713391 6.17095624 22.74356564 4 26 C4.01160156 24.91460937 4.02320313 23.82921875 4.03515625 22.7109375 C4.04454138 21.26562673 4.05364081 19.82031409 4.0625 18.375 C4.07087891 17.66214844 4.07925781 16.94929688 4.08789062 16.21484375 C4.10710296 12.02655562 3.8267327 8.1271538 3 4 C-2.32052536 1.61976497 -7.41933172 1.41963376 -13 3 C-15.06454002 5.40743101 -15.06454002 5.40743101 -16 8 C-16.66 8 -17.32 8 -18 8 C-16.73317448 4.09395463 -15.56716435 2.09833197 -12 0 C-8.17493127 -1.63931517 -3.9191807 -1.15864668 0 0 Z " fill="#2963CD" transform="translate(165,165)"/>
<path d="M0 0 C0.33 0.66 0.66 1.32 1 2 C-0.0725 1.814375 -1.145 1.62875 -2.25 1.4375 C-8.20620203 0.74990746 -8.20620203 0.74990746 -19 2 C-19 10.91 -19 19.82 -19 29 C-19.66 29 -20.32 29 -21 29 C-21.02465746 24.8882744 -21.04283959 20.77657722 -21.05493164 16.66479492 C-21.0599708 15.26504772 -21.06680216 13.8653058 -21.07543945 12.46557617 C-21.0875232 10.45754223 -21.09269807 8.44947043 -21.09765625 6.44140625 C-21.10289307 5.23170166 -21.10812988 4.02199707 -21.11352539 2.77563477 C-21 0 -21 0 -20 -1 C-17.21697443 -1.07252184 -14.44719465 -0.99624685 -11.6640625 -0.9375 C-2.77464583 -1.14604936 -2.77464583 -1.14604936 0 0 Z " fill="#2D65DF" transform="translate(77,166)"/>
<path d="M0 0 C1.32 0.33 2.64 0.66 4 1 C4.65156409 5.72383963 5.11950637 10.21974517 5 15 C4.01 14.67 3.02 14.34 2 14 C2.33 13.34 2.66 12.68 3 12 C2.01 12 1.02 12 0 12 C-0.33 12.99 -0.66 13.98 -1 15 C-1 13.68 -1 12.36 -1 11 C-0.34 11 0.32 11 1 11 C1.33 9.35 1.66 7.7 2 6 C-0.31 5.67 -2.62 5.34 -5 5 C-5 5.99 -5 6.98 -5 8 C-6.65 8 -8.3 8 -10 8 C-8.5625 6 -8.5625 6 -6 4 C-2.97175582 3.64557555 -0.03514061 3.76652765 3 4 C2.34 3.34 1.68 2.68 1 2 C0.01 2.495 0.01 2.495 -1 3 C-0.67 2.01 -0.34 1.02 0 0 Z " fill="#1364EC" transform="translate(106,173)"/>
<path d="M0 0 C0.33 0.66 0.66 1.32 1 2 C1.66 2.33 2.32 2.66 3 3 C-1.62 7.62 -6.24 12.24 -11 17 C-11.33 15.68 -11.66 14.36 -12 13 C-11.34 13 -10.68 13 -10 13 C-10.33 11.35 -10.66 9.7 -11 8 C-9.68 7.67 -8.36 7.34 -7 7 C-7.33 6.34 -7.66 5.68 -8 5 C-5.36 4.67 -2.72 4.34 0 4 C-0.33 3.01 -0.66 2.02 -1 1 C-0.67 0.67 -0.34 0.34 0 0 Z " fill="#135FE6" transform="translate(281,111)"/>
<path d="M0 0 C1.65 0.33 3.3 0.66 5 1 C5.33 1.99 5.66 2.98 6 4 C6.66 4 7.32 4 8 4 C8.33 4.66 8.66 5.32 9 6 C10.32 5.67 11.64 5.34 13 5 C11.4169423 9.2742558 8.49431596 11.26531794 5 14 C5 12.68 5 11.36 5 10 C5.99 10 6.98 10 8 10 C8 9.34 8 8.68 8 8 C6.02 8 4.04 8 2 8 C2 8.66 2 9.32 2 10 C0.68 9.67 -0.64 9.34 -2 9 C-0.02 6.69 1.96 4.38 4 2 C2.35 2 0.7 2 -1 2 C-0.67 1.34 -0.34 0.68 0 0 Z " fill="#1162EA" transform="translate(343,145)"/>
<path d="M0 0 C-0.99 2.64 -1.98 5.28 -3 8 C-0.69 8 1.62 8 4 8 C0.5980513 10.09350689 -2.05272412 10.17942163 -6 10 C-8.42857143 3.71428571 -8.42857143 3.71428571 -7 0 C-2.25 -1.125 -2.25 -1.125 0 0 Z " fill="#185FE1" transform="translate(133,198)"/>
<path d="M0 0 C3.16115776 1.36983503 3.9927092 1.9890638 6 5 C7.65 4.67 9.3 4.34 11 4 C10.67 4.99 10.34 5.98 10 7 C10.33 7.66 10.66 8.32 11 9 C9.02 9.33 7.04 9.66 5 10 C5 9.34 5 8.68 5 8 C3.35 8 1.7 8 0 8 C-0.79953138 4.71303767 -1.09658936 3.28976808 0 0 Z " fill="#0660FA" transform="translate(324,161)"/>
<path d="M0 0 C1.43793855 2.8758771 0.53230723 4.83512574 0 8 C-0.16920624 10.87580974 -0.18499981 13.74477568 -0.1875 16.625 C-0.19974609 17.37523437 -0.21199219 18.12546875 -0.22460938 18.8984375 C-0.23484653 22.74760773 -0.18079278 25.74174044 2 29 C-0.66528331 26.94199643 -2.72081464 25.27999388 -3.4609375 21.88671875 C-3.60070018 19.40798644 -3.58358999 16.98110291 -3.5 14.5 C-3.50257812 13.65824219 -3.50515625 12.81648437 -3.5078125 11.94921875 C-3.43221889 7.1490242 -3.03254492 3.93585617 0 0 Z " fill="#2563D5" transform="translate(124,166)"/>
<path d="M0 0 C6.19246862 4.68619247 6.19246862 4.68619247 8 8 C7.6875 10.75 7.6875 10.75 7 13 C5.35 13.33 3.7 13.66 2 14 C0.68 12.35 -0.64 10.7 -2 9 C-0.35 8.67 1.3 8.34 3 8 C2.72382467 6.05925139 2.72382467 6.05925139 2 4 C1.01 3.34 0.02 2.68 -1 2 C-0.67 1.34 -0.34 0.68 0 0 Z " fill="#1362ED" transform="translate(312,118)"/>
<path d="M0 0 C3.03211328 -0.53061982 5.16542359 -0.54547478 7.79296875 1.171875 C9.94919616 3.03912348 11.97757004 4.98787104 14 7 C14.47260254 7.46567383 14.94520508 7.93134766 15.43212891 8.41113281 C18.64848526 11.58114398 21.83305639 14.7806621 25 18 C21.89448334 18 20.64738916 17.4606285 18 16 C18 15.34 18 14.68 18 14 C17.34 14 16.68 14 16 14 C15 12.33333333 14 10.66666667 13 9 C9.1138082 4.33656984 5.63588692 2.81494664 0 1 C0 0.67 0 0.34 0 0 Z " fill="#2B67D2" transform="translate(287,99)"/>
<path d="M0 0 C3.15497657 0.3380332 3.93381319 0.91933482 6 3.4375 C6.66 4.283125 7.32 5.12875 8 6 C10.11660427 7.31165257 10.11660427 7.31165257 12 8 C12 8.99 12 9.98 12 11 C12.99 11.33 13.98 11.66 15 12 C15.33 11.67 15.66 11.34 16 11 C16.66 11.66 17.32 12.32 18 13 C17.34 14.32 16.68 15.64 16 17 C13.32932797 14.3581833 10.66414667 11.7108958 8 9.0625 C7.236875 8.30775391 6.47375 7.55300781 5.6875 6.77539062 C4.965625 6.05673828 4.24375 5.33808594 3.5 4.59765625 C2.8296875 3.93258057 2.159375 3.26750488 1.46875 2.58227539 C0 1 0 1 0 0 Z " fill="#185ED9" transform="translate(293,110)"/>
<path d="M0 0 C0 2.97 0 5.94 0 9 C-1.65 9.33 -3.3 9.66 -5 10 C-4.01 7.36 -3.02 4.72 -2 2 C-2.99 2 -3.98 2 -5 2 C-5.33 2.99 -5.66 3.98 -6 5 C-6.66 4.67 -7.32 4.34 -8 4 C-8 3.01 -8 2.02 -8 1 C-4.59449725 -1.06762667 -4.18836538 -1.04709135 0 0 Z " fill="#1B61E6" transform="translate(308,165)"/>
<path d="M0 0 C0.77601563 0.15984375 1.55203125 0.3196875 2.3515625 0.484375 C4.375 1.25 4.375 1.25 6.375 4.25 C5.055 4.25 3.735 4.25 2.375 4.25 C2.375 4.91 2.375 5.57 2.375 6.25 C1.385 6.25 0.395 6.25 -0.625 6.25 C-0.625 5.59 -0.625 4.93 -0.625 4.25 C-1.285 3.92 -1.945 3.59 -2.625 3.25 C-2.625 2.59 -2.625 1.93 -2.625 1.25 C-5.595 1.91 -8.565 2.57 -11.625 3.25 C-7.62711647 -0.74788353 -5.41930379 -1.19623428 0 0 Z " fill="#1D64E4" transform="translate(198.625,164.75)"/>
<path d="M0 0 C0.66 0.33 1.32 0.66 2 1 C1.88618103 3.93832645 1.75943449 6.8751065 1.625 9.8125 C1.5940625 10.64587891 1.563125 11.47925781 1.53125 12.33789062 C1.49257812 13.14033203 1.45390625 13.94277344 1.4140625 14.76953125 C1.3826416 15.50792236 1.3512207 16.24631348 1.31884766 17.00708008 C1 19 1 19 -1 22 C-0.98259766 20.33710938 -0.98259766 20.33710938 -0.96484375 18.640625 C-0.95546208 17.17708502 -0.94636229 15.71354322 -0.9375 14.25 C-0.92912109 13.52039063 -0.92074219 12.79078125 -0.91210938 12.0390625 C-0.85942219 7.91056092 -0.85942219 7.91056092 -1.63110352 3.88183594 C-1.75283936 3.26083008 -1.8745752 2.63982422 -2 2 C-1.34 1.34 -0.68 0.68 0 0 Z " fill="#0F58EA" transform="translate(70,170)"/>
<path d="M0 0 C0.66 0.33 1.32 0.66 2 1 C2.98783094 3.96349281 3.13410525 5.9712663 3.125 9.0625 C3.12757813 9.94035156 3.13015625 10.81820312 3.1328125 11.72265625 C3 14 3 14 2 16 C1.9603287 17.66619446 1.95615553 19.33391013 2 21 C1.67 19.68 1.34 18.36 1 17 C0.34 17 -0.32 17 -1 17 C-1.66 15.68 -2.32 14.36 -3 13 C-2.01 13 -1.02 13 0 13 C0 8.71 0 4.42 0 0 Z " fill="#2167EB" transform="translate(205,169)"/>
<path d="M0 0 C0 0.66 0 1.32 0 2 C-1.670625 2.309375 -1.670625 2.309375 -3.375 2.625 C-7.26599195 3.61628301 -7.26599195 3.61628301 -8.4375 7.125 C-8.623125 8.07375 -8.80875 9.0225 -9 10 C-9.99 10 -10.98 10 -12 10 C-12.20086443 6.28400809 -12.1519437 5.22791555 -10 2 C-8.68 2 -7.36 2 -6 2 C-6 1.34 -6 0.68 -6 0 C-3.50907189 -1.24546405 -2.58919267 -0.7767578 0 0 Z " fill="#0760FB" transform="translate(351,153)"/>
<path d="M0 0 C0.99 0.495 0.99 0.495 2 1 C2.73075648 3.3140622 3.40138258 5.64828869 4 8 C4.99 8 5.98 8 7 8 C7.33 7.34 7.66 6.68 8 6 C8.66 6 9.32 6 10 6 C10.33 6.66 10.66 7.32 11 8 C11.99 8.66 12.98 9.32 14 10 C10.97227966 10.6662304 8.10562014 11.11425358 5 11 C1.9375 8.9375 1.9375 8.9375 0 6 C-0.3125 2.6875 -0.3125 2.6875 0 0 Z " fill="#1B61DD" transform="translate(209,185)"/>
<path d="M0 0 C3.3 0 6.6 0 10 0 C9.34 1.65 8.68 3.3 8 5 C3.545 4.01 3.545 4.01 -1 3 C-0.67 2.01 -0.34 1.02 0 0 Z " fill="#1B5CE6" transform="translate(235,165)"/>
<path d="M0 0 C0 1.65 0 3.3 0 5 C-2.31 4.67 -4.62 4.34 -7 4 C-7 2.68 -7 1.36 -7 0 C-4.3333581 -1.33332095 -2.83319697 -0.67102033 0 0 Z " fill="#0560FA" transform="translate(243,157)"/>
<path d="M0 0 C0.77601562 0.15984375 1.55203125 0.3196875 2.3515625 0.484375 C4.375 1.25 4.375 1.25 6.375 4.25 C5.385 4.25 4.395 4.25 3.375 4.25 C3.375 3.59 3.375 2.93 3.375 2.25 C2.17875 2.435625 0.9825 2.62125 -0.25 2.8125 C-3.90783707 3.2811197 -7.00362166 3.06481013 -10.625 2.25 C-7.29898441 -1.07601559 -4.44696607 -0.98160455 0 0 Z " fill="#1F5DDB" transform="translate(110.625,164.75)"/>
<path d="M0 0 C0.99 0 1.98 0 3 0 C3 2.64 3 5.28 3 8 C2.01 8.33 1.02 8.66 0 9 C0 10.65 0 12.3 0 14 C-0.66 13.67 -1.32 13.34 -2 13 C-2.19772849 8.74883756 -1.72299737 5.87674409 0 2 C0 1.34 0 0.68 0 0 Z " fill="#2B64D7" transform="translate(260,165)"/>
<path d="M0 0 C1.32 0.33 2.64 0.66 4 1 C4 2.32 4 3.64 4 5 C1.03 5 -1.94 5 -5 5 C-5 5.99 -5 6.98 -5 8 C-6.65 8 -8.3 8 -10 8 C-8.5625 6 -8.5625 6 -6 4 C-2.97175582 3.64557555 -0.03514061 3.76652765 3 4 C2.34 3.34 1.68 2.68 1 2 C0.01 2.495 0.01 2.495 -1 3 C-0.67 2.01 -0.34 1.02 0 0 Z " fill="#2164E0" transform="translate(106,173)"/>
<path d="M0 0 C2 0 4 0 6 0 C6 1.98 6 3.96 6 6 C5.34 6 4.68 6 4 6 C4 5.34 4 4.68 4 4 C3.01 4.33 2.02 4.66 1 5 C0.67 6.65 0.34 8.3 0 10 C-0.33 10 -0.66 10 -1 10 C-1.125 2.25 -1.125 2.25 0 0 Z " fill="#1362F3" transform="translate(210,168)"/>
<path d="M0 0 C1.32 0 2.64 0 4 0 C4.33 0.99 4.66 1.98 5 3 C5.66 2.01 6.32 1.02 7 0 C7 0.66 7 1.32 7 2 C7.66 2.33 8.32 2.66 9 3 C6.64031256 5.09749995 5.45383006 5.96905704 2.25 6.1875 C1.13625 6.0946875 1.13625 6.0946875 0 6 C0 5.34 0 4.68 0 4 C0.99 4 1.98 4 3 4 C2.34 3.34 1.68 2.68 1 2 C0.01 2.495 0.01 2.495 -1 3 C-0.67 2.01 -0.34 1.02 0 0 Z " fill="#1462EC" transform="translate(194,173)"/>
<path d="M0 0 C1.98 0 3.96 0 6 0 C8.125 4.625 8.125 4.625 7 8 C6.34 8 5.68 8 5 8 C4.67 6.35 4.34 4.7 4 3 C2.35 3 0.7 3 -1 3 C-0.67 2.01 -0.34 1.02 0 0 Z " fill="#165DE5" transform="translate(238,154)"/>
<path d="M0 0 C1 2 1 2 0.375 3.9375 C0.25125 4.618125 0.1275 5.29875 0 6 C1.35444301 7.77190909 1.35444301 7.77190909 3 9 C0.69 9 -1.62 9 -4 9 C-3.38461538 3.46153846 -3.38461538 3.46153846 -1.4375 1.125 C-0.963125 0.75375 -0.48875 0.3825 0 0 Z " fill="#2062E0" transform="translate(99,167)"/>
<path d="M0 0 C0 2.64 0 5.28 0 8 C-1.98 8 -3.96 8 -6 8 C-5.67 7.34 -5.34 6.68 -5 6 C-4.01 6.33 -3.02 6.66 -2 7 C-2 6.01 -2 5.02 -2 4 C-2.99 3.67 -3.98 3.34 -5 3 C-5 2.34 -5 1.68 -5 1 C-1.125 0 -1.125 0 0 0 Z " fill="#0F64F0" transform="translate(162,170)"/>
<path d="M0 0 C2 2 2 2 2 6 C1.34 6 0.68 6 0 6 C-0.33 6.66 -0.66 7.32 -1 8 C-1.66 6.35 -2.32 4.7 -3 3 C-3 3.66 -3 4.32 -3 5 C-3.66 5 -4.32 5 -5 5 C-4.1875 3.0625 -4.1875 3.0625 -3 1 C-2.01 0.67 -1.02 0.34 0 0 Z " fill="#1064EC" transform="translate(84,164)"/>
<path d="M0 0 C0.66 0 1.32 0 2 0 C2.33 0.66 2.66 1.32 3 2 C4.32 1.67 5.64 1.34 7 1 C5.4169423 5.2742558 2.49431596 7.26531794 -1 10 C-1 8.68 -1 7.36 -1 6 C-0.01 6 0.98 6 2 6 C1.34 4.02 0.68 2.04 0 0 Z " fill="#1B64E2" transform="translate(349,149)"/>
<path d="M0 0 C0.66 0.33 1.32 0.66 2 1 C1.67 2.65 1.34 4.3 1 6 C-0.65 6.33 -2.3 6.66 -4 7 C-5.32 5.35 -6.64 3.7 -8 2 C-5.50638429 3.20381448 -3.31856917 4.45428722 -1 6 C-0.67 4.02 -0.34 2.04 0 0 Z " fill="#1E5FD1" transform="translate(318,125)"/>
<path d="M0 0 C0.33 0 0.66 0 1 0 C1.042721 1.66611905 1.04063832 3.33382885 1 5 C0 6 0 6 -2.06640625 6.09765625 C-2.89011719 6.08605469 -3.71382813 6.07445312 -4.5625 6.0625 C-5.38878906 6.05347656 -6.21507813 6.04445312 -7.06640625 6.03515625 C-7.70449219 6.02355469 -8.34257813 6.01195312 -9 6 C-9 5.67 -9 5.34 -9 5 C-6.03 4.34 -3.06 3.68 0 3 C0 2.01 0 1.02 0 0 Z " fill="#185ED2" transform="translate(93,190)"/>
<path d="M0 0 C0.33 0 0.66 0 1 0 C1.05389087 1.95803507 1.09274217 3.91648909 1.125 5.875 C1.14820312 6.96554688 1.17140625 8.05609375 1.1953125 9.1796875 C1 12 1 12 -1 14 C-2.15837573 10.52487282 -1.77265943 8.86329714 -1.0625 5.3125 C-0.86785156 4.31863281 -0.67320313 3.32476562 -0.47265625 2.30078125 C-0.31667969 1.54152344 -0.16070312 0.78226563 0 0 Z " fill="#1F67F4" transform="translate(71,181)"/>
<path d="M0 0 C1.32 0 2.64 0 4 0 C4 0.66 4 1.32 4 2 C5.98 2 7.96 2 10 2 C9.67 2.66 9.34 3.32 9 4 C5.625 3.6875 5.625 3.6875 2 3 C1.34 2.01 0.68 1.02 0 0 Z " fill="#1C63D2" transform="translate(325,169)"/>
<path d="M0 0 C0.99 0.33 1.98 0.66 3 1 C3.625 3.875 3.625 3.875 4 7 C3.34 7.66 2.68 8.32 2 9 C2 7.35 2 5.7 2 4 C1.34 3.67 0.68 3.34 0 3 C0 2.01 0 1.02 0 0 Z " fill="#1C62C9" transform="translate(51,153)"/>
<path d="M0 0 C4.41889613 1.35021826 6.34345343 3.26115668 9 7 C4.25 5.125 4.25 5.125 2 4 C2 3.34 2 2.68 2 2 C1.34 2 0.68 2 0 2 C0 1.34 0 0.68 0 0 Z " fill="#2064DC" transform="translate(303,111)"/>
</svg>
